<svg xmlns="http://www.w3.org/2000/svg" xmlns:xlink="http://www.w3.org/1999/xlink" width="500" zoomAndPan="magnify" viewBox="0 0 375 374.999991" height="500" preserveAspectRatio="xMidYMid meet" version="1.0"><defs><g/><clipPath id="d9cea285b1"><path d="M 4.316406 208.125 L 214 208.125 L 214 220.597656 L 4.316406 220.597656 Z M 4.316406 208.125 " clip-rule="nonzero"/></clipPath></defs><g fill="#d9d9d9" fill-opacity="1"><g transform="translate(5.145915, 197.259743)"><g><path d="M 14.3125 -5.796875 L 5.3125 -5.796875 L 3.5 0 L 0.671875 0 L 8.0625 -22.71875 L 11.734375 -22.71875 L 19.125 0 L 16.125 0 Z M 6.0625 -8.171875 L 13.5625 -8.171875 L 9.828125 -20.3125 Z M 6.0625 -8.171875 "/></g></g></g><g fill="#d9d9d9" fill-opacity="1"><g transform="translate(25.433853, 197.259743)"><g><path d="M 4.46875 0 L 4.46875 -22.71875 L 7.34375 -22.71875 L 7.34375 -2.5625 L 17.703125 -2.5625 L 17.375 0 Z M 4.46875 0 "/></g></g></g><g fill="#d9d9d9" fill-opacity="1"><g transform="translate(45.72179, 197.259743)"><g><path d="M 7.015625 -20.375 L 7.015625 -12.71875 L 15.421875 -12.71875 L 15.421875 -10.359375 L 7.015625 -10.359375 L 7.015625 -2.296875 L 17.34375 -2.296875 L 17.34375 0 L 4.140625 0 L 4.140625 -22.71875 L 17.046875 -22.71875 L 16.71875 -20.375 Z M 7.015625 -20.375 "/></g></g></g><g fill="#d9d9d9" fill-opacity="1"><g transform="translate(66.009729, 197.259743)"><g><path d="M 1.640625 -22.71875 L 4.921875 -22.71875 L 9.90625 -13.984375 L 14.90625 -22.71875 L 18 -22.71875 L 11.546875 -12.265625 L 18.78125 0 L 15.5 0 L 9.828125 -10.265625 L 4.109375 0 L 1.015625 0 L 8.15625 -12.109375 Z M 1.640625 -22.71875 "/></g></g></g><g fill="#d9d9d9" fill-opacity="1"><g transform="translate(86.297665, 197.259743)"><g><path d="M 14.3125 -5.796875 L 5.3125 -5.796875 L 3.5 0 L 0.671875 0 L 8.0625 -22.71875 L 11.734375 -22.71875 L 19.125 0 L 16.125 0 Z M 6.0625 -8.171875 L 13.5625 -8.171875 L 9.828125 -20.3125 Z M 6.0625 -8.171875 "/></g></g></g><g fill="#d9d9d9" fill-opacity="1"><g transform="translate(106.585607, 197.259743)"><g><path d="M 13.03125 0 L 5.03125 -19.984375 C 5.039062 -19.734375 5.066406 -19.3125 5.109375 -18.71875 C 5.148438 -18.132812 5.191406 -17.4375 5.234375 -16.625 C 5.285156 -15.8125 5.328125 -14.953125 5.359375 -14.046875 C 5.390625 -13.148438 5.40625 -12.265625 5.40625 -11.390625 L 5.40625 0 L 2.75 0 L 2.75 -22.71875 L 6.640625 -22.71875 L 14.765625 -2.65625 C 14.753906 -2.976562 14.710938 -3.5625 14.640625 -4.40625 C 14.578125 -5.257812 14.519531 -6.289062 14.46875 -7.5 C 14.414062 -8.71875 14.390625 -10.003906 14.390625 -11.359375 L 14.390625 -22.71875 L 17.046875 -22.71875 L 17.046875 0 Z M 13.03125 0 "/></g></g></g><g fill="#d9d9d9" fill-opacity="1"><g transform="translate(126.873543, 197.259743)"><g><path d="M 15.1875 -11.46875 C 15.1875 -13.445312 14.972656 -15.03125 14.546875 -16.21875 C 14.128906 -17.40625 13.578125 -18.296875 12.890625 -18.890625 C 12.210938 -19.484375 11.46875 -19.878906 10.65625 -20.078125 C 9.851562 -20.273438 9.0625 -20.375 8.28125 -20.375 L 5.609375 -20.375 L 5.609375 -2.296875 L 8.3125 -2.296875 C 9.125 -2.296875 9.9375 -2.421875 10.75 -2.671875 C 11.5625 -2.929688 12.300781 -3.394531 12.96875 -4.0625 C 13.632812 -4.726562 14.171875 -5.65625 14.578125 -6.84375 C 14.984375 -8.039062 15.1875 -9.582031 15.1875 -11.46875 Z M 18.234375 -11.46875 C 18.234375 -9.09375 17.925781 -7.15625 17.3125 -5.65625 C 16.695312 -4.15625 15.878906 -2.992188 14.859375 -2.171875 C 13.847656 -1.347656 12.738281 -0.78125 11.53125 -0.46875 C 10.332031 -0.15625 9.144531 0 7.96875 0 L 2.75 0 L 2.75 -22.71875 L 7.609375 -22.71875 C 8.941406 -22.71875 10.234375 -22.566406 11.484375 -22.265625 C 12.742188 -21.972656 13.882812 -21.425781 14.90625 -20.625 C 15.925781 -19.832031 16.734375 -18.695312 17.328125 -17.21875 C 17.929688 -15.75 18.234375 -13.832031 18.234375 -11.46875 Z M 18.234375 -11.46875 "/></g></g></g><g fill="#d9d9d9" fill-opacity="1"><g transform="translate(147.161479, 197.259743)"><g><path d="M 7.015625 -20.375 L 7.015625 -12.71875 L 15.421875 -12.71875 L 15.421875 -10.359375 L 7.015625 -10.359375 L 7.015625 -2.296875 L 17.34375 -2.296875 L 17.34375 0 L 4.140625 0 L 4.140625 -22.71875 L 17.046875 -22.71875 L 16.71875 -20.375 Z M 7.015625 -20.375 "/></g></g></g><g fill="#d9d9d9" fill-opacity="1"><g transform="translate(167.449415, 197.259743)"><g><path d="M 17.734375 -16.34375 C 17.734375 -15.21875 17.488281 -14.226562 17 -13.375 C 16.507812 -12.53125 15.847656 -11.832031 15.015625 -11.28125 C 14.179688 -10.738281 13.238281 -10.335938 12.1875 -10.078125 L 18.921875 0 L 15.5 0 L 9.296875 -9.75 L 6.21875 -9.75 L 6.21875 0 L 3.34375 0 L 3.34375 -22.71875 L 9.1875 -22.71875 C 11.988281 -22.71875 14.113281 -22.179688 15.5625 -21.109375 C 17.007812 -20.035156 17.734375 -18.445312 17.734375 -16.34375 Z M 14.671875 -16.34375 C 14.671875 -17.8125 14.25 -18.859375 13.40625 -19.484375 C 12.570312 -20.117188 11.273438 -20.4375 9.515625 -20.4375 L 6.21875 -20.4375 L 6.21875 -12 L 9.515625 -12 C 11.148438 -12 12.414062 -12.328125 13.3125 -12.984375 C 14.21875 -13.648438 14.671875 -14.769531 14.671875 -16.34375 Z M 14.671875 -16.34375 "/></g></g></g><g fill="#d9d9d9" fill-opacity="1"><g transform="translate(187.747466, 197.259743)"><g/></g></g><g fill="#d9d9d9" fill-opacity="1"><g transform="translate(208.035403, 197.259743)"><g><path d="M 13.203125 -4.9375 L 6.5 -4.9375 L 5.296875 0 L -0.359375 0 L 6.640625 -22.875 L 13.203125 -22.875 L 20.203125 0 L 14.40625 0 Z M 7.359375 -8.859375 L 12.3125 -8.859375 L 9.828125 -18.96875 Z M 7.359375 -8.859375 "/></g></g></g><g fill="#d9d9d9" fill-opacity="1"><g transform="translate(228.323341, 197.259743)"><g><path d="M 3.0625 0 L 3.0625 -22.875 L 8.484375 -22.875 L 8.484375 -4.28125 L 18.390625 -4.28125 L 17.84375 0 Z M 3.0625 0 "/></g></g></g><g fill="#d9d9d9" fill-opacity="1"><g transform="translate(248.611279, 197.259743)"><g><path d="M 13.265625 -6.90625 C 13.265625 -7.71875 13.109375 -8.351562 12.796875 -8.8125 C 12.484375 -9.28125 12.039062 -9.613281 11.46875 -9.8125 C 10.90625 -10.007812 10.242188 -10.109375 9.484375 -10.109375 L 7.265625 -10.109375 L 7.265625 -3.9375 L 9.25 -3.9375 C 9.78125 -3.9375 10.285156 -3.972656 10.765625 -4.046875 C 11.242188 -4.128906 11.671875 -4.273438 12.046875 -4.484375 C 12.429688 -4.691406 12.726562 -4.988281 12.9375 -5.375 C 13.15625 -5.769531 13.265625 -6.28125 13.265625 -6.90625 Z M 12.40625 -16.484375 C 12.40625 -17.390625 12.117188 -18.039062 11.546875 -18.4375 C 10.984375 -18.84375 10.109375 -19.046875 8.921875 -19.046875 L 7.265625 -19.046875 L 7.265625 -13.75 L 9.09375 -13.75 C 10.257812 -13.75 11.101562 -13.960938 11.625 -14.390625 C 12.144531 -14.816406 12.40625 -15.515625 12.40625 -16.484375 Z M 18.84375 -6.703125 C 18.84375 -5.378906 18.585938 -4.28125 18.078125 -3.40625 C 17.578125 -2.539062 16.882812 -1.859375 16 -1.359375 C 15.125 -0.867188 14.117188 -0.519531 12.984375 -0.3125 C 11.859375 -0.101562 10.675781 0 9.4375 0 L 1.84375 0 L 1.84375 -22.875 L 9.09375 -22.875 C 10.269531 -22.875 11.382812 -22.773438 12.4375 -22.578125 C 13.488281 -22.390625 14.421875 -22.070312 15.234375 -21.625 C 16.046875 -21.175781 16.6875 -20.570312 17.15625 -19.8125 C 17.625 -19.0625 17.859375 -18.132812 17.859375 -17.03125 C 17.859375 -16.113281 17.664062 -15.320312 17.28125 -14.65625 C 16.894531 -13.988281 16.378906 -13.441406 15.734375 -13.015625 C 15.097656 -12.597656 14.40625 -12.296875 13.65625 -12.109375 C 14.476562 -11.972656 15.285156 -11.71875 16.078125 -11.34375 C 16.878906 -10.96875 17.539062 -10.40625 18.0625 -9.65625 C 18.582031 -8.90625 18.84375 -7.921875 18.84375 -6.703125 Z M 18.84375 -6.703125 "/></g></g></g><g fill="#d9d9d9" fill-opacity="1"><g transform="translate(268.899215, 197.259743)"><g><path d="M 18.53125 -15.921875 C 18.53125 -14.828125 18.328125 -13.875 17.921875 -13.0625 C 17.515625 -12.25 16.960938 -11.5625 16.265625 -11 C 15.578125 -10.4375 14.800781 -9.988281 13.9375 -9.65625 L 19.9375 0 L 13.8125 0 L 8.859375 -8.75 L 7.328125 -8.75 L 7.328125 0 L 1.90625 0 L 1.90625 -22.875 L 9.109375 -22.875 C 12.222656 -22.875 14.570312 -22.304688 16.15625 -21.171875 C 17.738281 -20.035156 18.53125 -18.285156 18.53125 -15.921875 Z M 12.953125 -15.921875 C 12.953125 -17.023438 12.628906 -17.828125 11.984375 -18.328125 C 11.335938 -18.828125 10.382812 -19.078125 9.125 -19.078125 L 7.328125 -19.078125 L 7.328125 -12.453125 L 9.34375 -12.453125 C 10.519531 -12.453125 11.414062 -12.726562 12.03125 -13.28125 C 12.644531 -13.832031 12.953125 -14.710938 12.953125 -15.921875 Z M 12.953125 -15.921875 "/></g></g></g><g fill="#d9d9d9" fill-opacity="1"><g transform="translate(289.187157, 197.259743)"><g><path d="M 8.484375 -19.015625 L 8.484375 -13.515625 L 16.40625 -13.515625 L 16.40625 -9.71875 L 8.484375 -9.71875 L 8.484375 -3.875 L 18.03125 -3.875 L 18.03125 0 L 3.0625 0 L 3.0625 -22.875 L 18.015625 -22.875 L 17.46875 -19.015625 Z M 8.484375 -19.015625 "/></g></g></g><g fill="#d9d9d9" fill-opacity="1"><g transform="translate(309.475093, 197.259743)"><g><path d="M 11.8125 -23.453125 C 13.445312 -23.453125 14.835938 -23.234375 15.984375 -22.796875 C 17.140625 -22.359375 18.195312 -21.742188 19.15625 -20.953125 L 16.5 -17.75 C 15.875 -18.269531 15.179688 -18.679688 14.421875 -18.984375 C 13.660156 -19.285156 12.835938 -19.4375 11.953125 -19.4375 C 10.992188 -19.4375 10.117188 -19.160156 9.328125 -18.609375 C 8.535156 -18.066406 7.898438 -17.207031 7.421875 -16.03125 C 6.953125 -14.863281 6.71875 -13.347656 6.71875 -11.484375 C 6.71875 -9.648438 6.941406 -8.148438 7.390625 -6.984375 C 7.847656 -5.828125 8.476562 -4.972656 9.28125 -4.421875 C 10.09375 -3.878906 11.015625 -3.609375 12.046875 -3.609375 C 13.191406 -3.609375 14.140625 -3.820312 14.890625 -4.25 C 15.648438 -4.6875 16.351562 -5.15625 17 -5.65625 L 19.453125 -2.53125 C 18.597656 -1.675781 17.539062 -0.945312 16.28125 -0.34375 C 15.03125 0.257812 13.519531 0.5625 11.75 0.5625 C 9.675781 0.5625 7.835938 0.101562 6.234375 -0.8125 C 4.640625 -1.726562 3.390625 -3.082031 2.484375 -4.875 C 1.578125 -6.664062 1.125 -8.867188 1.125 -11.484375 C 1.125 -14.035156 1.59375 -16.203125 2.53125 -17.984375 C 3.46875 -19.765625 4.742188 -21.117188 6.359375 -22.046875 C 7.984375 -22.984375 9.800781 -23.453125 11.8125 -23.453125 Z M 11.8125 -23.453125 "/></g></g></g><g fill="#d9d9d9" fill-opacity="1"><g transform="translate(329.763029, 197.259743)"><g><path d="M 12.671875 0 L 12.671875 -9.640625 L 7.125 -9.640625 L 7.125 0 L 1.71875 0 L 1.71875 -22.875 L 7.125 -22.875 L 7.125 -14.09375 L 12.671875 -14.09375 L 12.671875 -22.875 L 18.078125 -22.875 L 18.078125 0 Z M 12.671875 0 "/></g></g></g><g fill="#d9d9d9" fill-opacity="1"><g transform="translate(350.050965, 197.259743)"><g><path d="M 12.578125 -18.734375 L 12.578125 0 L 7.15625 0 L 7.15625 -18.734375 L 0.75 -18.734375 L 0.75 -22.875 L 19.25 -22.875 L 18.6875 -18.734375 Z M 12.578125 -18.734375 "/></g></g></g><g fill="#3dcfb6" fill-opacity="1"><g transform="translate(216.452451, 218.486309)"><g><path d="M 4.09375 -8.640625 L 4.09375 -5.890625 L 7.734375 -5.890625 L 7.734375 -4.125 L 4.09375 -4.125 L 4.09375 0 L 1.625 0 L 1.625 -10.390625 L 8.453125 -10.390625 L 8.203125 -8.640625 Z M 4.09375 -8.640625 "/></g></g></g><g fill="#3dcfb6" fill-opacity="1"><g transform="translate(224.980462, 218.486309)"><g><path d="M 8.421875 -7.234375 C 8.421875 -6.742188 8.328125 -6.3125 8.140625 -5.9375 C 7.960938 -5.570312 7.710938 -5.257812 7.390625 -5 C 7.078125 -4.75 6.726562 -4.546875 6.34375 -4.390625 L 9.0625 0 L 6.28125 0 L 4.03125 -3.96875 L 3.328125 -3.96875 L 3.328125 0 L 0.875 0 L 0.875 -10.390625 L 4.140625 -10.390625 C 5.554688 -10.390625 6.625 -10.128906 7.34375 -9.609375 C 8.0625 -9.097656 8.421875 -8.304688 8.421875 -7.234375 Z M 5.890625 -7.234375 C 5.890625 -7.734375 5.742188 -8.097656 5.453125 -8.328125 C 5.160156 -8.554688 4.722656 -8.671875 4.140625 -8.671875 L 3.328125 -8.671875 L 3.328125 -5.65625 L 4.25 -5.65625 C 4.78125 -5.65625 5.1875 -5.78125 5.46875 -6.03125 C 5.75 -6.28125 5.890625 -6.679688 5.890625 -7.234375 Z M 5.890625 -7.234375 "/></g></g></g><g fill="#3dcfb6" fill-opacity="1"><g transform="translate(233.508473, 218.486309)"><g><path d="M 8.65625 -5.203125 C 8.65625 -4.109375 8.5 -3.148438 8.1875 -2.328125 C 7.875 -1.515625 7.40625 -0.878906 6.78125 -0.421875 C 6.164062 0.0234375 5.40625 0.25 4.5 0.25 C 3.59375 0.25 2.828125 0.03125 2.203125 -0.40625 C 1.585938 -0.851562 1.125 -1.484375 0.8125 -2.296875 C 0.5 -3.109375 0.34375 -4.078125 0.34375 -5.203125 C 0.34375 -6.304688 0.5 -7.265625 0.8125 -8.078125 C 1.125 -8.890625 1.585938 -9.519531 2.203125 -9.96875 C 2.828125 -10.425781 3.59375 -10.65625 4.5 -10.65625 C 5.40625 -10.65625 6.164062 -10.4375 6.78125 -10 C 7.40625 -9.5625 7.875 -8.929688 8.1875 -8.109375 C 8.5 -7.296875 8.65625 -6.328125 8.65625 -5.203125 Z M 6.140625 -5.203125 C 6.140625 -6.484375 6.007812 -7.410156 5.75 -7.984375 C 5.5 -8.566406 5.082031 -8.859375 4.5 -8.859375 C 3.914062 -8.859375 3.492188 -8.566406 3.234375 -7.984375 C 2.984375 -7.410156 2.859375 -6.484375 2.859375 -5.203125 C 2.859375 -3.921875 2.988281 -2.988281 3.25 -2.40625 C 3.507812 -1.832031 3.925781 -1.546875 4.5 -1.546875 C 5.101562 -1.546875 5.523438 -1.835938 5.765625 -2.421875 C 6.015625 -3.015625 6.140625 -3.941406 6.140625 -5.203125 Z M 6.140625 -5.203125 "/></g></g></g><g fill="#3dcfb6" fill-opacity="1"><g transform="translate(242.036483, 218.486309)"><g><path d="M 5.234375 0 L 2.5 -8.359375 C 2.53125 -8.140625 2.566406 -7.867188 2.609375 -7.546875 C 2.648438 -7.234375 2.691406 -6.878906 2.734375 -6.484375 C 2.773438 -6.097656 2.804688 -5.6875 2.828125 -5.25 C 2.859375 -4.820312 2.875 -4.378906 2.875 -3.921875 L 2.875 0 L 0.78125 0 L 0.78125 -10.390625 L 3.84375 -10.390625 L 6.5 -2.078125 C 6.445312 -2.390625 6.390625 -2.765625 6.328125 -3.203125 C 6.273438 -3.640625 6.226562 -4.128906 6.1875 -4.671875 C 6.144531 -5.210938 6.125 -5.789062 6.125 -6.40625 L 6.125 -10.390625 L 8.21875 -10.390625 L 8.21875 0 Z M 5.234375 0 "/></g></g></g><g fill="#3dcfb6" fill-opacity="1"><g transform="translate(250.564494, 218.486309)"><g><path d="M 5.71875 -8.515625 L 5.71875 0 L 3.25 0 L 3.25 -8.515625 L 0.34375 -8.515625 L 0.34375 -10.390625 L 8.75 -10.390625 L 8.5 -8.515625 Z M 5.71875 -8.515625 "/></g></g></g><g fill="#3dcfb6" fill-opacity="1"><g transform="translate(259.092505, 218.486309)"><g><path d="M 3.859375 -8.640625 L 3.859375 -6.140625 L 7.453125 -6.140625 L 7.453125 -4.421875 L 3.859375 -4.421875 L 3.859375 -1.765625 L 8.203125 -1.765625 L 8.203125 0 L 1.390625 0 L 1.390625 -10.390625 L 8.1875 -10.390625 L 7.9375 -8.640625 Z M 3.859375 -8.640625 "/></g></g></g><g fill="#3dcfb6" fill-opacity="1"><g transform="translate(267.620516, 218.486309)"><g><path d="M 5.234375 0 L 2.5 -8.359375 C 2.53125 -8.140625 2.566406 -7.867188 2.609375 -7.546875 C 2.648438 -7.234375 2.691406 -6.878906 2.734375 -6.484375 C 2.773438 -6.097656 2.804688 -5.6875 2.828125 -5.25 C 2.859375 -4.820312 2.875 -4.378906 2.875 -3.921875 L 2.875 0 L 0.78125 0 L 0.78125 -10.390625 L 3.84375 -10.390625 L 6.5 -2.078125 C 6.445312 -2.390625 6.390625 -2.765625 6.328125 -3.203125 C 6.273438 -3.640625 6.226562 -4.128906 6.1875 -4.671875 C 6.144531 -5.210938 6.125 -5.789062 6.125 -6.40625 L 6.125 -10.390625 L 8.21875 -10.390625 L 8.21875 0 Z M 5.234375 0 "/></g></g></g><g fill="#3dcfb6" fill-opacity="1"><g transform="translate(276.148527, 218.486309)"><g><path d="M 6.0625 -5.25 C 6.0625 -5.945312 6.003906 -6.515625 5.890625 -6.953125 C 5.773438 -7.398438 5.613281 -7.742188 5.40625 -7.984375 C 5.195312 -8.222656 4.953125 -8.382812 4.671875 -8.46875 C 4.390625 -8.5625 4.085938 -8.609375 3.765625 -8.609375 L 3.234375 -8.609375 L 3.234375 -1.78125 L 3.765625 -1.78125 C 4.109375 -1.78125 4.421875 -1.832031 4.703125 -1.9375 C 4.984375 -2.039062 5.222656 -2.222656 5.421875 -2.484375 C 5.628906 -2.742188 5.785156 -3.097656 5.890625 -3.546875 C 6.003906 -3.992188 6.0625 -4.5625 6.0625 -5.25 Z M 8.625 -5.25 C 8.625 -4.195312 8.484375 -3.328125 8.203125 -2.640625 C 7.921875 -1.953125 7.539062 -1.414062 7.0625 -1.03125 C 6.59375 -0.65625 6.054688 -0.390625 5.453125 -0.234375 C 4.847656 -0.078125 4.222656 0 3.578125 0 L 0.78125 0 L 0.78125 -10.390625 L 3.40625 -10.390625 C 4.070312 -10.390625 4.710938 -10.320312 5.328125 -10.1875 C 5.953125 -10.050781 6.507812 -9.796875 7 -9.421875 C 7.5 -9.054688 7.894531 -8.535156 8.1875 -7.859375 C 8.476562 -7.191406 8.625 -6.320312 8.625 -5.25 Z M 8.625 -5.25 "/></g></g></g><g fill="#3dcfb6" fill-opacity="1"><g transform="translate(284.676537, 218.486309)"><g/></g></g><g fill="#3dcfb6" fill-opacity="1"><g transform="translate(293.204548, 218.486309)"><g><path d="M 6.0625 -5.25 C 6.0625 -5.945312 6.003906 -6.515625 5.890625 -6.953125 C 5.773438 -7.398438 5.613281 -7.742188 5.40625 -7.984375 C 5.195312 -8.222656 4.953125 -8.382812 4.671875 -8.46875 C 4.390625 -8.5625 4.085938 -8.609375 3.765625 -8.609375 L 3.234375 -8.609375 L 3.234375 -1.78125 L 3.765625 -1.78125 C 4.109375 -1.78125 4.421875 -1.832031 4.703125 -1.9375 C 4.984375 -2.039062 5.222656 -2.222656 5.421875 -2.484375 C 5.628906 -2.742188 5.785156 -3.097656 5.890625 -3.546875 C 6.003906 -3.992188 6.0625 -4.5625 6.0625 -5.25 Z M 8.625 -5.25 C 8.625 -4.195312 8.484375 -3.328125 8.203125 -2.640625 C 7.921875 -1.953125 7.539062 -1.414062 7.0625 -1.03125 C 6.59375 -0.65625 6.054688 -0.390625 5.453125 -0.234375 C 4.847656 -0.078125 4.222656 0 3.578125 0 L 0.78125 0 L 0.78125 -10.390625 L 3.40625 -10.390625 C 4.070312 -10.390625 4.710938 -10.320312 5.328125 -10.1875 C 5.953125 -10.050781 6.507812 -9.796875 7 -9.421875 C 7.5 -9.054688 7.894531 -8.535156 8.1875 -7.859375 C 8.476562 -7.191406 8.625 -6.320312 8.625 -5.25 Z M 8.625 -5.25 "/></g></g></g><g fill="#3dcfb6" fill-opacity="1"><g transform="translate(301.732559, 218.486309)"><g><path d="M 3.859375 -8.640625 L 3.859375 -6.140625 L 7.453125 -6.140625 L 7.453125 -4.421875 L 3.859375 -4.421875 L 3.859375 -1.765625 L 8.203125 -1.765625 L 8.203125 0 L 1.390625 0 L 1.390625 -10.390625 L 8.1875 -10.390625 L 7.9375 -8.640625 Z M 3.859375 -8.640625 "/></g></g></g><g fill="#3dcfb6" fill-opacity="1"><g transform="translate(310.26057, 218.486309)"><g><path d="M 4.546875 -1.921875 L 6.5 -10.390625 L 9.015625 -10.390625 L 6.015625 0 L 2.984375 0 L 0 -10.390625 L 2.609375 -10.390625 Z M 4.546875 -1.921875 "/></g></g></g><g fill="#3dcfb6" fill-opacity="1"><g transform="translate(318.788581, 218.486309)"><g><path d="M 3.859375 -8.640625 L 3.859375 -6.140625 L 7.453125 -6.140625 L 7.453125 -4.421875 L 3.859375 -4.421875 L 3.859375 -1.765625 L 8.203125 -1.765625 L 8.203125 0 L 1.390625 0 L 1.390625 -10.390625 L 8.1875 -10.390625 L 7.9375 -8.640625 Z M 3.859375 -8.640625 "/></g></g></g><g fill="#3dcfb6" fill-opacity="1"><g transform="translate(327.316591, 218.486309)"><g><path d="M 1.390625 0 L 1.390625 -10.390625 L 3.859375 -10.390625 L 3.859375 -1.9375 L 8.359375 -1.9375 L 8.109375 0 Z M 1.390625 0 "/></g></g></g><g fill="#3dcfb6" fill-opacity="1"><g transform="translate(335.844602, 218.486309)"><g><path d="M 8.65625 -5.203125 C 8.65625 -4.109375 8.5 -3.148438 8.1875 -2.328125 C 7.875 -1.515625 7.40625 -0.878906 6.78125 -0.421875 C 6.164062 0.0234375 5.40625 0.25 4.5 0.25 C 3.59375 0.25 2.828125 0.03125 2.203125 -0.40625 C 1.585938 -0.851562 1.125 -1.484375 0.8125 -2.296875 C 0.5 -3.109375 0.34375 -4.078125 0.34375 -5.203125 C 0.34375 -6.304688 0.5 -7.265625 0.8125 -8.078125 C 1.125 -8.890625 1.585938 -9.519531 2.203125 -9.96875 C 2.828125 -10.425781 3.59375 -10.65625 4.5 -10.65625 C 5.40625 -10.65625 6.164062 -10.4375 6.78125 -10 C 7.40625 -9.5625 7.875 -8.929688 8.1875 -8.109375 C 8.5 -7.296875 8.65625 -6.328125 8.65625 -5.203125 Z M 6.140625 -5.203125 C 6.140625 -6.484375 6.007812 -7.410156 5.75 -7.984375 C 5.5 -8.566406 5.082031 -8.859375 4.5 -8.859375 C 3.914062 -8.859375 3.492188 -8.566406 3.234375 -7.984375 C 2.984375 -7.410156 2.859375 -6.484375 2.859375 -5.203125 C 2.859375 -3.921875 2.988281 -2.988281 3.25 -2.40625 C 3.507812 -1.832031 3.925781 -1.546875 4.5 -1.546875 C 5.101562 -1.546875 5.523438 -1.835938 5.765625 -2.421875 C 6.015625 -3.015625 6.140625 -3.941406 6.140625 -5.203125 Z M 6.140625 -5.203125 "/></g></g></g><g fill="#3dcfb6" fill-opacity="1"><g transform="translate(344.372613, 218.486309)"><g><path d="M 6.109375 -7 C 6.109375 -7.375 6.039062 -7.679688 5.90625 -7.921875 C 5.769531 -8.160156 5.5625 -8.335938 5.28125 -8.453125 C 5.007812 -8.578125 4.660156 -8.640625 4.234375 -8.640625 L 3.390625 -8.640625 L 3.390625 -5.25 L 4.359375 -5.25 C 4.722656 -5.25 5.035156 -5.3125 5.296875 -5.4375 C 5.554688 -5.5625 5.753906 -5.75 5.890625 -6 C 6.035156 -6.257812 6.109375 -6.59375 6.109375 -7 Z M 8.640625 -7.015625 C 8.640625 -6.210938 8.46875 -5.546875 8.125 -5.015625 C 7.78125 -4.492188 7.296875 -4.101562 6.671875 -3.84375 C 6.054688 -3.582031 5.335938 -3.453125 4.515625 -3.453125 L 3.390625 -3.453125 L 3.390625 0 L 0.9375 0 L 0.9375 -10.390625 L 4.203125 -10.390625 C 5.617188 -10.390625 6.710938 -10.109375 7.484375 -9.546875 C 8.253906 -8.992188 8.640625 -8.148438 8.640625 -7.015625 Z M 8.640625 -7.015625 "/></g></g></g><g fill="#3dcfb6" fill-opacity="1"><g transform="translate(352.900624, 218.486309)"><g><path d="M 3.859375 -8.640625 L 3.859375 -6.140625 L 7.453125 -6.140625 L 7.453125 -4.421875 L 3.859375 -4.421875 L 3.859375 -1.765625 L 8.203125 -1.765625 L 8.203125 0 L 1.390625 0 L 1.390625 -10.390625 L 8.1875 -10.390625 L 7.9375 -8.640625 Z M 3.859375 -8.640625 "/></g></g></g><g fill="#3dcfb6" fill-opacity="1"><g transform="translate(361.428634, 218.486309)"><g><path d="M 8.421875 -7.234375 C 8.421875 -6.742188 8.328125 -6.3125 8.140625 -5.9375 C 7.960938 -5.570312 7.710938 -5.257812 7.390625 -5 C 7.078125 -4.75 6.726562 -4.546875 6.34375 -4.390625 L 9.0625 0 L 6.28125 0 L 4.03125 -3.96875 L 3.328125 -3.96875 L 3.328125 0 L 0.875 0 L 0.875 -10.390625 L 4.140625 -10.390625 C 5.554688 -10.390625 6.625 -10.128906 7.34375 -9.609375 C 8.0625 -9.097656 8.421875 -8.304688 8.421875 -7.234375 Z M 5.890625 -7.234375 C 5.890625 -7.734375 5.742188 -8.097656 5.453125 -8.328125 C 5.160156 -8.554688 4.722656 -8.671875 4.140625 -8.671875 L 3.328125 -8.671875 L 3.328125 -5.65625 L 4.25 -5.65625 C 4.78125 -5.65625 5.1875 -5.78125 5.46875 -6.03125 C 5.75 -6.28125 5.890625 -6.679688 5.890625 -7.234375 Z M 5.890625 -7.234375 "/></g></g></g><g clip-path="url(#d9cea285b1)"><path fill="#3dcfb6" d="M 4.316406 208.125 L 213.996094 208.125 L 213.996094 220.597656 L 4.316406 220.597656 Z M 4.316406 208.125 " fill-opacity="1" fill-rule="nonzero"/></g></svg>