<svg xmlns="http://www.w3.org/2000/svg" xmlns:xlink="http://www.w3.org/1999/xlink" width="500" zoomAndPan="magnify" viewBox="0 0 375 374.999991" height="500" preserveAspectRatio="xMidYMid meet" version="1.0"><defs><g/><clipPath id="d26fee9fd7"><path d="M 119 55.589844 L 265 55.589844 L 265 244 L 119 244 Z M 119 55.589844 " clip-rule="nonzero"/></clipPath><clipPath id="83f14c0d12"><path d="M 129 253 L 256 253 L 256 271.589844 L 129 271.589844 Z M 129 253 " clip-rule="nonzero"/></clipPath></defs><g fill="#ff6a00" fill-opacity="0.4"><g transform="translate(4.665919, 308.641066)"><g><path d="M 0.34375 0 L 7.734375 -21.15625 L 12.625 -21.15625 L 19.984375 0 L 14.9375 0 L 13.21875 -4.96875 L 5.734375 -4.96875 L 4.015625 0 Z M 6.796875 -8.015625 L 12.15625 -8.015625 L 9.5 -15.625 L 9.453125 -15.625 Z M 6.796875 -8.015625 "/></g></g></g><g fill="#ff6a00" fill-opacity="0.4"><g transform="translate(25.012246, 308.641066)"><g><path d="M 3.5625 0 L 3.5625 -21.15625 L 8.453125 -21.15625 L 8.453125 -3.46875 L 19.75 -3.46875 L 19.75 0 Z M 3.5625 0 "/></g></g></g><g fill="#ff6a00" fill-opacity="0.4"><g transform="translate(45.358573, 308.641066)"><g><path d="M 2.765625 0 L 2.765625 -21.15625 L 18.03125 -21.15625 L 18.03125 -17.90625 L 7.65625 -17.90625 L 7.65625 -12.546875 L 16.40625 -12.546875 L 16.40625 -9.5 L 7.65625 -9.5 L 7.65625 -3.25 L 18.90625 -3.25 L 18.90625 0 Z M 2.765625 0 "/></g></g></g><g fill="#ff6a00" fill-opacity="0.4"><g transform="translate(65.7049, 308.641066)"><g><path d="M 0.609375 0 L 7.296875 -10.59375 L 0.609375 -21.15625 L 6.390625 -21.15625 L 11.140625 -13.625 L 15.671875 -21.15625 L 19.75 -21.15625 L 13.0625 -10.59375 L 19.75 0 L 13.96875 0 L 9.203125 -7.53125 L 4.6875 0 Z M 0.609375 0 "/></g></g></g><g fill="#ff6a00" fill-opacity="0.4"><g transform="translate(86.051227, 308.641066)"><g><path d="M 0.34375 0 L 7.734375 -21.15625 L 12.625 -21.15625 L 19.984375 0 L 14.9375 0 L 13.21875 -4.96875 L 5.734375 -4.96875 L 4.015625 0 Z M 6.796875 -8.015625 L 12.15625 -8.015625 L 9.5 -15.625 L 9.453125 -15.625 Z M 6.796875 -8.015625 "/></g></g></g><g fill="#ff6a00" fill-opacity="0.4"><g transform="translate(106.397555, 308.641066)"><g><path d="M 1.828125 0 L 1.828125 -21.15625 L 6.203125 -21.15625 L 15.21875 -7.28125 L 15.25 -7.28125 L 15.25 -21.15625 L 18.53125 -21.15625 L 18.53125 0 L 14.15625 0 L 5.125 -13.890625 L 5.078125 -13.890625 L 5.078125 0 Z M 1.828125 0 "/></g></g></g><g fill="#ff6a00" fill-opacity="0.4"><g transform="translate(126.743882, 308.641066)"><g><path d="M 1.421875 0 L 1.421875 -21.15625 L 8.671875 -21.15625 C 12.054688 -21.15625 14.671875 -20.238281 16.515625 -18.40625 C 18.359375 -16.582031 19.28125 -13.984375 19.28125 -10.609375 C 19.28125 -7.242188 18.351562 -4.632812 16.5 -2.78125 C 14.644531 -0.925781 12.035156 0 8.671875 0 Z M 6.296875 -3.25 L 7.796875 -3.25 C 9.910156 -3.25 11.460938 -3.816406 12.453125 -4.953125 C 13.453125 -6.085938 13.953125 -7.960938 13.953125 -10.578125 C 13.953125 -13.234375 13.460938 -15.117188 12.484375 -16.234375 C 11.515625 -17.347656 9.953125 -17.90625 7.796875 -17.90625 L 6.296875 -17.90625 Z M 6.296875 -3.25 "/></g></g></g><g fill="#ff6a00" fill-opacity="0.4"><g transform="translate(147.090209, 308.641066)"><g><path d="M 2.765625 0 L 2.765625 -21.15625 L 18.03125 -21.15625 L 18.03125 -17.90625 L 7.65625 -17.90625 L 7.65625 -12.546875 L 16.40625 -12.546875 L 16.40625 -9.5 L 7.65625 -9.5 L 7.65625 -3.25 L 18.90625 -3.25 L 18.90625 0 Z M 2.765625 0 "/></g></g></g><g fill="#ff6a00" fill-opacity="0.4"><g transform="translate(167.436536, 308.641066)"><g><path d="M 2.265625 0 L 2.265625 -21.15625 L 11.53125 -21.15625 C 13.6875 -21.15625 15.363281 -20.6875 16.5625 -19.75 C 17.757812 -18.8125 18.359375 -17.5 18.359375 -15.8125 C 18.359375 -13.09375 16.867188 -11.050781 13.890625 -9.6875 L 20.140625 0 L 14.328125 0 L 8.921875 -8.40625 L 7.140625 -8.40625 L 7.140625 0 Z M 7.140625 -11.46875 L 8.046875 -11.46875 C 9.578125 -11.46875 10.820312 -11.832031 11.78125 -12.5625 C 12.75 -13.289062 13.234375 -14.238281 13.234375 -15.40625 C 13.234375 -16.257812 12.878906 -16.929688 12.171875 -17.421875 C 11.710938 -17.742188 10.554688 -17.90625 8.703125 -17.90625 L 7.140625 -17.90625 Z M 7.140625 -11.46875 "/></g></g></g><g fill="#ff6a00" fill-opacity="0.4"><g transform="translate(187.782863, 308.641066)"><g/></g></g><g fill="#ff6a00" fill-opacity="0.4"><g transform="translate(208.12919, 308.641066)"><g><path d="M 0.34375 0 L 7.734375 -21.15625 L 12.625 -21.15625 L 19.984375 0 L 14.9375 0 L 13.21875 -4.96875 L 5.734375 -4.96875 L 4.015625 0 Z M 6.796875 -8.015625 L 12.15625 -8.015625 L 9.5 -15.625 L 9.453125 -15.625 Z M 6.796875 -8.015625 "/></g></g></g><g fill="#ff6a00" fill-opacity="0.4"><g transform="translate(228.475518, 308.641066)"><g><path d="M 3.5625 0 L 3.5625 -21.15625 L 8.453125 -21.15625 L 8.453125 -3.46875 L 19.75 -3.46875 L 19.75 0 Z M 3.5625 0 "/></g></g></g><g fill="#ff6a00" fill-opacity="0.4"><g transform="translate(248.821845, 308.641066)"><g><path d="M 2.265625 0 L 2.265625 -21.15625 L 10.890625 -21.15625 C 15.765625 -21.15625 18.203125 -19.539062 18.203125 -16.3125 C 18.203125 -14.207031 16.765625 -12.554688 13.890625 -11.359375 C 17.472656 -10.078125 19.265625 -8.082031 19.265625 -5.375 C 19.265625 -3.695312 18.59375 -2.378906 17.25 -1.421875 C 15.914062 -0.472656 14.078125 0 11.734375 0 Z M 7.140625 -12.578125 L 8.34375 -12.578125 C 9.84375 -12.578125 11.015625 -12.859375 11.859375 -13.421875 C 12.710938 -13.984375 13.140625 -14.75 13.140625 -15.71875 C 13.140625 -16.539062 12.835938 -17.109375 12.234375 -17.421875 C 11.640625 -17.742188 10.566406 -17.90625 9.015625 -17.90625 L 7.140625 -17.90625 Z M 7.140625 -3.25 L 9.78125 -3.25 C 12.582031 -3.25 13.984375 -4.1875 13.984375 -6.0625 C 13.984375 -7.144531 13.484375 -7.992188 12.484375 -8.609375 C 11.484375 -9.222656 10.113281 -9.53125 8.375 -9.53125 L 7.140625 -9.53125 Z M 7.140625 -3.25 "/></g></g></g><g fill="#ff6a00" fill-opacity="0.4"><g transform="translate(269.168172, 308.641066)"><g><path d="M 2.265625 0 L 2.265625 -21.15625 L 11.53125 -21.15625 C 13.6875 -21.15625 15.363281 -20.6875 16.5625 -19.75 C 17.757812 -18.8125 18.359375 -17.5 18.359375 -15.8125 C 18.359375 -13.09375 16.867188 -11.050781 13.890625 -9.6875 L 20.140625 0 L 14.328125 0 L 8.921875 -8.40625 L 7.140625 -8.40625 L 7.140625 0 Z M 7.140625 -11.46875 L 8.046875 -11.46875 C 9.578125 -11.46875 10.820312 -11.832031 11.78125 -12.5625 C 12.75 -13.289062 13.234375 -14.238281 13.234375 -15.40625 C 13.234375 -16.257812 12.878906 -16.929688 12.171875 -17.421875 C 11.710938 -17.742188 10.554688 -17.90625 8.703125 -17.90625 L 7.140625 -17.90625 Z M 7.140625 -11.46875 "/></g></g></g><g fill="#ff6a00" fill-opacity="0.4"><g transform="translate(289.514499, 308.641066)"><g><path d="M 2.765625 0 L 2.765625 -21.15625 L 18.03125 -21.15625 L 18.03125 -17.90625 L 7.65625 -17.90625 L 7.65625 -12.546875 L 16.40625 -12.546875 L 16.40625 -9.5 L 7.65625 -9.5 L 7.65625 -3.25 L 18.90625 -3.25 L 18.90625 0 Z M 2.765625 0 "/></g></g></g><g fill="#ff6a00" fill-opacity="0.4"><g transform="translate(309.860826, 308.641066)"><g><path d="M 19.53125 -0.609375 C 17.070312 0.140625 14.648438 0.515625 12.265625 0.515625 C 8.804688 0.515625 6.023438 -0.5 3.921875 -2.53125 C 1.816406 -4.570312 0.765625 -7.257812 0.765625 -10.59375 C 0.765625 -13.675781 1.695312 -16.238281 3.5625 -18.28125 C 4.675781 -19.5 5.972656 -20.367188 7.453125 -20.890625 C 8.929688 -21.410156 10.828125 -21.671875 13.140625 -21.671875 C 15.492188 -21.671875 17.625 -21.460938 19.53125 -21.046875 L 19.53125 -17.265625 C 17.050781 -18.035156 14.972656 -18.421875 13.296875 -18.421875 C 11.085938 -18.421875 9.320312 -17.707031 8 -16.28125 C 6.6875 -14.851562 6.03125 -12.925781 6.03125 -10.5 C 6.03125 -8.289062 6.71875 -6.476562 8.09375 -5.0625 C 9.46875 -3.65625 11.234375 -2.953125 13.390625 -2.953125 C 15.222656 -2.953125 17.269531 -3.375 19.53125 -4.21875 Z M 19.53125 -0.609375 "/></g></g></g><g fill="#ff6a00" fill-opacity="0.4"><g transform="translate(330.207153, 308.641066)"><g><path d="M 1.734375 0 L 1.734375 -21.15625 L 6.609375 -21.15625 L 6.609375 -12.453125 L 13.734375 -12.453125 L 13.734375 -21.15625 L 18.625 -21.15625 L 18.625 0 L 13.734375 0 L 13.734375 -9.40625 L 6.609375 -9.40625 L 6.609375 0 Z M 1.734375 0 "/></g></g></g><g fill="#ff6a00" fill-opacity="0.4"><g transform="translate(350.553481, 308.641066)"><g><path d="M 7.734375 0 L 7.734375 -17.90625 L 0.40625 -17.90625 L 0.40625 -21.15625 L 19.9375 -21.15625 L 19.9375 -17.90625 L 12.625 -17.90625 L 12.625 0 Z M 7.734375 0 "/></g></g></g><g fill="#3dcfb6" fill-opacity="1"><g transform="translate(4.367287, 308.342444)"><g><path d="M 0.34375 0 L 7.734375 -21.15625 L 12.625 -21.15625 L 19.984375 0 L 14.9375 0 L 13.21875 -4.96875 L 5.734375 -4.96875 L 4.015625 0 Z M 6.796875 -8.015625 L 12.15625 -8.015625 L 9.5 -15.625 L 9.453125 -15.625 Z M 6.796875 -8.015625 "/></g></g></g><g fill="#3dcfb6" fill-opacity="1"><g transform="translate(24.713614, 308.342444)"><g><path d="M 3.5625 0 L 3.5625 -21.15625 L 8.453125 -21.15625 L 8.453125 -3.46875 L 19.75 -3.46875 L 19.75 0 Z M 3.5625 0 "/></g></g></g><g fill="#3dcfb6" fill-opacity="1"><g transform="translate(45.059941, 308.342444)"><g><path d="M 2.765625 0 L 2.765625 -21.15625 L 18.03125 -21.15625 L 18.03125 -17.90625 L 7.65625 -17.90625 L 7.65625 -12.546875 L 16.40625 -12.546875 L 16.40625 -9.5 L 7.65625 -9.5 L 7.65625 -3.25 L 18.90625 -3.25 L 18.90625 0 Z M 2.765625 0 "/></g></g></g><g fill="#3dcfb6" fill-opacity="1"><g transform="translate(65.406268, 308.342444)"><g><path d="M 0.609375 0 L 7.296875 -10.59375 L 0.609375 -21.15625 L 6.390625 -21.15625 L 11.140625 -13.625 L 15.671875 -21.15625 L 19.75 -21.15625 L 13.0625 -10.59375 L 19.75 0 L 13.96875 0 L 9.203125 -7.53125 L 4.6875 0 Z M 0.609375 0 "/></g></g></g><g fill="#3dcfb6" fill-opacity="1"><g transform="translate(85.752596, 308.342444)"><g><path d="M 0.34375 0 L 7.734375 -21.15625 L 12.625 -21.15625 L 19.984375 0 L 14.9375 0 L 13.21875 -4.96875 L 5.734375 -4.96875 L 4.015625 0 Z M 6.796875 -8.015625 L 12.15625 -8.015625 L 9.5 -15.625 L 9.453125 -15.625 Z M 6.796875 -8.015625 "/></g></g></g><g fill="#3dcfb6" fill-opacity="1"><g transform="translate(106.098923, 308.342444)"><g><path d="M 1.828125 0 L 1.828125 -21.15625 L 6.203125 -21.15625 L 15.21875 -7.28125 L 15.25 -7.28125 L 15.25 -21.15625 L 18.53125 -21.15625 L 18.53125 0 L 14.15625 0 L 5.125 -13.890625 L 5.078125 -13.890625 L 5.078125 0 Z M 1.828125 0 "/></g></g></g><g fill="#3dcfb6" fill-opacity="1"><g transform="translate(126.44525, 308.342444)"><g><path d="M 1.421875 0 L 1.421875 -21.15625 L 8.671875 -21.15625 C 12.054688 -21.15625 14.671875 -20.238281 16.515625 -18.40625 C 18.359375 -16.582031 19.28125 -13.984375 19.28125 -10.609375 C 19.28125 -7.242188 18.351562 -4.632812 16.5 -2.78125 C 14.644531 -0.925781 12.035156 0 8.671875 0 Z M 6.296875 -3.25 L 7.796875 -3.25 C 9.910156 -3.25 11.460938 -3.816406 12.453125 -4.953125 C 13.453125 -6.085938 13.953125 -7.960938 13.953125 -10.578125 C 13.953125 -13.234375 13.460938 -15.117188 12.484375 -16.234375 C 11.515625 -17.347656 9.953125 -17.90625 7.796875 -17.90625 L 6.296875 -17.90625 Z M 6.296875 -3.25 "/></g></g></g><g fill="#3dcfb6" fill-opacity="1"><g transform="translate(146.791577, 308.342444)"><g><path d="M 2.765625 0 L 2.765625 -21.15625 L 18.03125 -21.15625 L 18.03125 -17.90625 L 7.65625 -17.90625 L 7.65625 -12.546875 L 16.40625 -12.546875 L 16.40625 -9.5 L 7.65625 -9.5 L 7.65625 -3.25 L 18.90625 -3.25 L 18.90625 0 Z M 2.765625 0 "/></g></g></g><g fill="#3dcfb6" fill-opacity="1"><g transform="translate(167.137904, 308.342444)"><g><path d="M 2.265625 0 L 2.265625 -21.15625 L 11.53125 -21.15625 C 13.6875 -21.15625 15.363281 -20.6875 16.5625 -19.75 C 17.757812 -18.8125 18.359375 -17.5 18.359375 -15.8125 C 18.359375 -13.09375 16.867188 -11.050781 13.890625 -9.6875 L 20.140625 0 L 14.328125 0 L 8.921875 -8.40625 L 7.140625 -8.40625 L 7.140625 0 Z M 7.140625 -11.46875 L 8.046875 -11.46875 C 9.578125 -11.46875 10.820312 -11.832031 11.78125 -12.5625 C 12.75 -13.289062 13.234375 -14.238281 13.234375 -15.40625 C 13.234375 -16.257812 12.878906 -16.929688 12.171875 -17.421875 C 11.710938 -17.742188 10.554688 -17.90625 8.703125 -17.90625 L 7.140625 -17.90625 Z M 7.140625 -11.46875 "/></g></g></g><g fill="#3dcfb6" fill-opacity="1"><g transform="translate(187.484231, 308.342444)"><g/></g></g><g fill="#3dcfb6" fill-opacity="1"><g transform="translate(207.830559, 308.342444)"><g><path d="M 0.34375 0 L 7.734375 -21.15625 L 12.625 -21.15625 L 19.984375 0 L 14.9375 0 L 13.21875 -4.96875 L 5.734375 -4.96875 L 4.015625 0 Z M 6.796875 -8.015625 L 12.15625 -8.015625 L 9.5 -15.625 L 9.453125 -15.625 Z M 6.796875 -8.015625 "/></g></g></g><g fill="#3dcfb6" fill-opacity="1"><g transform="translate(228.176886, 308.342444)"><g><path d="M 3.5625 0 L 3.5625 -21.15625 L 8.453125 -21.15625 L 8.453125 -3.46875 L 19.75 -3.46875 L 19.75 0 Z M 3.5625 0 "/></g></g></g><g fill="#3dcfb6" fill-opacity="1"><g transform="translate(248.523213, 308.342444)"><g><path d="M 2.265625 0 L 2.265625 -21.15625 L 10.890625 -21.15625 C 15.765625 -21.15625 18.203125 -19.539062 18.203125 -16.3125 C 18.203125 -14.207031 16.765625 -12.554688 13.890625 -11.359375 C 17.472656 -10.078125 19.265625 -8.082031 19.265625 -5.375 C 19.265625 -3.695312 18.59375 -2.378906 17.25 -1.421875 C 15.914062 -0.472656 14.078125 0 11.734375 0 Z M 7.140625 -12.578125 L 8.34375 -12.578125 C 9.84375 -12.578125 11.015625 -12.859375 11.859375 -13.421875 C 12.710938 -13.984375 13.140625 -14.75 13.140625 -15.71875 C 13.140625 -16.539062 12.835938 -17.109375 12.234375 -17.421875 C 11.640625 -17.742188 10.566406 -17.90625 9.015625 -17.90625 L 7.140625 -17.90625 Z M 7.140625 -3.25 L 9.78125 -3.25 C 12.582031 -3.25 13.984375 -4.1875 13.984375 -6.0625 C 13.984375 -7.144531 13.484375 -7.992188 12.484375 -8.609375 C 11.484375 -9.222656 10.113281 -9.53125 8.375 -9.53125 L 7.140625 -9.53125 Z M 7.140625 -3.25 "/></g></g></g><g fill="#3dcfb6" fill-opacity="1"><g transform="translate(268.86954, 308.342444)"><g><path d="M 2.265625 0 L 2.265625 -21.15625 L 11.53125 -21.15625 C 13.6875 -21.15625 15.363281 -20.6875 16.5625 -19.75 C 17.757812 -18.8125 18.359375 -17.5 18.359375 -15.8125 C 18.359375 -13.09375 16.867188 -11.050781 13.890625 -9.6875 L 20.140625 0 L 14.328125 0 L 8.921875 -8.40625 L 7.140625 -8.40625 L 7.140625 0 Z M 7.140625 -11.46875 L 8.046875 -11.46875 C 9.578125 -11.46875 10.820312 -11.832031 11.78125 -12.5625 C 12.75 -13.289062 13.234375 -14.238281 13.234375 -15.40625 C 13.234375 -16.257812 12.878906 -16.929688 12.171875 -17.421875 C 11.710938 -17.742188 10.554688 -17.90625 8.703125 -17.90625 L 7.140625 -17.90625 Z M 7.140625 -11.46875 "/></g></g></g><g fill="#3dcfb6" fill-opacity="1"><g transform="translate(289.215867, 308.342444)"><g><path d="M 2.765625 0 L 2.765625 -21.15625 L 18.03125 -21.15625 L 18.03125 -17.90625 L 7.65625 -17.90625 L 7.65625 -12.546875 L 16.40625 -12.546875 L 16.40625 -9.5 L 7.65625 -9.5 L 7.65625 -3.25 L 18.90625 -3.25 L 18.90625 0 Z M 2.765625 0 "/></g></g></g><g fill="#3dcfb6" fill-opacity="1"><g transform="translate(309.562194, 308.342444)"><g><path d="M 19.53125 -0.609375 C 17.070312 0.140625 14.648438 0.515625 12.265625 0.515625 C 8.804688 0.515625 6.023438 -0.5 3.921875 -2.53125 C 1.816406 -4.570312 0.765625 -7.257812 0.765625 -10.59375 C 0.765625 -13.675781 1.695312 -16.238281 3.5625 -18.28125 C 4.675781 -19.5 5.972656 -20.367188 7.453125 -20.890625 C 8.929688 -21.410156 10.828125 -21.671875 13.140625 -21.671875 C 15.492188 -21.671875 17.625 -21.460938 19.53125 -21.046875 L 19.53125 -17.265625 C 17.050781 -18.035156 14.972656 -18.421875 13.296875 -18.421875 C 11.085938 -18.421875 9.320312 -17.707031 8 -16.28125 C 6.6875 -14.851562 6.03125 -12.925781 6.03125 -10.5 C 6.03125 -8.289062 6.71875 -6.476562 8.09375 -5.0625 C 9.46875 -3.65625 11.234375 -2.953125 13.390625 -2.953125 C 15.222656 -2.953125 17.269531 -3.375 19.53125 -4.21875 Z M 19.53125 -0.609375 "/></g></g></g><g fill="#3dcfb6" fill-opacity="1"><g transform="translate(329.908522, 308.342444)"><g><path d="M 1.734375 0 L 1.734375 -21.15625 L 6.609375 -21.15625 L 6.609375 -12.453125 L 13.734375 -12.453125 L 13.734375 -21.15625 L 18.625 -21.15625 L 18.625 0 L 13.734375 0 L 13.734375 -9.40625 L 6.609375 -9.40625 L 6.609375 0 Z M 1.734375 0 "/></g></g></g><g fill="#3dcfb6" fill-opacity="1"><g transform="translate(350.254849, 308.342444)"><g><path d="M 7.734375 0 L 7.734375 -17.90625 L 0.40625 -17.90625 L 0.40625 -21.15625 L 19.9375 -21.15625 L 19.9375 -17.90625 L 12.625 -17.90625 L 12.625 0 Z M 7.734375 0 "/></g></g></g><g fill="#1b554b" fill-opacity="0.4"><g transform="translate(30.315025, 214.183043)"><g><path d="M 10.421875 -53.75 L 71.84375 -81.984375 L 71.84375 -65.953125 L 32.078125 -48.40625 C 30.796875 -47.851562 29.5625 -47.4375 28.375 -47.15625 C 27.1875 -46.882812 26.09375 -46.660156 25.09375 -46.484375 C 23.90625 -46.296875 22.757812 -46.15625 21.65625 -46.0625 L 21.65625 -44.828125 C 22.757812 -44.742188 23.90625 -44.609375 25.09375 -44.421875 C 26.09375 -44.242188 27.1875 -43.992188 28.375 -43.671875 C 29.5625 -43.347656 30.796875 -42.910156 32.078125 -42.359375 L 71.84375 -24.546875 L 71.84375 -8.5 L 10.421875 -36.609375 Z M 10.421875 -53.75 "/></g></g></g><g fill="#3dcfb6" fill-opacity="1"><g transform="translate(29.103101, 212.97112)"><g><path d="M 10.421875 -53.75 L 71.84375 -81.984375 L 71.84375 -65.953125 L 32.078125 -48.40625 C 30.796875 -47.851562 29.5625 -47.4375 28.375 -47.15625 C 27.1875 -46.882812 26.09375 -46.660156 25.09375 -46.484375 C 23.90625 -46.296875 22.757812 -46.15625 21.65625 -46.0625 L 21.65625 -44.828125 C 22.757812 -44.742188 23.90625 -44.609375 25.09375 -44.421875 C 26.09375 -44.242188 27.1875 -43.992188 28.375 -43.671875 C 29.5625 -43.347656 30.796875 -42.910156 32.078125 -42.359375 L 71.84375 -24.546875 L 71.84375 -8.5 L 10.421875 -36.609375 Z M 10.421875 -53.75 "/></g></g></g><g fill="#1b554b" fill-opacity="0.4"><g transform="translate(275.761186, 214.183043)"><g><path d="M 10.421875 -24.40625 L 50.1875 -42.09375 C 51.457031 -42.644531 52.707031 -43.078125 53.9375 -43.390625 C 55.175781 -43.710938 56.300781 -43.96875 57.3125 -44.15625 C 58.40625 -44.238281 59.503906 -44.328125 60.609375 -44.421875 L 60.609375 -45.515625 C 59.503906 -45.609375 58.40625 -45.789062 57.3125 -46.0625 C 56.300781 -46.25 55.175781 -46.5 53.9375 -46.8125 C 52.707031 -47.132812 51.457031 -47.570312 50.1875 -48.125 L 10.421875 -65.8125 L 10.421875 -81.859375 L 71.84375 -53.75 L 71.84375 -36.609375 L 10.421875 -8.5 Z M 10.421875 -24.40625 "/></g></g></g><g fill="#3dcfb6" fill-opacity="1"><g transform="translate(274.549263, 212.97112)"><g><path d="M 10.421875 -24.40625 L 50.1875 -42.09375 C 51.457031 -42.644531 52.707031 -43.078125 53.9375 -43.390625 C 55.175781 -43.710938 56.300781 -43.96875 57.3125 -44.15625 C 58.40625 -44.238281 59.503906 -44.328125 60.609375 -44.421875 L 60.609375 -45.515625 C 59.503906 -45.609375 58.40625 -45.789062 57.3125 -46.0625 C 56.300781 -46.25 55.175781 -46.5 53.9375 -46.8125 C 52.707031 -47.132812 51.457031 -47.570312 50.1875 -48.125 L 10.421875 -65.8125 L 10.421875 -81.859375 L 71.84375 -53.75 L 71.84375 -36.609375 L 10.421875 -8.5 Z M 10.421875 -24.40625 "/></g></g></g><g clip-path="url(#d26fee9fd7)"><path fill="#1b554b" d="M 261.988281 243.445312 L 250.351562 243.445312 L 250.351562 196.261719 C 250.351562 187.53125 243.265625 180.574219 234.664062 180.574219 L 205.1875 180.574219 L 205.1875 158.058594 C 201.265625 159.324219 196.964844 160.082031 192.539062 160.082031 C 187.730469 160.082031 183.175781 159.195312 179.003906 157.679688 L 179.003906 180.574219 L 149.527344 180.574219 C 140.925781 180.574219 133.839844 187.53125 133.839844 196.261719 L 133.839844 243.445312 L 122.203125 243.445312 C 120.8125 243.445312 119.671875 242.308594 119.671875 240.917969 L 119.671875 204.230469 C 119.671875 182.472656 137.257812 164.886719 158.890625 164.886719 L 173.941406 164.886719 L 173.941406 155.402344 C 161.796875 148.695312 153.703125 135.917969 153.703125 121.246094 L 153.703125 102.394531 C 153.703125 102.269531 153.703125 102.144531 153.703125 102.144531 C 154.589844 89.621094 146.367188 83.675781 146.113281 83.421875 C 145.480469 83.042969 144.972656 82.28125 144.972656 81.398438 C 144.972656 80.636719 145.351562 79.878906 145.984375 79.375 C 166.101562 63.558594 183.050781 55.589844 196.332031 55.589844 C 206.582031 55.589844 211.765625 60.523438 213.789062 63.054688 C 214.296875 63.054688 214.804688 63.054688 215.308594 63.054688 C 233.019531 63.054688 238.585938 80.890625 238.964844 90.378906 C 239.722656 99.738281 237.953125 106.824219 233.90625 111.25 C 233.144531 112.136719 232.261719 112.769531 231.5 113.402344 L 231.5 121.246094 C 231.5 136.300781 222.898438 149.457031 210.25 155.90625 L 210.25 164.886719 L 225.175781 164.886719 C 246.808594 164.886719 264.519531 182.472656 264.519531 204.230469 L 264.519531 240.917969 C 264.519531 242.308594 263.378906 243.445312 261.988281 243.445312 Z M 192.539062 145.660156 C 186.214844 145.660156 181.152344 140.601562 181.152344 134.273438 C 181.152344 132.882812 182.292969 131.746094 183.683594 131.746094 C 185.074219 131.746094 186.214844 132.882812 186.214844 134.273438 C 186.214844 137.816406 188.996094 140.601562 192.539062 140.601562 C 196.082031 140.601562 198.863281 137.816406 198.863281 134.273438 C 198.863281 132.882812 200.003906 131.746094 201.394531 131.746094 C 202.785156 131.746094 203.921875 132.882812 203.921875 134.273438 C 203.921875 140.601562 198.863281 145.660156 192.539062 145.660156 Z M 158.761719 104.671875 L 158.761719 121.246094 C 158.761719 134.402344 166.226562 145.785156 177.230469 151.351562 C 177.484375 151.480469 177.609375 151.605469 177.738281 151.730469 C 182.292969 153.882812 187.226562 155.019531 192.539062 155.019531 C 197.472656 155.019531 202.152344 154.007812 206.453125 152.113281 C 206.582031 151.984375 206.707031 151.859375 206.960938 151.859375 C 218.472656 146.417969 226.441406 134.78125 226.441406 121.246094 L 226.441406 115.550781 C 225.300781 115.679688 224.289062 115.804688 223.910156 115.804688 C 223.65625 115.804688 223.40625 115.804688 223.40625 115.804688 C 222.773438 115.679688 222.140625 115.425781 221.632812 114.792969 C 221.253906 114.289062 221 113.527344 221.128906 112.894531 C 223.027344 98.347656 217.710938 92.78125 214.675781 90.757812 C 210.753906 98.476562 203.039062 103.535156 194.6875 103.535156 C 192.539062 103.535156 190.386719 103.15625 188.238281 102.523438 C 185.453125 101.511719 182.164062 101.132812 178.625 101.132812 C 171.664062 101.132812 164.835938 102.902344 160.785156 104.039062 C 159.902344 104.292969 159.269531 104.546875 158.761719 104.671875 Z M 158.761719 104.671875 " fill-opacity="1" fill-rule="evenodd"/></g><path fill="#3dcfb6" d="M 138.015625 249.140625 L 138.015625 196.261719 C 138.015625 189.9375 143.203125 184.75 149.527344 184.75 L 234.664062 184.75 C 240.988281 184.75 246.050781 189.9375 246.050781 196.261719 L 246.050781 249.140625 Z M 192.03125 235.222656 C 181.914062 235.222656 173.691406 227 173.691406 217.007812 C 173.691406 206.886719 181.914062 198.664062 192.03125 198.664062 C 202.152344 198.664062 210.375 206.886719 210.375 217.007812 C 210.375 227 202.152344 235.222656 192.03125 235.222656 Z M 192.03125 203.722656 C 184.695312 203.722656 178.75 209.671875 178.75 217.007812 C 178.75 224.21875 184.695312 230.164062 192.03125 230.164062 C 199.371094 230.164062 205.316406 224.21875 205.316406 217.007812 C 205.316406 209.671875 199.371094 203.722656 192.03125 203.722656 Z M 192.03125 203.722656 " fill-opacity="1" fill-rule="evenodd"/><g clip-path="url(#83f14c0d12)"><path fill="#3dcfb6" d="M 252.5 271.402344 L 131.691406 271.402344 C 130.300781 271.402344 129.160156 270.265625 129.160156 268.875 L 129.160156 255.84375 C 129.160156 254.453125 130.300781 253.3125 131.691406 253.3125 L 252.5 253.3125 C 253.890625 253.3125 255.03125 254.453125 255.03125 255.84375 L 255.03125 268.875 C 255.03125 270.265625 253.890625 271.402344 252.5 271.402344 Z M 252.5 271.402344 " fill-opacity="1" fill-rule="evenodd"/></g></svg>