<svg xmlns="http://www.w3.org/2000/svg" xmlns:xlink="http://www.w3.org/1999/xlink" width="500" zoomAndPan="magnify" viewBox="0 0 375 374.999991" height="500" preserveAspectRatio="xMidYMid meet" version="1.0"><defs><clipPath id="5cadefb4c2"><path d="M 4.316406 208.125 L 214 208.125 L 214 220.597656 L 4.316406 220.597656 Z M 4.316406 208.125 " clip-rule="nonzero"/></clipPath></defs><path stroke-linecap="butt" transform="matrix(0.75, 0, 0, 0.75, 0.247478, 171.759745)" fill="none" stroke-linejoin="miter" d="M 13.60753 26.278675 L 25.607531 26.278675 L 28.018989 33.997426 L 32.029406 33.997426 L 22.170031 3.716174 L 17.279405 3.716174 L 7.435655 33.997426 L 11.190863 33.997426 Z M 24.607531 23.112009 L 14.60753 23.112009 L 19.643989 6.924507 Z M 39.539824 3.716174 L 39.539824 33.997426 L 56.748158 33.997426 L 57.185658 30.596384 L 43.367949 30.596384 L 43.367949 3.716174 Z M 69.977326 17.0443 L 69.977326 6.841174 L 82.914826 6.841174 L 83.357535 3.716174 L 66.154409 3.716174 L 66.154409 33.997426 L 83.742951 33.997426 L 83.742951 30.940134 L 69.977326 30.940134 L 69.977326 20.190133 L 81.201285 20.190133 L 81.201285 17.0443 Z M 94.232535 3.716174 L 89.862744 3.716174 L 98.550244 17.8568 L 89.045035 33.997426 L 93.159619 33.997426 L 100.795036 20.315133 L 108.336703 33.997426 L 112.716912 33.997426 L 103.081494 17.653675 L 111.675245 3.716174 L 107.539828 3.716174 L 100.883578 15.346383 Z M 121.810662 26.278675 L 133.805455 26.278675 L 136.222122 33.997426 L 140.22733 33.997426 L 130.373163 3.716174 L 125.482538 3.716174 L 115.633579 33.997426 L 119.393995 33.997426 Z M 132.810663 23.112009 L 122.810662 23.112009 L 127.847121 6.924507 Z M 148.498164 7.367216 L 159.159623 33.997426 L 164.508582 33.997426 L 164.508582 3.716174 L 160.966915 3.716174 L 160.966915 18.867217 C 160.966915 20.674508 161.003373 22.377634 161.071082 23.992217 C 161.143998 25.601592 161.222123 26.976592 161.310665 28.117217 C 161.404415 29.252634 161.456498 30.033884 161.472123 30.455759 L 150.623164 3.716174 L 145.456497 3.716174 L 145.456497 33.997426 L 149.003372 33.997426 L 149.003372 18.82555 C 149.003372 17.648467 148.977331 16.460966 148.925247 15.257841 C 148.883581 14.054716 148.831497 12.9193 148.763789 11.846383 C 148.701289 10.763049 148.643997 9.830758 148.591914 9.049508 C 148.545039 8.263049 148.508581 7.700549 148.498164 7.367216 Z M 191.904417 26.471384 C 192.727334 24.466175 193.138792 21.882842 193.138792 18.716175 C 193.138792 15.559925 192.73775 13.002633 191.935667 11.039091 C 191.138792 9.070341 190.065875 7.554716 188.701292 6.497424 C 187.352333 5.429716 185.8315 4.700549 184.149208 4.304716 C 182.472125 3.908882 180.748166 3.716174 178.972124 3.716174 L 172.508582 3.716174 L 172.508582 33.997426 L 179.456499 33.997426 C 181.024208 33.997426 182.61275 33.794301 184.211708 33.377634 C 185.826292 32.955759 187.305458 32.200551 188.649208 31.112009 C 190.003375 30.013051 191.086709 28.471384 191.904417 26.471384 Z M 188.232542 12.382841 C 188.789833 13.960966 189.065875 16.07555 189.065875 18.716175 C 189.065875 21.221383 188.80025 23.273467 188.263792 24.862009 C 187.732542 26.45055 187.019 27.690134 186.123167 28.575551 C 185.232541 29.466176 184.242958 30.080759 183.159625 30.424509 C 182.086708 30.768259 181.008583 30.940134 179.920041 30.940134 L 176.310666 30.940134 L 176.310666 6.841174 L 179.873166 6.841174 C 180.920041 6.841174 181.982541 6.971382 183.055458 7.237008 C 184.133583 7.492216 185.128375 8.018258 186.039833 8.815133 C 186.951292 9.612008 187.680458 10.799508 188.232542 12.382841 Z M 205.227334 17.0443 L 205.227334 6.841174 L 218.170044 6.841174 L 218.612752 3.716174 L 201.404418 3.716174 L 201.404418 33.997426 L 218.998169 33.997426 L 218.998169 30.940134 L 205.227334 30.940134 L 205.227334 20.190133 L 216.451294 20.190133 L 216.451294 17.0443 Z M 245.597129 16.158883 C 246.253379 15.028675 246.586712 13.710966 246.586712 12.20055 C 246.586712 9.398466 245.617962 7.289091 243.68567 5.862007 C 241.758587 4.429716 238.925253 3.716174 235.190878 3.716174 L 227.404419 3.716174 L 227.404419 33.997426 L 231.227336 33.997426 L 231.227336 21.002633 L 235.321086 21.002633 L 243.586712 33.997426 L 248.164837 33.997426 L 239.18567 20.565133 C 240.581503 20.226592 241.836712 19.695342 242.946087 18.966175 C 244.06067 18.226592 244.946087 17.2943 245.597129 16.158883 Z M 240.815878 8.018258 C 241.93567 8.856799 242.492962 10.252633 242.492962 12.20055 C 242.492962 14.2943 241.894004 15.789091 240.690878 16.674508 C 239.487753 17.565133 237.800253 18.007842 235.628378 18.007842 L 231.227336 18.007842 L 231.227336 6.752632 L 235.628378 6.752632 C 237.972128 6.752632 239.701295 7.174508 240.815878 8.018258 Z M 240.815878 8.018258 " stroke="#d9d9d9" stroke-width="1.649824" stroke-opacity="1" stroke-miterlimit="4"/><path stroke-linecap="butt" transform="matrix(0.75, 0, 0, 0.75, 0.247478, 171.759745)" fill="none" stroke-linejoin="miter" d="M 285.716923 27.429717 L 294.644007 27.429717 L 296.253382 33.997426 L 303.977341 33.997426 L 294.644007 3.507841 L 285.888798 3.507841 L 276.565881 33.997426 L 284.107548 33.997426 Z M 293.461715 22.184925 L 286.857548 22.184925 L 290.16484 8.705758 Z M 308.190883 3.507841 L 308.190883 33.997426 L 327.878384 33.997426 L 328.628384 28.309926 L 315.409633 28.309926 L 315.409633 3.507841 Z M 355.253386 29.445342 C 355.930469 28.283884 356.274219 26.830759 356.274219 25.07555 C 356.274219 23.445342 355.920053 22.127633 355.222136 21.132842 C 354.524219 20.13805 353.644011 19.38805 352.576302 18.877633 C 351.519011 18.372425 350.446094 18.028675 349.367969 17.8568 C 350.362761 17.6068 351.284636 17.20055 352.138802 16.632841 C 352.987761 16.070341 353.670053 15.341175 354.175261 14.455758 C 354.690886 13.565133 354.951303 12.51305 354.951303 11.294299 C 354.951303 9.820341 354.638803 8.580758 354.019011 7.580758 C 353.394011 6.570341 352.539844 5.768257 351.451302 5.174507 C 350.367969 4.580757 349.128386 4.153674 347.722135 3.898466 C 346.326302 3.638049 344.841927 3.507841 343.263802 3.507841 L 333.61276 3.507841 L 333.61276 33.997426 L 343.727344 33.997426 C 345.388802 33.997426 346.972135 33.862009 348.477344 33.580759 C 349.977344 33.299509 351.315886 32.830759 352.482552 32.174509 C 353.654428 31.513051 354.576303 30.606801 355.253386 29.445342 Z M 346.55026 9.429716 C 347.310677 9.955758 347.690885 10.825549 347.690885 12.028674 C 347.690885 13.315133 347.341927 14.247425 346.649219 14.820341 C 345.95651 15.393258 344.826302 15.679716 343.263802 15.679716 L 340.826302 15.679716 L 340.826302 8.622424 L 343.05026 8.622424 C 344.633594 8.622424 345.80026 8.888049 346.55026 9.429716 Z M 348.206511 22.242217 C 348.628386 22.862009 348.841927 23.710967 348.841927 24.783884 C 348.841927 25.622425 348.696094 26.304717 348.409636 26.82555 C 348.123177 27.341176 347.727344 27.737009 347.216927 28.018259 C 346.711719 28.299509 346.138802 28.492217 345.498177 28.596384 C 344.86276 28.700551 344.190885 28.747426 343.492969 28.747426 L 340.826302 28.747426 L 340.826302 20.523467 L 343.805469 20.523467 C 344.810677 20.523467 345.690885 20.653675 346.446094 20.9193 C 347.20651 21.174508 347.789844 21.617217 348.206511 22.242217 Z M 382.086721 16.580758 C 382.633596 15.492216 382.904429 14.226591 382.904429 12.778675 C 382.904429 9.622424 381.847138 7.289091 379.737763 5.773466 C 377.623179 4.263049 374.492971 3.507841 370.33672 3.507841 L 360.758595 3.507841 L 360.758595 33.997426 L 367.966928 33.997426 L 367.966928 22.346384 L 370.013804 22.346384 L 376.612762 33.997426 L 384.774221 33.997426 L 376.795054 21.132842 C 377.930471 20.674508 378.961721 20.07555 379.883596 19.330758 C 380.810679 18.585967 381.545054 17.6693 382.086721 16.580758 Z M 374.180471 9.575549 C 375.039846 10.242216 375.472137 11.309924 375.472137 12.778675 C 375.472137 14.38805 375.060679 15.565133 374.237762 16.299508 C 373.414845 17.028675 372.216929 17.398467 370.64922 17.398467 L 367.966928 17.398467 L 367.966928 8.580758 L 370.36797 8.580758 C 372.05547 8.580758 373.326304 8.914091 374.180471 9.575549 Z M 396.56068 15.987008 L 396.56068 8.664091 L 408.545056 8.664091 L 409.269015 3.507841 L 389.347138 3.507841 L 389.347138 33.997426 L 409.289848 33.997426 L 409.289848 28.835967 L 396.56068 28.835967 L 396.56068 21.049508 L 407.117973 21.049508 L 407.117973 15.987008 Z M 433.633599 3.617216 C 432.102349 3.039091 430.237766 2.747424 428.050266 2.747424 C 425.367974 2.747424 422.951307 3.367216 420.789849 4.606799 C 418.633598 5.846382 416.930473 7.653674 415.675265 10.028674 C 414.425265 12.398466 413.795056 15.289091 413.795056 18.695342 C 413.795056 22.184925 414.399223 25.117217 415.612765 27.502634 C 416.821098 29.888051 418.492973 31.690134 420.62839 32.914093 C 422.758599 34.138051 425.206516 34.752634 427.961724 34.752634 C 430.326308 34.752634 432.341933 34.346384 434.008599 33.539093 C 435.685683 32.726593 437.091933 31.763051 438.237766 30.638051 L 434.951308 26.460967 C 434.107558 27.132842 433.180474 27.757842 432.159641 28.330759 C 431.149224 28.893259 429.883599 29.179717 428.357557 29.179717 C 426.982557 29.179717 425.758599 28.815134 424.685682 28.091176 C 423.617974 27.372426 422.779432 26.237009 422.175265 24.690134 C 421.56589 23.143259 421.258599 21.143258 421.258599 18.695342 C 421.258599 16.195341 421.576307 14.1693 422.206515 12.6068 C 422.836724 11.044299 423.675265 9.903674 424.727349 9.179716 C 425.789849 8.450549 426.956516 8.085966 428.232557 8.085966 C 429.420058 8.085966 430.519016 8.289091 431.529433 8.695341 C 432.534641 9.096383 433.461724 9.643258 434.300266 10.330758 L 437.841933 6.065132 C 436.565891 5.013049 435.16485 4.195341 433.633599 3.617216 Z M 456.248184 21.153675 L 456.248184 33.997426 L 463.466935 33.997426 L 463.466935 3.507841 L 456.248184 3.507841 L 456.248184 15.216175 L 448.857559 15.216175 L 448.857559 3.507841 L 441.644017 3.507841 L 441.644017 33.997426 L 448.857559 33.997426 L 448.857559 21.153675 Z M 483.170061 33.997426 L 483.170061 9.039091 L 491.321103 9.039091 L 492.071103 3.507841 L 467.394018 3.507841 L 467.394018 9.039091 L 475.951311 9.039091 L 475.951311 33.997426 Z M 483.170061 33.997426 " stroke="#d9d9d9" stroke-width="1.649824" stroke-opacity="1" stroke-miterlimit="4"/><path stroke-linecap="butt" transform="matrix(0.75, 0, 0, 0.75, 213.534482, 204.23631)" fill="none" stroke-linejoin="miter" d="M 9.339441 11.153671 L 9.339441 7.487004 L 14.813399 7.487004 L 15.151941 5.143254 L 6.047774 5.143254 L 6.047774 18.997422 L 9.339441 18.997422 L 9.339441 13.50263 L 14.193608 13.50263 L 14.193608 11.153671 Z M 26.115483 11.085963 C 26.360275 10.591171 26.485275 10.013046 26.485275 9.356796 C 26.485275 7.919296 26.006108 6.862004 25.047775 6.174504 C 24.084233 5.487004 22.662358 5.143254 20.776941 5.143254 L 16.422774 5.143254 L 16.422774 18.997422 L 19.698816 18.997422 L 19.698816 13.705755 L 20.631108 13.705755 L 23.6259 18.997422 L 27.334233 18.997422 L 23.709233 13.153671 C 24.224858 12.945338 24.693608 12.669296 25.115483 12.335963 C 25.53215 11.997421 25.865483 11.580754 26.115483 11.085963 Z M 22.521733 7.903671 C 22.912358 8.205754 23.110275 8.690129 23.110275 9.356796 C 23.110275 10.085963 22.922775 10.622421 22.547775 10.955754 C 22.172775 11.289088 21.631108 11.455754 20.917566 11.455754 L 19.698816 11.455754 L 19.698816 7.450546 L 20.792566 7.450546 C 21.552983 7.450546 22.131108 7.601587 22.521733 7.903671 Z M 37.542567 15.898463 C 37.964443 14.804713 38.172776 13.528671 38.172776 12.065129 C 38.172776 10.565129 37.964443 9.273463 37.542567 8.184921 C 37.125901 7.096379 36.500901 6.263046 35.677984 5.674504 C 34.860276 5.091171 33.844651 4.799504 32.631109 4.799504 C 31.422775 4.799504 30.40715 5.101587 29.579025 5.700546 C 28.7509 6.304712 28.131109 7.148462 27.709234 8.231796 C 27.292567 9.320338 27.079025 10.596379 27.079025 12.065129 C 27.079025 13.559921 27.292567 14.851588 27.709234 15.94013 C 28.131109 17.028671 28.7509 17.867213 29.579025 18.455755 C 30.40715 19.049505 31.422775 19.341172 32.631109 19.341172 C 33.844651 19.341172 34.860276 19.039088 35.677984 18.44013 C 36.500901 17.835963 37.125901 16.987005 37.542567 15.898463 Z M 34.302984 8.346379 C 34.646734 9.117213 34.818609 10.356796 34.818609 12.065129 C 34.818609 13.75263 34.651942 14.987005 34.323817 15.768255 C 33.995692 16.549505 33.427984 16.94013 32.631109 16.94013 C 31.860275 16.94013 31.302984 16.554713 30.954025 15.78388 C 30.610275 15.007838 30.4384 13.768255 30.4384 12.065129 C 30.4384 10.362004 30.610275 9.127629 30.948817 8.351587 C 31.287359 7.575546 31.849859 7.184921 32.631109 7.184921 C 33.407151 7.184921 33.964442 7.570337 34.302984 8.346379 Z M 41.329026 7.851587 L 44.980068 18.997422 L 48.959235 18.997422 L 48.959235 5.143254 L 46.167568 5.143254 L 46.167568 10.455754 C 46.167568 11.278671 46.19361 12.054713 46.245693 12.773463 C 46.302985 13.492213 46.365485 14.143255 46.438401 14.731796 C 46.516526 15.309921 46.594651 15.81513 46.672776 16.231796 L 43.13111 5.143254 L 39.042568 5.143254 L 39.042568 18.997422 L 41.829026 18.997422 L 41.829026 13.773463 C 41.829026 13.169296 41.813401 12.575546 41.782151 11.997421 C 41.745693 11.414088 41.704026 10.867213 41.646734 10.351588 C 41.594651 9.835963 41.542568 9.362004 41.480068 8.940129 C 41.427984 8.518254 41.375901 8.153671 41.329026 7.851587 Z M 56.990485 18.997422 L 56.990485 7.658879 L 60.693611 7.658879 L 61.037361 5.143254 L 49.823818 5.143254 L 49.823818 7.658879 L 53.714444 7.658879 L 53.714444 18.997422 Z M 65.881111 10.815129 L 65.881111 7.487004 L 71.329028 7.487004 L 71.657153 5.143254 L 62.605069 5.143254 L 62.605069 18.997422 L 71.66757 18.997422 L 71.66757 16.653671 L 65.881111 16.653671 L 65.881111 13.112004 L 70.677986 13.112004 L 70.677986 10.815129 Z M 75.443612 7.851587 L 79.094654 18.997422 L 83.068612 18.997422 L 83.068612 5.143254 L 80.282154 5.143254 L 80.282154 10.455754 C 80.282154 11.278671 80.308195 12.054713 80.35507 12.773463 C 80.412362 13.492213 80.48007 14.143255 80.552987 14.731796 C 80.631112 15.309921 80.709237 15.81513 80.782154 16.231796 L 77.245695 5.143254 L 73.151945 5.143254 L 73.151945 18.997422 L 75.938403 18.997422 L 75.938403 13.773463 C 75.938403 13.169296 75.922778 12.575546 75.891528 11.997421 C 75.860278 11.414088 75.813403 10.867213 75.76132 10.351588 C 75.709237 9.835963 75.651945 9.362004 75.594653 8.940129 C 75.537362 8.518254 75.490487 8.153671 75.443612 7.851587 Z M 94.412363 15.487005 C 94.782155 14.570338 94.969655 13.408879 94.969655 12.002629 C 94.969655 10.570338 94.776946 9.408879 94.386321 8.513046 C 94.006113 7.612004 93.48528 6.919296 92.829029 6.434921 C 92.167571 5.940129 91.427988 5.606796 90.594654 5.424504 C 89.766529 5.237004 88.907154 5.143254 88.021737 5.143254 L 84.526946 5.143254 L 84.526946 18.997422 L 88.261321 18.997422 C 89.120696 18.997422 89.954029 18.898463 90.756113 18.69013 C 91.558196 18.481796 92.276946 18.12763 92.907154 17.617213 C 93.542571 17.106796 94.042571 16.398463 94.412363 15.487005 Z M 91.339446 9.726588 C 91.495696 10.315129 91.573821 11.070338 91.573821 12.002629 C 91.573821 12.914088 91.500904 13.674505 91.355071 14.273463 C 91.204029 14.872421 90.995696 15.34638 90.724863 15.69013 C 90.448821 16.03388 90.125904 16.273463 89.745696 16.419296 C 89.370696 16.559921 88.954029 16.632838 88.500904 16.632838 L 87.802987 16.632838 L 87.802987 7.528671 L 88.500904 7.528671 C 88.933196 7.528671 89.339446 7.585962 89.714446 7.705754 C 90.089446 7.825546 90.412363 8.044296 90.688404 8.367212 C 90.964446 8.684921 91.183196 9.138046 91.339446 9.726588 Z M 117.151948 15.487005 C 117.526948 14.570338 117.709239 13.408879 117.709239 12.002629 C 117.709239 10.570338 117.516531 9.408879 117.131114 8.513046 C 116.745698 7.612004 116.224864 6.919296 115.568614 6.434921 C 114.912364 5.940129 114.167573 5.606796 113.339447 5.424504 C 112.506114 5.237004 111.651947 5.143254 110.766531 5.143254 L 107.26653 5.143254 L 107.26653 18.997422 L 111.006114 18.997422 C 111.865489 18.997422 112.693614 18.898463 113.500906 18.69013 C 114.302989 18.481796 115.021739 18.12763 115.651948 17.617213 C 116.287364 17.106796 116.787364 16.398463 117.151948 15.487005 Z M 114.079031 9.726588 C 114.235281 10.315129 114.313406 11.070338 114.313406 12.002629 C 114.313406 12.914088 114.240489 13.674505 114.094656 14.273463 C 113.948823 14.872421 113.735281 15.34638 113.464447 15.69013 C 113.193614 16.03388 112.865489 16.273463 112.490489 16.419296 C 112.110281 16.559921 111.693614 16.632838 111.245697 16.632838 L 110.547781 16.632838 L 110.547781 7.528671 L 111.245697 7.528671 C 111.677989 7.528671 112.079031 7.585962 112.454031 7.705754 C 112.829031 7.825546 113.151947 8.044296 113.427989 8.367212 C 113.709239 8.684921 113.922781 9.138046 114.079031 9.726588 Z M 122.735281 10.815129 L 122.735281 7.487004 L 128.183198 7.487004 L 128.511323 5.143254 L 119.45924 5.143254 L 119.45924 18.997422 L 128.52174 18.997422 L 128.52174 16.653671 L 122.735281 16.653671 L 122.735281 13.112004 L 127.532157 13.112004 L 127.532157 10.815129 Z M 137.636324 5.143254 L 135.026949 16.44013 L 132.438407 5.143254 L 128.95924 5.143254 L 132.938407 18.997422 L 136.995699 18.997422 L 140.995699 5.143254 Z M 145.480075 10.815129 L 145.480075 7.487004 L 150.922783 7.487004 L 151.250908 5.143254 L 142.198824 5.143254 L 142.198824 18.997422 L 151.261325 18.997422 L 151.261325 16.653671 L 145.480075 16.653671 L 145.480075 13.112004 L 150.27695 13.112004 L 150.27695 10.815129 Z M 153.568617 5.143254 L 153.568617 18.997422 L 162.516534 18.997422 L 162.855076 16.414088 L 156.849867 16.414088 L 156.849867 5.143254 Z M 173.990493 15.898463 C 174.412368 14.804713 174.620701 13.528671 174.620701 12.065129 C 174.620701 10.565129 174.412368 9.273463 173.990493 8.184921 C 173.573826 7.096379 172.954035 6.263046 172.12591 5.674504 C 171.308201 5.091171 170.292576 4.799504 169.079034 4.799504 C 167.870701 4.799504 166.855076 5.101587 166.026951 5.700546 C 165.204034 6.304712 164.579034 7.148462 164.157159 8.231796 C 163.740492 9.320338 163.526951 10.596379 163.526951 12.065129 C 163.526951 13.559921 163.740492 14.851588 164.157159 15.94013 C 164.579034 17.028671 165.204034 17.867213 166.026951 18.455755 C 166.855076 19.049505 167.870701 19.341172 169.079034 19.341172 C 170.292576 19.341172 171.308201 19.039088 172.12591 18.44013 C 172.954035 17.835963 173.573826 16.987005 173.990493 15.898463 Z M 170.75091 8.346379 C 171.09466 9.117213 171.266535 10.356796 171.266535 12.065129 C 171.266535 13.75263 171.099868 14.987005 170.771743 15.768255 C 170.443618 16.549505 169.881118 16.94013 169.079034 16.94013 C 168.308201 16.94013 167.750909 16.554713 167.401951 15.78388 C 167.058201 15.007838 166.886326 13.768255 166.886326 12.065129 C 166.886326 10.362004 167.058201 9.127629 167.396743 8.351587 C 167.735284 7.575546 168.297784 7.184921 169.079034 7.184921 C 169.855076 7.184921 170.412368 7.570337 170.75091 8.346379 Z M 185.287369 12.315129 C 185.745702 11.612004 185.974869 10.726588 185.974869 9.653671 C 185.974869 8.143254 185.454036 7.013046 184.422785 6.268254 C 183.391535 5.518254 181.933202 5.143254 180.058202 5.143254 L 175.698827 5.143254 L 175.698827 18.997422 L 178.980077 18.997422 L 178.980077 14.393255 L 180.480077 14.393255 C 181.573827 14.393255 182.53216 14.22138 183.355077 13.882838 C 184.183202 13.53388 184.829035 13.013046 185.287369 12.315129 Z M 182.318619 8.445338 C 182.50091 8.768254 182.59466 9.174504 182.59466 9.664088 C 182.59466 10.205754 182.50091 10.648463 182.31341 10.997421 C 182.12591 11.341171 181.860285 11.596379 181.511327 11.763046 C 181.167577 11.929713 180.75091 12.013046 180.266535 12.013046 L 178.980077 12.013046 L 178.980077 7.487004 L 180.099869 7.487004 C 180.65716 7.487004 181.120702 7.565129 181.490494 7.721379 C 181.860285 7.877629 182.136327 8.117212 182.318619 8.445338 Z M 190.959244 10.815129 L 190.959244 7.487004 L 196.407161 7.487004 L 196.735286 5.143254 L 187.683202 5.143254 L 187.683202 18.997422 L 196.745703 18.997422 L 196.745703 16.653671 L 190.959244 16.653671 L 190.959244 13.112004 L 195.75612 13.112004 L 195.75612 10.815129 Z M 208.047787 11.085963 C 208.292579 10.591171 208.417579 10.013046 208.417579 9.356796 C 208.417579 7.919296 207.938412 6.862004 206.97487 6.174504 C 206.016537 5.487004 204.594662 5.143254 202.709245 5.143254 L 198.355078 5.143254 L 198.355078 18.997422 L 201.625912 18.997422 L 201.625912 13.705755 L 202.558203 13.705755 L 205.558204 18.997422 L 209.266537 18.997422 L 205.641537 13.153671 C 206.157162 12.945338 206.625912 12.669296 207.047787 12.335963 C 207.464454 11.997421 207.797787 11.580754 208.047787 11.085963 Z M 204.454037 7.903671 C 204.844662 8.205754 205.03737 8.690129 205.03737 9.356796 C 205.03737 10.085963 204.855078 10.622421 204.480078 10.955754 C 204.105078 11.289088 203.563412 11.455754 202.84987 11.455754 L 201.625912 11.455754 L 201.625912 7.450546 L 202.719662 7.450546 C 203.485287 7.450546 204.063412 7.601587 204.454037 7.903671 Z M 204.454037 7.903671 " stroke="#3dcfb6" stroke-width="0.749846" stroke-opacity="1" stroke-miterlimit="4"/><g clip-path="url(#5cadefb4c2)"><path fill="#3dcfb6" d="M 4.316406 208.125 L 213.996094 208.125 L 213.996094 220.597656 L 4.316406 220.597656 Z M 4.316406 208.125 " fill-opacity="1" fill-rule="nonzero"/></g></svg>