<svg xmlns="http://www.w3.org/2000/svg" xmlns:xlink="http://www.w3.org/1999/xlink" width="500" zoomAndPan="magnify" viewBox="0 0 375 374.999991" height="500" preserveAspectRatio="xMidYMid meet" version="1.0"><defs><g/><clipPath id="5c899a5694"><path d="M 130 64.386719 L 245 64.386719 L 245 212 L 130 212 Z M 130 64.386719 " clip-rule="nonzero"/></clipPath></defs><g fill="#ff6a00" fill-opacity="0.4"><g transform="translate(76.366961, 286.504522)"><g><path d="M 10.625 -11.953125 C 10.863281 -11.953125 11.03125 -11.898438 11.125 -11.796875 C 11.226562 -11.703125 11.28125 -11.535156 11.28125 -11.296875 L 11.28125 -8.265625 C 11.28125 -8.035156 11.179688 -7.867188 10.984375 -7.765625 C 10.785156 -7.671875 10.472656 -7.625 10.046875 -7.625 C 9.628906 -7.625 9.34375 -7.671875 9.1875 -7.765625 C 9.039062 -7.859375 8.96875 -8.023438 8.96875 -8.265625 L 8.96875 -9.78125 L 5.03125 -9.78125 L 5.03125 -6.71875 L 8.09375 -6.71875 C 8.332031 -6.71875 8.5 -6.640625 8.59375 -6.484375 C 8.6875 -6.328125 8.734375 -6.039062 8.734375 -5.625 C 8.734375 -5.207031 8.6875 -4.921875 8.59375 -4.765625 C 8.5 -4.617188 8.332031 -4.546875 8.09375 -4.546875 L 5.03125 -4.546875 L 5.03125 -2.0625 L 7.21875 -2.0625 C 7.382812 -2.0625 7.507812 -2.03125 7.59375 -1.96875 C 7.675781 -1.914062 7.738281 -1.816406 7.78125 -1.671875 C 7.832031 -1.523438 7.859375 -1.3125 7.859375 -1.03125 C 7.859375 -0.75 7.832031 -0.53125 7.78125 -0.375 C 7.738281 -0.226562 7.675781 -0.128906 7.59375 -0.078125 C 7.507812 -0.0234375 7.382812 0 7.21875 0 L 1.234375 0 C 1.078125 0 0.953125 -0.0234375 0.859375 -0.078125 C 0.773438 -0.128906 0.710938 -0.226562 0.671875 -0.375 C 0.628906 -0.53125 0.609375 -0.75 0.609375 -1.03125 C 0.609375 -1.3125 0.628906 -1.523438 0.671875 -1.671875 C 0.710938 -1.816406 0.773438 -1.914062 0.859375 -1.96875 C 0.953125 -2.03125 1.078125 -2.0625 1.234375 -2.0625 L 2.515625 -2.0625 L 2.515625 -9.890625 L 1.234375 -9.890625 C 1.078125 -9.890625 0.953125 -9.914062 0.859375 -9.96875 C 0.773438 -10.019531 0.710938 -10.117188 0.671875 -10.265625 C 0.628906 -10.421875 0.609375 -10.640625 0.609375 -10.921875 C 0.609375 -11.203125 0.628906 -11.414062 0.671875 -11.5625 C 0.710938 -11.707031 0.773438 -11.804688 0.859375 -11.859375 C 0.953125 -11.921875 1.078125 -11.953125 1.234375 -11.953125 Z M 10.625 -11.953125 "/></g></g></g><g fill="#ff6a00" fill-opacity="0.4"><g transform="translate(88.733904, 286.504522)"><g><path d="M 9.328125 -9.53125 C 9.898438 -9.53125 10.441406 -9.34375 10.953125 -8.96875 C 11.242188 -8.75 11.390625 -8.460938 11.390625 -8.109375 C 11.390625 -7.890625 11.328125 -7.628906 11.203125 -7.328125 C 11.085938 -7.023438 10.953125 -6.796875 10.796875 -6.640625 C 10.648438 -6.492188 10.492188 -6.421875 10.328125 -6.421875 C 10.234375 -6.421875 10.128906 -6.445312 10.015625 -6.5 C 9.640625 -6.707031 9.253906 -6.8125 8.859375 -6.8125 C 8.335938 -6.8125 7.851562 -6.644531 7.40625 -6.3125 C 6.957031 -5.988281 6.59375 -5.535156 6.3125 -4.953125 C 6.039062 -4.378906 5.90625 -3.734375 5.90625 -3.015625 L 5.90625 -2.0625 L 8.796875 -2.0625 C 8.960938 -2.0625 9.085938 -2.03125 9.171875 -1.96875 C 9.265625 -1.914062 9.332031 -1.816406 9.375 -1.671875 C 9.414062 -1.523438 9.4375 -1.3125 9.4375 -1.03125 C 9.4375 -0.75 9.414062 -0.53125 9.375 -0.375 C 9.332031 -0.226562 9.265625 -0.128906 9.171875 -0.078125 C 9.085938 -0.0234375 8.960938 0 8.796875 0 L 1.90625 0 C 1.75 0 1.625 -0.0234375 1.53125 -0.078125 C 1.445312 -0.128906 1.382812 -0.226562 1.34375 -0.375 C 1.300781 -0.53125 1.28125 -0.75 1.28125 -1.03125 C 1.28125 -1.3125 1.300781 -1.523438 1.34375 -1.671875 C 1.382812 -1.816406 1.445312 -1.914062 1.53125 -1.96875 C 1.625 -2.03125 1.75 -2.0625 1.90625 -2.0625 L 3.390625 -2.0625 L 3.390625 -7.234375 L 2.21875 -7.234375 C 2.050781 -7.234375 1.925781 -7.257812 1.84375 -7.3125 C 1.757812 -7.375 1.691406 -7.476562 1.640625 -7.625 C 1.597656 -7.769531 1.578125 -7.984375 1.578125 -8.265625 C 1.578125 -8.546875 1.597656 -8.757812 1.640625 -8.90625 C 1.691406 -9.0625 1.757812 -9.164062 1.84375 -9.21875 C 1.925781 -9.28125 2.050781 -9.3125 2.21875 -9.3125 L 4.96875 -9.3125 C 5.195312 -9.3125 5.359375 -9.257812 5.453125 -9.15625 C 5.554688 -9.0625 5.609375 -8.898438 5.609375 -8.671875 L 5.609375 -6.484375 C 6.109375 -7.460938 6.6875 -8.210938 7.34375 -8.734375 C 8 -9.265625 8.660156 -9.53125 9.328125 -9.53125 Z M 9.328125 -9.53125 "/></g></g></g><g fill="#ff6a00" fill-opacity="0.4"><g transform="translate(101.100846, 286.504522)"><g><path d="M 6.1875 -9.53125 C 7.207031 -9.53125 8.097656 -9.320312 8.859375 -8.90625 C 9.628906 -8.488281 10.21875 -7.910156 10.625 -7.171875 C 11.039062 -6.429688 11.25 -5.59375 11.25 -4.65625 C 11.25 -3.71875 11.039062 -2.878906 10.625 -2.140625 C 10.21875 -1.398438 9.628906 -0.820312 8.859375 -0.40625 C 8.097656 0.0078125 7.207031 0.21875 6.1875 0.21875 C 5.164062 0.21875 4.269531 0.0078125 3.5 -0.40625 C 2.738281 -0.820312 2.148438 -1.398438 1.734375 -2.140625 C 1.328125 -2.878906 1.125 -3.71875 1.125 -4.65625 C 1.125 -5.59375 1.328125 -6.429688 1.734375 -7.171875 C 2.148438 -7.910156 2.738281 -8.488281 3.5 -8.90625 C 4.269531 -9.320312 5.164062 -9.53125 6.1875 -9.53125 Z M 6.1875 -7.234375 C 5.695312 -7.234375 5.273438 -7.128906 4.921875 -6.921875 C 4.566406 -6.710938 4.289062 -6.410156 4.09375 -6.015625 C 3.90625 -5.628906 3.8125 -5.175781 3.8125 -4.65625 C 3.8125 -4.132812 3.90625 -3.675781 4.09375 -3.28125 C 4.289062 -2.894531 4.566406 -2.59375 4.921875 -2.375 C 5.273438 -2.164062 5.695312 -2.0625 6.1875 -2.0625 C 6.664062 -2.0625 7.082031 -2.164062 7.4375 -2.375 C 7.789062 -2.59375 8.0625 -2.894531 8.25 -3.28125 C 8.445312 -3.675781 8.546875 -4.132812 8.546875 -4.65625 C 8.546875 -5.175781 8.445312 -5.628906 8.25 -6.015625 C 8.0625 -6.410156 7.789062 -6.710938 7.4375 -6.921875 C 7.082031 -7.128906 6.664062 -7.234375 6.1875 -7.234375 Z M 6.1875 -7.234375 "/></g></g></g><g fill="#ff6a00" fill-opacity="0.4"><g transform="translate(113.467789, 286.504522)"><g><path d="M 7.625 -9.53125 C 8.238281 -9.53125 8.773438 -9.394531 9.234375 -9.125 C 9.691406 -8.851562 10.046875 -8.46875 10.296875 -7.96875 C 10.546875 -7.476562 10.671875 -6.90625 10.671875 -6.25 L 10.671875 -2.0625 L 11.4375 -2.0625 C 11.601562 -2.0625 11.726562 -2.03125 11.8125 -1.96875 C 11.894531 -1.914062 11.957031 -1.816406 12 -1.671875 C 12.050781 -1.523438 12.078125 -1.3125 12.078125 -1.03125 C 12.078125 -0.75 12.050781 -0.53125 12 -0.375 C 11.957031 -0.226562 11.894531 -0.128906 11.8125 -0.078125 C 11.726562 -0.0234375 11.601562 0 11.4375 0 L 7.671875 0 C 7.515625 0 7.390625 -0.0234375 7.296875 -0.078125 C 7.210938 -0.128906 7.148438 -0.226562 7.109375 -0.375 C 7.066406 -0.53125 7.046875 -0.75 7.046875 -1.03125 C 7.046875 -1.3125 7.066406 -1.523438 7.109375 -1.671875 C 7.148438 -1.816406 7.210938 -1.914062 7.296875 -1.96875 C 7.390625 -2.03125 7.515625 -2.0625 7.671875 -2.0625 L 8.140625 -2.0625 L 8.140625 -5.65625 C 8.140625 -6.175781 8.050781 -6.566406 7.875 -6.828125 C 7.695312 -7.097656 7.394531 -7.234375 6.96875 -7.234375 C 6.582031 -7.234375 6.210938 -7.070312 5.859375 -6.75 C 5.515625 -6.425781 5.234375 -5.988281 5.015625 -5.4375 C 4.804688 -4.894531 4.703125 -4.316406 4.703125 -3.703125 L 4.703125 -2.0625 L 5.171875 -2.0625 C 5.335938 -2.0625 5.460938 -2.03125 5.546875 -1.96875 C 5.640625 -1.914062 5.707031 -1.816406 5.75 -1.671875 C 5.789062 -1.523438 5.8125 -1.3125 5.8125 -1.03125 C 5.8125 -0.75 5.789062 -0.53125 5.75 -0.375 C 5.707031 -0.226562 5.640625 -0.128906 5.546875 -0.078125 C 5.460938 -0.0234375 5.335938 0 5.171875 0 L 1.40625 0 C 1.25 0 1.125 -0.0234375 1.03125 -0.078125 C 0.945312 -0.128906 0.882812 -0.226562 0.84375 -0.375 C 0.800781 -0.53125 0.78125 -0.75 0.78125 -1.03125 C 0.78125 -1.3125 0.800781 -1.523438 0.84375 -1.671875 C 0.882812 -1.816406 0.945312 -1.914062 1.03125 -1.96875 C 1.125 -2.03125 1.25 -2.0625 1.40625 -2.0625 L 2.1875 -2.0625 L 2.1875 -7.234375 L 1.203125 -7.234375 C 1.046875 -7.234375 0.921875 -7.257812 0.828125 -7.3125 C 0.742188 -7.375 0.679688 -7.476562 0.640625 -7.625 C 0.597656 -7.769531 0.578125 -7.984375 0.578125 -8.265625 C 0.578125 -8.546875 0.597656 -8.757812 0.640625 -8.90625 C 0.679688 -9.0625 0.742188 -9.164062 0.828125 -9.21875 C 0.921875 -9.28125 1.046875 -9.3125 1.203125 -9.3125 L 3.671875 -9.3125 C 3.898438 -9.3125 4.0625 -9.257812 4.15625 -9.15625 C 4.25 -9.0625 4.296875 -8.898438 4.296875 -8.671875 L 4.296875 -7.203125 C 5.179688 -8.753906 6.289062 -9.53125 7.625 -9.53125 Z M 7.625 -9.53125 "/></g></g></g><g fill="#ff6a00" fill-opacity="0.4"><g transform="translate(125.834731, 286.504522)"><g><path d="M 4.890625 -12.171875 C 5.203125 -12.171875 5.441406 -12.148438 5.609375 -12.109375 C 5.785156 -12.066406 5.90625 -12 5.96875 -11.90625 C 6.039062 -11.820312 6.078125 -11.703125 6.078125 -11.546875 L 6.078125 -8.703125 L 9.8125 -8.703125 C 10.039062 -8.703125 10.203125 -8.625 10.296875 -8.46875 C 10.390625 -8.3125 10.4375 -8.023438 10.4375 -7.609375 C 10.4375 -7.191406 10.390625 -6.90625 10.296875 -6.75 C 10.203125 -6.601562 10.039062 -6.53125 9.8125 -6.53125 L 6.078125 -6.53125 L 6.078125 -3.734375 C 6.078125 -2.617188 6.507812 -2.0625 7.375 -2.0625 C 7.675781 -2.0625 8.035156 -2.128906 8.453125 -2.265625 C 8.867188 -2.410156 9.351562 -2.601562 9.90625 -2.84375 C 10.050781 -2.90625 10.164062 -2.9375 10.25 -2.9375 C 10.394531 -2.9375 10.523438 -2.878906 10.640625 -2.765625 C 10.765625 -2.648438 10.878906 -2.457031 10.984375 -2.1875 C 11.109375 -1.882812 11.171875 -1.640625 11.171875 -1.453125 C 11.171875 -1.304688 11.132812 -1.179688 11.0625 -1.078125 C 10.988281 -0.984375 10.882812 -0.898438 10.75 -0.828125 C 9.363281 -0.128906 8.164062 0.21875 7.15625 0.21875 C 5.976562 0.21875 5.082031 -0.101562 4.46875 -0.75 C 3.863281 -1.40625 3.5625 -2.359375 3.5625 -3.609375 L 3.5625 -6.53125 L 1.609375 -6.53125 C 1.378906 -6.53125 1.21875 -6.601562 1.125 -6.75 C 1.03125 -6.90625 0.984375 -7.191406 0.984375 -7.609375 C 0.984375 -8.023438 1.03125 -8.3125 1.125 -8.46875 C 1.21875 -8.625 1.378906 -8.703125 1.609375 -8.703125 L 3.5625 -8.703125 L 3.5625 -11.546875 C 3.5625 -11.773438 3.660156 -11.9375 3.859375 -12.03125 C 4.066406 -12.125 4.410156 -12.171875 4.890625 -12.171875 Z M 4.890625 -12.171875 "/></g></g></g><g fill="#ff6a00" fill-opacity="0.4"><g transform="translate(138.201674, 286.504522)"><g><path d="M 6.328125 -9.53125 C 7.347656 -9.53125 8.21875 -9.304688 8.9375 -8.859375 C 9.65625 -8.421875 10.195312 -7.8125 10.5625 -7.03125 C 10.925781 -6.25 11.109375 -5.351562 11.109375 -4.34375 C 11.109375 -4.125 11.054688 -3.960938 10.953125 -3.859375 C 10.859375 -3.765625 10.695312 -3.71875 10.46875 -3.71875 L 4.015625 -3.71875 C 4.140625 -3.1875 4.410156 -2.773438 4.828125 -2.484375 C 5.242188 -2.203125 5.773438 -2.0625 6.421875 -2.0625 C 7.460938 -2.0625 8.59375 -2.25 9.8125 -2.625 C 9.894531 -2.644531 9.972656 -2.65625 10.046875 -2.65625 C 10.191406 -2.65625 10.316406 -2.585938 10.421875 -2.453125 C 10.535156 -2.316406 10.632812 -2.085938 10.71875 -1.765625 C 10.789062 -1.523438 10.828125 -1.316406 10.828125 -1.140625 C 10.828125 -0.960938 10.785156 -0.820312 10.703125 -0.71875 C 10.628906 -0.625 10.503906 -0.550781 10.328125 -0.5 C 9.660156 -0.269531 8.976562 -0.09375 8.28125 0.03125 C 7.582031 0.15625 6.894531 0.21875 6.21875 0.21875 C 5.195312 0.21875 4.316406 0.0078125 3.578125 -0.40625 C 2.847656 -0.820312 2.285156 -1.394531 1.890625 -2.125 C 1.503906 -2.863281 1.3125 -3.707031 1.3125 -4.65625 C 1.3125 -5.59375 1.515625 -6.429688 1.921875 -7.171875 C 2.328125 -7.910156 2.90625 -8.488281 3.65625 -8.90625 C 4.414062 -9.320312 5.304688 -9.53125 6.328125 -9.53125 Z M 6.328125 -7.234375 C 5.097656 -7.234375 4.335938 -6.71875 4.046875 -5.6875 L 8.484375 -5.6875 C 8.367188 -6.175781 8.125 -6.554688 7.75 -6.828125 C 7.375 -7.097656 6.898438 -7.234375 6.328125 -7.234375 Z M 6.328125 -7.234375 "/></g></g></g><g fill="#ff6a00" fill-opacity="0.4"><g transform="translate(150.568616, 286.504522)"><g><path d="M 7.625 -9.53125 C 8.238281 -9.53125 8.773438 -9.394531 9.234375 -9.125 C 9.691406 -8.851562 10.046875 -8.46875 10.296875 -7.96875 C 10.546875 -7.476562 10.671875 -6.90625 10.671875 -6.25 L 10.671875 -2.0625 L 11.4375 -2.0625 C 11.601562 -2.0625 11.726562 -2.03125 11.8125 -1.96875 C 11.894531 -1.914062 11.957031 -1.816406 12 -1.671875 C 12.050781 -1.523438 12.078125 -1.3125 12.078125 -1.03125 C 12.078125 -0.75 12.050781 -0.53125 12 -0.375 C 11.957031 -0.226562 11.894531 -0.128906 11.8125 -0.078125 C 11.726562 -0.0234375 11.601562 0 11.4375 0 L 7.671875 0 C 7.515625 0 7.390625 -0.0234375 7.296875 -0.078125 C 7.210938 -0.128906 7.148438 -0.226562 7.109375 -0.375 C 7.066406 -0.53125 7.046875 -0.75 7.046875 -1.03125 C 7.046875 -1.3125 7.066406 -1.523438 7.109375 -1.671875 C 7.148438 -1.816406 7.210938 -1.914062 7.296875 -1.96875 C 7.390625 -2.03125 7.515625 -2.0625 7.671875 -2.0625 L 8.140625 -2.0625 L 8.140625 -5.65625 C 8.140625 -6.175781 8.050781 -6.566406 7.875 -6.828125 C 7.695312 -7.097656 7.394531 -7.234375 6.96875 -7.234375 C 6.582031 -7.234375 6.210938 -7.070312 5.859375 -6.75 C 5.515625 -6.425781 5.234375 -5.988281 5.015625 -5.4375 C 4.804688 -4.894531 4.703125 -4.316406 4.703125 -3.703125 L 4.703125 -2.0625 L 5.171875 -2.0625 C 5.335938 -2.0625 5.460938 -2.03125 5.546875 -1.96875 C 5.640625 -1.914062 5.707031 -1.816406 5.75 -1.671875 C 5.789062 -1.523438 5.8125 -1.3125 5.8125 -1.03125 C 5.8125 -0.75 5.789062 -0.53125 5.75 -0.375 C 5.707031 -0.226562 5.640625 -0.128906 5.546875 -0.078125 C 5.460938 -0.0234375 5.335938 0 5.171875 0 L 1.40625 0 C 1.25 0 1.125 -0.0234375 1.03125 -0.078125 C 0.945312 -0.128906 0.882812 -0.226562 0.84375 -0.375 C 0.800781 -0.53125 0.78125 -0.75 0.78125 -1.03125 C 0.78125 -1.3125 0.800781 -1.523438 0.84375 -1.671875 C 0.882812 -1.816406 0.945312 -1.914062 1.03125 -1.96875 C 1.125 -2.03125 1.25 -2.0625 1.40625 -2.0625 L 2.1875 -2.0625 L 2.1875 -7.234375 L 1.203125 -7.234375 C 1.046875 -7.234375 0.921875 -7.257812 0.828125 -7.3125 C 0.742188 -7.375 0.679688 -7.476562 0.640625 -7.625 C 0.597656 -7.769531 0.578125 -7.984375 0.578125 -8.265625 C 0.578125 -8.546875 0.597656 -8.757812 0.640625 -8.90625 C 0.679688 -9.0625 0.742188 -9.164062 0.828125 -9.21875 C 0.921875 -9.28125 1.046875 -9.3125 1.203125 -9.3125 L 3.671875 -9.3125 C 3.898438 -9.3125 4.0625 -9.257812 4.15625 -9.15625 C 4.25 -9.0625 4.296875 -8.898438 4.296875 -8.671875 L 4.296875 -7.203125 C 5.179688 -8.753906 6.289062 -9.53125 7.625 -9.53125 Z M 7.625 -9.53125 "/></g></g></g><g fill="#ff6a00" fill-opacity="0.4"><g transform="translate(162.935559, 286.504522)"><g><path d="M 9.84375 -13.21875 C 10.070312 -13.21875 10.234375 -13.164062 10.328125 -13.0625 C 10.429688 -12.96875 10.484375 -12.804688 10.484375 -12.578125 L 10.484375 -2.0625 L 11.359375 -2.0625 C 11.523438 -2.0625 11.648438 -2.035156 11.734375 -1.984375 C 11.816406 -1.929688 11.878906 -1.828125 11.921875 -1.671875 C 11.972656 -1.523438 12 -1.3125 12 -1.03125 C 12 -0.75 11.972656 -0.535156 11.921875 -0.390625 C 11.878906 -0.242188 11.816406 -0.140625 11.734375 -0.078125 C 11.648438 -0.0234375 11.523438 0 11.359375 0 L 9 0 C 8.769531 0 8.609375 -0.046875 8.515625 -0.140625 C 8.421875 -0.242188 8.375 -0.410156 8.375 -0.640625 L 8.375 -1.484375 C 8.019531 -0.941406 7.582031 -0.519531 7.0625 -0.21875 C 6.539062 0.0703125 5.957031 0.21875 5.3125 0.21875 C 4.4375 0.21875 3.671875 0.00390625 3.015625 -0.421875 C 2.359375 -0.847656 1.851562 -1.429688 1.5 -2.171875 C 1.15625 -2.910156 0.984375 -3.738281 0.984375 -4.65625 C 0.984375 -5.5625 1.15625 -6.382812 1.5 -7.125 C 1.851562 -7.863281 2.359375 -8.445312 3.015625 -8.875 C 3.671875 -9.3125 4.4375 -9.53125 5.3125 -9.53125 C 5.84375 -9.53125 6.332031 -9.425781 6.78125 -9.21875 C 7.226562 -9.007812 7.625 -8.71875 7.96875 -8.34375 L 7.96875 -11.140625 L 6.484375 -11.140625 C 6.328125 -11.140625 6.203125 -11.164062 6.109375 -11.21875 C 6.023438 -11.28125 5.957031 -11.382812 5.90625 -11.53125 C 5.863281 -11.675781 5.84375 -11.890625 5.84375 -12.171875 C 5.84375 -12.453125 5.863281 -12.664062 5.90625 -12.8125 C 5.957031 -12.96875 6.023438 -13.070312 6.109375 -13.125 C 6.203125 -13.1875 6.328125 -13.21875 6.484375 -13.21875 Z M 5.71875 -7.234375 C 5.300781 -7.234375 4.9375 -7.128906 4.625 -6.921875 C 4.320312 -6.710938 4.085938 -6.410156 3.921875 -6.015625 C 3.753906 -5.628906 3.671875 -5.175781 3.671875 -4.65625 C 3.671875 -4.132812 3.753906 -3.675781 3.921875 -3.28125 C 4.085938 -2.894531 4.320312 -2.59375 4.625 -2.375 C 4.9375 -2.164062 5.300781 -2.0625 5.71875 -2.0625 C 6.144531 -2.0625 6.53125 -2.160156 6.875 -2.359375 C 7.226562 -2.566406 7.507812 -2.863281 7.71875 -3.25 C 7.925781 -3.644531 8.03125 -4.113281 8.03125 -4.65625 C 8.03125 -5.1875 7.925781 -5.648438 7.71875 -6.046875 C 7.507812 -6.441406 7.226562 -6.738281 6.875 -6.9375 C 6.53125 -7.132812 6.144531 -7.234375 5.71875 -7.234375 Z M 5.71875 -7.234375 "/></g></g></g><g fill="#ff6a00" fill-opacity="0.4"><g transform="translate(175.302501, 286.504522)"><g/></g></g><g fill="#ff6a00" fill-opacity="0.4"><g transform="translate(187.669444, 286.504522)"><g><path d="M 5.984375 -11.953125 C 7.160156 -11.953125 8.171875 -11.71875 9.015625 -11.25 C 9.859375 -10.789062 10.503906 -10.113281 10.953125 -9.21875 C 11.398438 -8.320312 11.625 -7.242188 11.625 -5.984375 C 11.625 -4.722656 11.398438 -3.644531 10.953125 -2.75 C 10.503906 -1.851562 9.859375 -1.171875 9.015625 -0.703125 C 8.171875 -0.234375 7.160156 0 5.984375 0 L 1.234375 0 C 1.078125 0 0.953125 -0.0234375 0.859375 -0.078125 C 0.773438 -0.128906 0.710938 -0.226562 0.671875 -0.375 C 0.628906 -0.53125 0.609375 -0.75 0.609375 -1.03125 C 0.609375 -1.3125 0.628906 -1.523438 0.671875 -1.671875 C 0.710938 -1.816406 0.773438 -1.914062 0.859375 -1.96875 C 0.953125 -2.03125 1.078125 -2.0625 1.234375 -2.0625 L 2.21875 -2.0625 L 2.21875 -9.890625 L 1.234375 -9.890625 C 1.078125 -9.890625 0.953125 -9.914062 0.859375 -9.96875 C 0.773438 -10.019531 0.710938 -10.117188 0.671875 -10.265625 C 0.628906 -10.421875 0.609375 -10.640625 0.609375 -10.921875 C 0.609375 -11.203125 0.628906 -11.414062 0.671875 -11.5625 C 0.710938 -11.707031 0.773438 -11.804688 0.859375 -11.859375 C 0.953125 -11.921875 1.078125 -11.953125 1.234375 -11.953125 Z M 4.734375 -2.171875 L 5.78125 -2.171875 C 6.820312 -2.171875 7.609375 -2.492188 8.140625 -3.140625 C 8.671875 -3.785156 8.9375 -4.734375 8.9375 -5.984375 C 8.9375 -7.234375 8.671875 -8.175781 8.140625 -8.8125 C 7.609375 -9.457031 6.820312 -9.78125 5.78125 -9.78125 L 4.734375 -9.78125 Z M 4.734375 -2.171875 "/></g></g></g><g fill="#ff6a00" fill-opacity="0.4"><g transform="translate(200.036387, 286.504522)"><g><path d="M 6.328125 -9.53125 C 7.347656 -9.53125 8.21875 -9.304688 8.9375 -8.859375 C 9.65625 -8.421875 10.195312 -7.8125 10.5625 -7.03125 C 10.925781 -6.25 11.109375 -5.351562 11.109375 -4.34375 C 11.109375 -4.125 11.054688 -3.960938 10.953125 -3.859375 C 10.859375 -3.765625 10.695312 -3.71875 10.46875 -3.71875 L 4.015625 -3.71875 C 4.140625 -3.1875 4.410156 -2.773438 4.828125 -2.484375 C 5.242188 -2.203125 5.773438 -2.0625 6.421875 -2.0625 C 7.460938 -2.0625 8.59375 -2.25 9.8125 -2.625 C 9.894531 -2.644531 9.972656 -2.65625 10.046875 -2.65625 C 10.191406 -2.65625 10.316406 -2.585938 10.421875 -2.453125 C 10.535156 -2.316406 10.632812 -2.085938 10.71875 -1.765625 C 10.789062 -1.523438 10.828125 -1.316406 10.828125 -1.140625 C 10.828125 -0.960938 10.785156 -0.820312 10.703125 -0.71875 C 10.628906 -0.625 10.503906 -0.550781 10.328125 -0.5 C 9.660156 -0.269531 8.976562 -0.09375 8.28125 0.03125 C 7.582031 0.15625 6.894531 0.21875 6.21875 0.21875 C 5.195312 0.21875 4.316406 0.0078125 3.578125 -0.40625 C 2.847656 -0.820312 2.285156 -1.394531 1.890625 -2.125 C 1.503906 -2.863281 1.3125 -3.707031 1.3125 -4.65625 C 1.3125 -5.59375 1.515625 -6.429688 1.921875 -7.171875 C 2.328125 -7.910156 2.90625 -8.488281 3.65625 -8.90625 C 4.414062 -9.320312 5.304688 -9.53125 6.328125 -9.53125 Z M 6.328125 -7.234375 C 5.097656 -7.234375 4.335938 -6.71875 4.046875 -5.6875 L 8.484375 -5.6875 C 8.367188 -6.175781 8.125 -6.554688 7.75 -6.828125 C 7.375 -7.097656 6.898438 -7.234375 6.328125 -7.234375 Z M 6.328125 -7.234375 "/></g></g></g><g fill="#ff6a00" fill-opacity="0.4"><g transform="translate(212.403329, 286.504522)"><g><path d="M 11.328125 -9.3125 C 11.492188 -9.3125 11.617188 -9.28125 11.703125 -9.21875 C 11.785156 -9.164062 11.847656 -9.0625 11.890625 -8.90625 C 11.941406 -8.757812 11.96875 -8.546875 11.96875 -8.265625 C 11.96875 -7.984375 11.941406 -7.769531 11.890625 -7.625 C 11.847656 -7.476562 11.785156 -7.375 11.703125 -7.3125 C 11.617188 -7.257812 11.492188 -7.234375 11.328125 -7.234375 L 10.640625 -7.234375 L 7.6875 -0.4375 C 7.59375 -0.195312 7.429688 -0.03125 7.203125 0.0625 C 6.972656 0.164062 6.625 0.21875 6.15625 0.21875 C 5.6875 0.21875 5.335938 0.164062 5.109375 0.0625 C 4.890625 -0.03125 4.726562 -0.195312 4.625 -0.4375 L 1.703125 -7.234375 L 1.03125 -7.234375 C 0.875 -7.234375 0.75 -7.257812 0.65625 -7.3125 C 0.570312 -7.375 0.507812 -7.476562 0.46875 -7.625 C 0.425781 -7.769531 0.40625 -7.984375 0.40625 -8.265625 C 0.40625 -8.546875 0.425781 -8.757812 0.46875 -8.90625 C 0.507812 -9.0625 0.570312 -9.164062 0.65625 -9.21875 C 0.75 -9.28125 0.875 -9.3125 1.03125 -9.3125 L 5.109375 -9.3125 C 5.265625 -9.3125 5.382812 -9.28125 5.46875 -9.21875 C 5.5625 -9.164062 5.628906 -9.0625 5.671875 -8.90625 C 5.710938 -8.757812 5.734375 -8.546875 5.734375 -8.265625 C 5.734375 -7.984375 5.710938 -7.769531 5.671875 -7.625 C 5.628906 -7.476562 5.5625 -7.375 5.46875 -7.3125 C 5.382812 -7.257812 5.265625 -7.234375 5.109375 -7.234375 L 4.4375 -7.234375 L 6.21875 -2.796875 L 8.015625 -7.234375 L 7.46875 -7.234375 C 7.300781 -7.234375 7.171875 -7.257812 7.078125 -7.3125 C 6.992188 -7.375 6.929688 -7.476562 6.890625 -7.625 C 6.847656 -7.769531 6.828125 -7.984375 6.828125 -8.265625 C 6.828125 -8.546875 6.847656 -8.757812 6.890625 -8.90625 C 6.929688 -9.0625 6.992188 -9.164062 7.078125 -9.21875 C 7.171875 -9.28125 7.300781 -9.3125 7.46875 -9.3125 Z M 11.328125 -9.3125 "/></g></g></g><g fill="#ff6a00" fill-opacity="0.4"><g transform="translate(224.770272, 286.504522)"><g><path d="M 6.328125 -9.53125 C 7.347656 -9.53125 8.21875 -9.304688 8.9375 -8.859375 C 9.65625 -8.421875 10.195312 -7.8125 10.5625 -7.03125 C 10.925781 -6.25 11.109375 -5.351562 11.109375 -4.34375 C 11.109375 -4.125 11.054688 -3.960938 10.953125 -3.859375 C 10.859375 -3.765625 10.695312 -3.71875 10.46875 -3.71875 L 4.015625 -3.71875 C 4.140625 -3.1875 4.410156 -2.773438 4.828125 -2.484375 C 5.242188 -2.203125 5.773438 -2.0625 6.421875 -2.0625 C 7.460938 -2.0625 8.59375 -2.25 9.8125 -2.625 C 9.894531 -2.644531 9.972656 -2.65625 10.046875 -2.65625 C 10.191406 -2.65625 10.316406 -2.585938 10.421875 -2.453125 C 10.535156 -2.316406 10.632812 -2.085938 10.71875 -1.765625 C 10.789062 -1.523438 10.828125 -1.316406 10.828125 -1.140625 C 10.828125 -0.960938 10.785156 -0.820312 10.703125 -0.71875 C 10.628906 -0.625 10.503906 -0.550781 10.328125 -0.5 C 9.660156 -0.269531 8.976562 -0.09375 8.28125 0.03125 C 7.582031 0.15625 6.894531 0.21875 6.21875 0.21875 C 5.195312 0.21875 4.316406 0.0078125 3.578125 -0.40625 C 2.847656 -0.820312 2.285156 -1.394531 1.890625 -2.125 C 1.503906 -2.863281 1.3125 -3.707031 1.3125 -4.65625 C 1.3125 -5.59375 1.515625 -6.429688 1.921875 -7.171875 C 2.328125 -7.910156 2.90625 -8.488281 3.65625 -8.90625 C 4.414062 -9.320312 5.304688 -9.53125 6.328125 -9.53125 Z M 6.328125 -7.234375 C 5.097656 -7.234375 4.335938 -6.71875 4.046875 -5.6875 L 8.484375 -5.6875 C 8.367188 -6.175781 8.125 -6.554688 7.75 -6.828125 C 7.375 -7.097656 6.898438 -7.234375 6.328125 -7.234375 Z M 6.328125 -7.234375 "/></g></g></g><g fill="#ff6a00" fill-opacity="0.4"><g transform="translate(237.137214, 286.504522)"><g><path d="M 6.84375 -13.21875 C 7.070312 -13.21875 7.234375 -13.164062 7.328125 -13.0625 C 7.429688 -12.96875 7.484375 -12.804688 7.484375 -12.578125 L 7.484375 -2.0625 L 10.3125 -2.0625 C 10.46875 -2.0625 10.585938 -2.03125 10.671875 -1.96875 C 10.765625 -1.914062 10.832031 -1.816406 10.875 -1.671875 C 10.925781 -1.523438 10.953125 -1.3125 10.953125 -1.03125 C 10.953125 -0.75 10.925781 -0.53125 10.875 -0.375 C 10.832031 -0.226562 10.765625 -0.128906 10.671875 -0.078125 C 10.585938 -0.0234375 10.46875 0 10.3125 0 L 2.21875 0 C 2.050781 0 1.925781 -0.0234375 1.84375 -0.078125 C 1.757812 -0.128906 1.691406 -0.226562 1.640625 -0.375 C 1.597656 -0.53125 1.578125 -0.75 1.578125 -1.03125 C 1.578125 -1.3125 1.597656 -1.523438 1.640625 -1.671875 C 1.691406 -1.816406 1.757812 -1.914062 1.84375 -1.96875 C 1.925781 -2.03125 2.050781 -2.0625 2.21875 -2.0625 L 4.96875 -2.0625 L 4.96875 -11.140625 L 2.625 -11.140625 C 2.457031 -11.140625 2.328125 -11.164062 2.234375 -11.21875 C 2.148438 -11.28125 2.085938 -11.382812 2.046875 -11.53125 C 2.003906 -11.675781 1.984375 -11.890625 1.984375 -12.171875 C 1.984375 -12.453125 2.003906 -12.664062 2.046875 -12.8125 C 2.085938 -12.96875 2.148438 -13.070312 2.234375 -13.125 C 2.328125 -13.1875 2.457031 -13.21875 2.625 -13.21875 Z M 6.84375 -13.21875 "/></g></g></g><g fill="#ff6a00" fill-opacity="0.4"><g transform="translate(249.504157, 286.504522)"><g><path d="M 6.1875 -9.53125 C 7.207031 -9.53125 8.097656 -9.320312 8.859375 -8.90625 C 9.628906 -8.488281 10.21875 -7.910156 10.625 -7.171875 C 11.039062 -6.429688 11.25 -5.59375 11.25 -4.65625 C 11.25 -3.71875 11.039062 -2.878906 10.625 -2.140625 C 10.21875 -1.398438 9.628906 -0.820312 8.859375 -0.40625 C 8.097656 0.0078125 7.207031 0.21875 6.1875 0.21875 C 5.164062 0.21875 4.269531 0.0078125 3.5 -0.40625 C 2.738281 -0.820312 2.148438 -1.398438 1.734375 -2.140625 C 1.328125 -2.878906 1.125 -3.71875 1.125 -4.65625 C 1.125 -5.59375 1.328125 -6.429688 1.734375 -7.171875 C 2.148438 -7.910156 2.738281 -8.488281 3.5 -8.90625 C 4.269531 -9.320312 5.164062 -9.53125 6.1875 -9.53125 Z M 6.1875 -7.234375 C 5.695312 -7.234375 5.273438 -7.128906 4.921875 -6.921875 C 4.566406 -6.710938 4.289062 -6.410156 4.09375 -6.015625 C 3.90625 -5.628906 3.8125 -5.175781 3.8125 -4.65625 C 3.8125 -4.132812 3.90625 -3.675781 4.09375 -3.28125 C 4.289062 -2.894531 4.566406 -2.59375 4.921875 -2.375 C 5.273438 -2.164062 5.695312 -2.0625 6.1875 -2.0625 C 6.664062 -2.0625 7.082031 -2.164062 7.4375 -2.375 C 7.789062 -2.59375 8.0625 -2.894531 8.25 -3.28125 C 8.445312 -3.675781 8.546875 -4.132812 8.546875 -4.65625 C 8.546875 -5.175781 8.445312 -5.628906 8.25 -6.015625 C 8.0625 -6.410156 7.789062 -6.710938 7.4375 -6.921875 C 7.082031 -7.128906 6.664062 -7.234375 6.1875 -7.234375 Z M 6.1875 -7.234375 "/></g></g></g><g fill="#ff6a00" fill-opacity="0.4"><g transform="translate(261.871099, 286.504522)"><g><path d="M 7.046875 -9.53125 C 7.929688 -9.53125 8.703125 -9.3125 9.359375 -8.875 C 10.015625 -8.445312 10.515625 -7.863281 10.859375 -7.125 C 11.210938 -6.382812 11.390625 -5.5625 11.390625 -4.65625 C 11.390625 -3.738281 11.210938 -2.910156 10.859375 -2.171875 C 10.515625 -1.429688 10.015625 -0.847656 9.359375 -0.421875 C 8.703125 0.00390625 7.929688 0.21875 7.046875 0.21875 C 6.523438 0.21875 6.039062 0.117188 5.59375 -0.078125 C 5.144531 -0.285156 4.75 -0.582031 4.40625 -0.96875 L 4.40625 1.84375 L 6.078125 1.84375 C 6.242188 1.84375 6.367188 1.867188 6.453125 1.921875 C 6.546875 1.972656 6.613281 2.070312 6.65625 2.21875 C 6.695312 2.375 6.71875 2.59375 6.71875 2.875 C 6.71875 3.15625 6.695312 3.367188 6.65625 3.515625 C 6.613281 3.660156 6.546875 3.757812 6.453125 3.8125 C 6.367188 3.875 6.242188 3.90625 6.078125 3.90625 L 1 3.90625 C 0.84375 3.90625 0.71875 3.878906 0.625 3.828125 C 0.539062 3.773438 0.476562 3.671875 0.4375 3.515625 C 0.394531 3.367188 0.375 3.15625 0.375 2.875 C 0.375 2.59375 0.394531 2.378906 0.4375 2.234375 C 0.476562 2.085938 0.539062 1.984375 0.625 1.921875 C 0.71875 1.867188 0.84375 1.84375 1 1.84375 L 1.890625 1.84375 L 1.890625 -7.234375 L 1 -7.234375 C 0.84375 -7.234375 0.71875 -7.257812 0.625 -7.3125 C 0.539062 -7.375 0.476562 -7.476562 0.4375 -7.625 C 0.394531 -7.769531 0.375 -7.984375 0.375 -8.265625 C 0.375 -8.546875 0.394531 -8.757812 0.4375 -8.90625 C 0.476562 -9.0625 0.539062 -9.164062 0.625 -9.21875 C 0.71875 -9.28125 0.84375 -9.3125 1 -9.3125 L 3.359375 -9.3125 C 3.585938 -9.3125 3.75 -9.257812 3.84375 -9.15625 C 3.945312 -9.0625 4 -8.898438 4 -8.671875 L 4 -7.828125 C 4.34375 -8.359375 4.773438 -8.773438 5.296875 -9.078125 C 5.828125 -9.378906 6.410156 -9.53125 7.046875 -9.53125 Z M 6.640625 -7.234375 C 6.210938 -7.234375 5.820312 -7.132812 5.46875 -6.9375 C 5.125 -6.738281 4.847656 -6.441406 4.640625 -6.046875 C 4.429688 -5.648438 4.328125 -5.1875 4.328125 -4.65625 C 4.328125 -4.113281 4.429688 -3.644531 4.640625 -3.25 C 4.847656 -2.863281 5.125 -2.566406 5.46875 -2.359375 C 5.820312 -2.160156 6.210938 -2.0625 6.640625 -2.0625 C 7.054688 -2.0625 7.421875 -2.164062 7.734375 -2.375 C 8.046875 -2.59375 8.28125 -2.894531 8.4375 -3.28125 C 8.601562 -3.675781 8.6875 -4.132812 8.6875 -4.65625 C 8.6875 -5.175781 8.601562 -5.628906 8.4375 -6.015625 C 8.28125 -6.410156 8.046875 -6.710938 7.734375 -6.921875 C 7.421875 -7.128906 7.054688 -7.234375 6.640625 -7.234375 Z M 6.640625 -7.234375 "/></g></g></g><g fill="#ff6a00" fill-opacity="0.4"><g transform="translate(274.238042, 286.504522)"><g><path d="M 6.328125 -9.53125 C 7.347656 -9.53125 8.21875 -9.304688 8.9375 -8.859375 C 9.65625 -8.421875 10.195312 -7.8125 10.5625 -7.03125 C 10.925781 -6.25 11.109375 -5.351562 11.109375 -4.34375 C 11.109375 -4.125 11.054688 -3.960938 10.953125 -3.859375 C 10.859375 -3.765625 10.695312 -3.71875 10.46875 -3.71875 L 4.015625 -3.71875 C 4.140625 -3.1875 4.410156 -2.773438 4.828125 -2.484375 C 5.242188 -2.203125 5.773438 -2.0625 6.421875 -2.0625 C 7.460938 -2.0625 8.59375 -2.25 9.8125 -2.625 C 9.894531 -2.644531 9.972656 -2.65625 10.046875 -2.65625 C 10.191406 -2.65625 10.316406 -2.585938 10.421875 -2.453125 C 10.535156 -2.316406 10.632812 -2.085938 10.71875 -1.765625 C 10.789062 -1.523438 10.828125 -1.316406 10.828125 -1.140625 C 10.828125 -0.960938 10.785156 -0.820312 10.703125 -0.71875 C 10.628906 -0.625 10.503906 -0.550781 10.328125 -0.5 C 9.660156 -0.269531 8.976562 -0.09375 8.28125 0.03125 C 7.582031 0.15625 6.894531 0.21875 6.21875 0.21875 C 5.195312 0.21875 4.316406 0.0078125 3.578125 -0.40625 C 2.847656 -0.820312 2.285156 -1.394531 1.890625 -2.125 C 1.503906 -2.863281 1.3125 -3.707031 1.3125 -4.65625 C 1.3125 -5.59375 1.515625 -6.429688 1.921875 -7.171875 C 2.328125 -7.910156 2.90625 -8.488281 3.65625 -8.90625 C 4.414062 -9.320312 5.304688 -9.53125 6.328125 -9.53125 Z M 6.328125 -7.234375 C 5.097656 -7.234375 4.335938 -6.71875 4.046875 -5.6875 L 8.484375 -5.6875 C 8.367188 -6.175781 8.125 -6.554688 7.75 -6.828125 C 7.375 -7.097656 6.898438 -7.234375 6.328125 -7.234375 Z M 6.328125 -7.234375 "/></g></g></g><g fill="#ff6a00" fill-opacity="0.4"><g transform="translate(286.604984, 286.504522)"><g><path d="M 9.328125 -9.53125 C 9.898438 -9.53125 10.441406 -9.34375 10.953125 -8.96875 C 11.242188 -8.75 11.390625 -8.460938 11.390625 -8.109375 C 11.390625 -7.890625 11.328125 -7.628906 11.203125 -7.328125 C 11.085938 -7.023438 10.953125 -6.796875 10.796875 -6.640625 C 10.648438 -6.492188 10.492188 -6.421875 10.328125 -6.421875 C 10.234375 -6.421875 10.128906 -6.445312 10.015625 -6.5 C 9.640625 -6.707031 9.253906 -6.8125 8.859375 -6.8125 C 8.335938 -6.8125 7.851562 -6.644531 7.40625 -6.3125 C 6.957031 -5.988281 6.59375 -5.535156 6.3125 -4.953125 C 6.039062 -4.378906 5.90625 -3.734375 5.90625 -3.015625 L 5.90625 -2.0625 L 8.796875 -2.0625 C 8.960938 -2.0625 9.085938 -2.03125 9.171875 -1.96875 C 9.265625 -1.914062 9.332031 -1.816406 9.375 -1.671875 C 9.414062 -1.523438 9.4375 -1.3125 9.4375 -1.03125 C 9.4375 -0.75 9.414062 -0.53125 9.375 -0.375 C 9.332031 -0.226562 9.265625 -0.128906 9.171875 -0.078125 C 9.085938 -0.0234375 8.960938 0 8.796875 0 L 1.90625 0 C 1.75 0 1.625 -0.0234375 1.53125 -0.078125 C 1.445312 -0.128906 1.382812 -0.226562 1.34375 -0.375 C 1.300781 -0.53125 1.28125 -0.75 1.28125 -1.03125 C 1.28125 -1.3125 1.300781 -1.523438 1.34375 -1.671875 C 1.382812 -1.816406 1.445312 -1.914062 1.53125 -1.96875 C 1.625 -2.03125 1.75 -2.0625 1.90625 -2.0625 L 3.390625 -2.0625 L 3.390625 -7.234375 L 2.21875 -7.234375 C 2.050781 -7.234375 1.925781 -7.257812 1.84375 -7.3125 C 1.757812 -7.375 1.691406 -7.476562 1.640625 -7.625 C 1.597656 -7.769531 1.578125 -7.984375 1.578125 -8.265625 C 1.578125 -8.546875 1.597656 -8.757812 1.640625 -8.90625 C 1.691406 -9.0625 1.757812 -9.164062 1.84375 -9.21875 C 1.925781 -9.28125 2.050781 -9.3125 2.21875 -9.3125 L 4.96875 -9.3125 C 5.195312 -9.3125 5.359375 -9.257812 5.453125 -9.15625 C 5.554688 -9.0625 5.609375 -8.898438 5.609375 -8.671875 L 5.609375 -6.484375 C 6.109375 -7.460938 6.6875 -8.210938 7.34375 -8.734375 C 8 -9.265625 8.660156 -9.53125 9.328125 -9.53125 Z M 9.328125 -9.53125 "/></g></g></g><g fill="#3dcfb6" fill-opacity="1"><g transform="translate(76.184583, 286.322148)"><g><path d="M 10.625 -11.953125 C 10.863281 -11.953125 11.03125 -11.898438 11.125 -11.796875 C 11.226562 -11.703125 11.28125 -11.535156 11.28125 -11.296875 L 11.28125 -8.265625 C 11.28125 -8.035156 11.179688 -7.867188 10.984375 -7.765625 C 10.785156 -7.671875 10.472656 -7.625 10.046875 -7.625 C 9.628906 -7.625 9.34375 -7.671875 9.1875 -7.765625 C 9.039062 -7.859375 8.96875 -8.023438 8.96875 -8.265625 L 8.96875 -9.78125 L 5.03125 -9.78125 L 5.03125 -6.71875 L 8.09375 -6.71875 C 8.332031 -6.71875 8.5 -6.640625 8.59375 -6.484375 C 8.6875 -6.328125 8.734375 -6.039062 8.734375 -5.625 C 8.734375 -5.207031 8.6875 -4.921875 8.59375 -4.765625 C 8.5 -4.617188 8.332031 -4.546875 8.09375 -4.546875 L 5.03125 -4.546875 L 5.03125 -2.0625 L 7.21875 -2.0625 C 7.382812 -2.0625 7.507812 -2.03125 7.59375 -1.96875 C 7.675781 -1.914062 7.738281 -1.816406 7.78125 -1.671875 C 7.832031 -1.523438 7.859375 -1.3125 7.859375 -1.03125 C 7.859375 -0.75 7.832031 -0.53125 7.78125 -0.375 C 7.738281 -0.226562 7.675781 -0.128906 7.59375 -0.078125 C 7.507812 -0.0234375 7.382812 0 7.21875 0 L 1.234375 0 C 1.078125 0 0.953125 -0.0234375 0.859375 -0.078125 C 0.773438 -0.128906 0.710938 -0.226562 0.671875 -0.375 C 0.628906 -0.53125 0.609375 -0.75 0.609375 -1.03125 C 0.609375 -1.3125 0.628906 -1.523438 0.671875 -1.671875 C 0.710938 -1.816406 0.773438 -1.914062 0.859375 -1.96875 C 0.953125 -2.03125 1.078125 -2.0625 1.234375 -2.0625 L 2.515625 -2.0625 L 2.515625 -9.890625 L 1.234375 -9.890625 C 1.078125 -9.890625 0.953125 -9.914062 0.859375 -9.96875 C 0.773438 -10.019531 0.710938 -10.117188 0.671875 -10.265625 C 0.628906 -10.421875 0.609375 -10.640625 0.609375 -10.921875 C 0.609375 -11.203125 0.628906 -11.414062 0.671875 -11.5625 C 0.710938 -11.707031 0.773438 -11.804688 0.859375 -11.859375 C 0.953125 -11.921875 1.078125 -11.953125 1.234375 -11.953125 Z M 10.625 -11.953125 "/></g></g></g><g fill="#3dcfb6" fill-opacity="1"><g transform="translate(88.551525, 286.322148)"><g><path d="M 9.328125 -9.53125 C 9.898438 -9.53125 10.441406 -9.34375 10.953125 -8.96875 C 11.242188 -8.75 11.390625 -8.460938 11.390625 -8.109375 C 11.390625 -7.890625 11.328125 -7.628906 11.203125 -7.328125 C 11.085938 -7.023438 10.953125 -6.796875 10.796875 -6.640625 C 10.648438 -6.492188 10.492188 -6.421875 10.328125 -6.421875 C 10.234375 -6.421875 10.128906 -6.445312 10.015625 -6.5 C 9.640625 -6.707031 9.253906 -6.8125 8.859375 -6.8125 C 8.335938 -6.8125 7.851562 -6.644531 7.40625 -6.3125 C 6.957031 -5.988281 6.59375 -5.535156 6.3125 -4.953125 C 6.039062 -4.378906 5.90625 -3.734375 5.90625 -3.015625 L 5.90625 -2.0625 L 8.796875 -2.0625 C 8.960938 -2.0625 9.085938 -2.03125 9.171875 -1.96875 C 9.265625 -1.914062 9.332031 -1.816406 9.375 -1.671875 C 9.414062 -1.523438 9.4375 -1.3125 9.4375 -1.03125 C 9.4375 -0.75 9.414062 -0.53125 9.375 -0.375 C 9.332031 -0.226562 9.265625 -0.128906 9.171875 -0.078125 C 9.085938 -0.0234375 8.960938 0 8.796875 0 L 1.90625 0 C 1.75 0 1.625 -0.0234375 1.53125 -0.078125 C 1.445312 -0.128906 1.382812 -0.226562 1.34375 -0.375 C 1.300781 -0.53125 1.28125 -0.75 1.28125 -1.03125 C 1.28125 -1.3125 1.300781 -1.523438 1.34375 -1.671875 C 1.382812 -1.816406 1.445312 -1.914062 1.53125 -1.96875 C 1.625 -2.03125 1.75 -2.0625 1.90625 -2.0625 L 3.390625 -2.0625 L 3.390625 -7.234375 L 2.21875 -7.234375 C 2.050781 -7.234375 1.925781 -7.257812 1.84375 -7.3125 C 1.757812 -7.375 1.691406 -7.476562 1.640625 -7.625 C 1.597656 -7.769531 1.578125 -7.984375 1.578125 -8.265625 C 1.578125 -8.546875 1.597656 -8.757812 1.640625 -8.90625 C 1.691406 -9.0625 1.757812 -9.164062 1.84375 -9.21875 C 1.925781 -9.28125 2.050781 -9.3125 2.21875 -9.3125 L 4.96875 -9.3125 C 5.195312 -9.3125 5.359375 -9.257812 5.453125 -9.15625 C 5.554688 -9.0625 5.609375 -8.898438 5.609375 -8.671875 L 5.609375 -6.484375 C 6.109375 -7.460938 6.6875 -8.210938 7.34375 -8.734375 C 8 -9.265625 8.660156 -9.53125 9.328125 -9.53125 Z M 9.328125 -9.53125 "/></g></g></g><g fill="#3dcfb6" fill-opacity="1"><g transform="translate(100.918468, 286.322148)"><g><path d="M 6.1875 -9.53125 C 7.207031 -9.53125 8.097656 -9.320312 8.859375 -8.90625 C 9.628906 -8.488281 10.21875 -7.910156 10.625 -7.171875 C 11.039062 -6.429688 11.25 -5.59375 11.25 -4.65625 C 11.25 -3.71875 11.039062 -2.878906 10.625 -2.140625 C 10.21875 -1.398438 9.628906 -0.820312 8.859375 -0.40625 C 8.097656 0.0078125 7.207031 0.21875 6.1875 0.21875 C 5.164062 0.21875 4.269531 0.0078125 3.5 -0.40625 C 2.738281 -0.820312 2.148438 -1.398438 1.734375 -2.140625 C 1.328125 -2.878906 1.125 -3.71875 1.125 -4.65625 C 1.125 -5.59375 1.328125 -6.429688 1.734375 -7.171875 C 2.148438 -7.910156 2.738281 -8.488281 3.5 -8.90625 C 4.269531 -9.320312 5.164062 -9.53125 6.1875 -9.53125 Z M 6.1875 -7.234375 C 5.695312 -7.234375 5.273438 -7.128906 4.921875 -6.921875 C 4.566406 -6.710938 4.289062 -6.410156 4.09375 -6.015625 C 3.90625 -5.628906 3.8125 -5.175781 3.8125 -4.65625 C 3.8125 -4.132812 3.90625 -3.675781 4.09375 -3.28125 C 4.289062 -2.894531 4.566406 -2.59375 4.921875 -2.375 C 5.273438 -2.164062 5.695312 -2.0625 6.1875 -2.0625 C 6.664062 -2.0625 7.082031 -2.164062 7.4375 -2.375 C 7.789062 -2.59375 8.0625 -2.894531 8.25 -3.28125 C 8.445312 -3.675781 8.546875 -4.132812 8.546875 -4.65625 C 8.546875 -5.175781 8.445312 -5.628906 8.25 -6.015625 C 8.0625 -6.410156 7.789062 -6.710938 7.4375 -6.921875 C 7.082031 -7.128906 6.664062 -7.234375 6.1875 -7.234375 Z M 6.1875 -7.234375 "/></g></g></g><g fill="#3dcfb6" fill-opacity="1"><g transform="translate(113.28541, 286.322148)"><g><path d="M 7.625 -9.53125 C 8.238281 -9.53125 8.773438 -9.394531 9.234375 -9.125 C 9.691406 -8.851562 10.046875 -8.46875 10.296875 -7.96875 C 10.546875 -7.476562 10.671875 -6.90625 10.671875 -6.25 L 10.671875 -2.0625 L 11.4375 -2.0625 C 11.601562 -2.0625 11.726562 -2.03125 11.8125 -1.96875 C 11.894531 -1.914062 11.957031 -1.816406 12 -1.671875 C 12.050781 -1.523438 12.078125 -1.3125 12.078125 -1.03125 C 12.078125 -0.75 12.050781 -0.53125 12 -0.375 C 11.957031 -0.226562 11.894531 -0.128906 11.8125 -0.078125 C 11.726562 -0.0234375 11.601562 0 11.4375 0 L 7.671875 0 C 7.515625 0 7.390625 -0.0234375 7.296875 -0.078125 C 7.210938 -0.128906 7.148438 -0.226562 7.109375 -0.375 C 7.066406 -0.53125 7.046875 -0.75 7.046875 -1.03125 C 7.046875 -1.3125 7.066406 -1.523438 7.109375 -1.671875 C 7.148438 -1.816406 7.210938 -1.914062 7.296875 -1.96875 C 7.390625 -2.03125 7.515625 -2.0625 7.671875 -2.0625 L 8.140625 -2.0625 L 8.140625 -5.65625 C 8.140625 -6.175781 8.050781 -6.566406 7.875 -6.828125 C 7.695312 -7.097656 7.394531 -7.234375 6.96875 -7.234375 C 6.582031 -7.234375 6.210938 -7.070312 5.859375 -6.75 C 5.515625 -6.425781 5.234375 -5.988281 5.015625 -5.4375 C 4.804688 -4.894531 4.703125 -4.316406 4.703125 -3.703125 L 4.703125 -2.0625 L 5.171875 -2.0625 C 5.335938 -2.0625 5.460938 -2.03125 5.546875 -1.96875 C 5.640625 -1.914062 5.707031 -1.816406 5.75 -1.671875 C 5.789062 -1.523438 5.8125 -1.3125 5.8125 -1.03125 C 5.8125 -0.75 5.789062 -0.53125 5.75 -0.375 C 5.707031 -0.226562 5.640625 -0.128906 5.546875 -0.078125 C 5.460938 -0.0234375 5.335938 0 5.171875 0 L 1.40625 0 C 1.25 0 1.125 -0.0234375 1.03125 -0.078125 C 0.945312 -0.128906 0.882812 -0.226562 0.84375 -0.375 C 0.800781 -0.53125 0.78125 -0.75 0.78125 -1.03125 C 0.78125 -1.3125 0.800781 -1.523438 0.84375 -1.671875 C 0.882812 -1.816406 0.945312 -1.914062 1.03125 -1.96875 C 1.125 -2.03125 1.25 -2.0625 1.40625 -2.0625 L 2.1875 -2.0625 L 2.1875 -7.234375 L 1.203125 -7.234375 C 1.046875 -7.234375 0.921875 -7.257812 0.828125 -7.3125 C 0.742188 -7.375 0.679688 -7.476562 0.640625 -7.625 C 0.597656 -7.769531 0.578125 -7.984375 0.578125 -8.265625 C 0.578125 -8.546875 0.597656 -8.757812 0.640625 -8.90625 C 0.679688 -9.0625 0.742188 -9.164062 0.828125 -9.21875 C 0.921875 -9.28125 1.046875 -9.3125 1.203125 -9.3125 L 3.671875 -9.3125 C 3.898438 -9.3125 4.0625 -9.257812 4.15625 -9.15625 C 4.25 -9.0625 4.296875 -8.898438 4.296875 -8.671875 L 4.296875 -7.203125 C 5.179688 -8.753906 6.289062 -9.53125 7.625 -9.53125 Z M 7.625 -9.53125 "/></g></g></g><g fill="#3dcfb6" fill-opacity="1"><g transform="translate(125.652353, 286.322148)"><g><path d="M 4.890625 -12.171875 C 5.203125 -12.171875 5.441406 -12.148438 5.609375 -12.109375 C 5.785156 -12.066406 5.90625 -12 5.96875 -11.90625 C 6.039062 -11.820312 6.078125 -11.703125 6.078125 -11.546875 L 6.078125 -8.703125 L 9.8125 -8.703125 C 10.039062 -8.703125 10.203125 -8.625 10.296875 -8.46875 C 10.390625 -8.3125 10.4375 -8.023438 10.4375 -7.609375 C 10.4375 -7.191406 10.390625 -6.90625 10.296875 -6.75 C 10.203125 -6.601562 10.039062 -6.53125 9.8125 -6.53125 L 6.078125 -6.53125 L 6.078125 -3.734375 C 6.078125 -2.617188 6.507812 -2.0625 7.375 -2.0625 C 7.675781 -2.0625 8.035156 -2.128906 8.453125 -2.265625 C 8.867188 -2.410156 9.351562 -2.601562 9.90625 -2.84375 C 10.050781 -2.90625 10.164062 -2.9375 10.25 -2.9375 C 10.394531 -2.9375 10.523438 -2.878906 10.640625 -2.765625 C 10.765625 -2.648438 10.878906 -2.457031 10.984375 -2.1875 C 11.109375 -1.882812 11.171875 -1.640625 11.171875 -1.453125 C 11.171875 -1.304688 11.132812 -1.179688 11.0625 -1.078125 C 10.988281 -0.984375 10.882812 -0.898438 10.75 -0.828125 C 9.363281 -0.128906 8.164062 0.21875 7.15625 0.21875 C 5.976562 0.21875 5.082031 -0.101562 4.46875 -0.75 C 3.863281 -1.40625 3.5625 -2.359375 3.5625 -3.609375 L 3.5625 -6.53125 L 1.609375 -6.53125 C 1.378906 -6.53125 1.21875 -6.601562 1.125 -6.75 C 1.03125 -6.90625 0.984375 -7.191406 0.984375 -7.609375 C 0.984375 -8.023438 1.03125 -8.3125 1.125 -8.46875 C 1.21875 -8.625 1.378906 -8.703125 1.609375 -8.703125 L 3.5625 -8.703125 L 3.5625 -11.546875 C 3.5625 -11.773438 3.660156 -11.9375 3.859375 -12.03125 C 4.066406 -12.125 4.410156 -12.171875 4.890625 -12.171875 Z M 4.890625 -12.171875 "/></g></g></g><g fill="#3dcfb6" fill-opacity="1"><g transform="translate(138.019295, 286.322148)"><g><path d="M 6.328125 -9.53125 C 7.347656 -9.53125 8.21875 -9.304688 8.9375 -8.859375 C 9.65625 -8.421875 10.195312 -7.8125 10.5625 -7.03125 C 10.925781 -6.25 11.109375 -5.351562 11.109375 -4.34375 C 11.109375 -4.125 11.054688 -3.960938 10.953125 -3.859375 C 10.859375 -3.765625 10.695312 -3.71875 10.46875 -3.71875 L 4.015625 -3.71875 C 4.140625 -3.1875 4.410156 -2.773438 4.828125 -2.484375 C 5.242188 -2.203125 5.773438 -2.0625 6.421875 -2.0625 C 7.460938 -2.0625 8.59375 -2.25 9.8125 -2.625 C 9.894531 -2.644531 9.972656 -2.65625 10.046875 -2.65625 C 10.191406 -2.65625 10.316406 -2.585938 10.421875 -2.453125 C 10.535156 -2.316406 10.632812 -2.085938 10.71875 -1.765625 C 10.789062 -1.523438 10.828125 -1.316406 10.828125 -1.140625 C 10.828125 -0.960938 10.785156 -0.820312 10.703125 -0.71875 C 10.628906 -0.625 10.503906 -0.550781 10.328125 -0.5 C 9.660156 -0.269531 8.976562 -0.09375 8.28125 0.03125 C 7.582031 0.15625 6.894531 0.21875 6.21875 0.21875 C 5.195312 0.21875 4.316406 0.0078125 3.578125 -0.40625 C 2.847656 -0.820312 2.285156 -1.394531 1.890625 -2.125 C 1.503906 -2.863281 1.3125 -3.707031 1.3125 -4.65625 C 1.3125 -5.59375 1.515625 -6.429688 1.921875 -7.171875 C 2.328125 -7.910156 2.90625 -8.488281 3.65625 -8.90625 C 4.414062 -9.320312 5.304688 -9.53125 6.328125 -9.53125 Z M 6.328125 -7.234375 C 5.097656 -7.234375 4.335938 -6.71875 4.046875 -5.6875 L 8.484375 -5.6875 C 8.367188 -6.175781 8.125 -6.554688 7.75 -6.828125 C 7.375 -7.097656 6.898438 -7.234375 6.328125 -7.234375 Z M 6.328125 -7.234375 "/></g></g></g><g fill="#3dcfb6" fill-opacity="1"><g transform="translate(150.386238, 286.322148)"><g><path d="M 7.625 -9.53125 C 8.238281 -9.53125 8.773438 -9.394531 9.234375 -9.125 C 9.691406 -8.851562 10.046875 -8.46875 10.296875 -7.96875 C 10.546875 -7.476562 10.671875 -6.90625 10.671875 -6.25 L 10.671875 -2.0625 L 11.4375 -2.0625 C 11.601562 -2.0625 11.726562 -2.03125 11.8125 -1.96875 C 11.894531 -1.914062 11.957031 -1.816406 12 -1.671875 C 12.050781 -1.523438 12.078125 -1.3125 12.078125 -1.03125 C 12.078125 -0.75 12.050781 -0.53125 12 -0.375 C 11.957031 -0.226562 11.894531 -0.128906 11.8125 -0.078125 C 11.726562 -0.0234375 11.601562 0 11.4375 0 L 7.671875 0 C 7.515625 0 7.390625 -0.0234375 7.296875 -0.078125 C 7.210938 -0.128906 7.148438 -0.226562 7.109375 -0.375 C 7.066406 -0.53125 7.046875 -0.75 7.046875 -1.03125 C 7.046875 -1.3125 7.066406 -1.523438 7.109375 -1.671875 C 7.148438 -1.816406 7.210938 -1.914062 7.296875 -1.96875 C 7.390625 -2.03125 7.515625 -2.0625 7.671875 -2.0625 L 8.140625 -2.0625 L 8.140625 -5.65625 C 8.140625 -6.175781 8.050781 -6.566406 7.875 -6.828125 C 7.695312 -7.097656 7.394531 -7.234375 6.96875 -7.234375 C 6.582031 -7.234375 6.210938 -7.070312 5.859375 -6.75 C 5.515625 -6.425781 5.234375 -5.988281 5.015625 -5.4375 C 4.804688 -4.894531 4.703125 -4.316406 4.703125 -3.703125 L 4.703125 -2.0625 L 5.171875 -2.0625 C 5.335938 -2.0625 5.460938 -2.03125 5.546875 -1.96875 C 5.640625 -1.914062 5.707031 -1.816406 5.75 -1.671875 C 5.789062 -1.523438 5.8125 -1.3125 5.8125 -1.03125 C 5.8125 -0.75 5.789062 -0.53125 5.75 -0.375 C 5.707031 -0.226562 5.640625 -0.128906 5.546875 -0.078125 C 5.460938 -0.0234375 5.335938 0 5.171875 0 L 1.40625 0 C 1.25 0 1.125 -0.0234375 1.03125 -0.078125 C 0.945312 -0.128906 0.882812 -0.226562 0.84375 -0.375 C 0.800781 -0.53125 0.78125 -0.75 0.78125 -1.03125 C 0.78125 -1.3125 0.800781 -1.523438 0.84375 -1.671875 C 0.882812 -1.816406 0.945312 -1.914062 1.03125 -1.96875 C 1.125 -2.03125 1.25 -2.0625 1.40625 -2.0625 L 2.1875 -2.0625 L 2.1875 -7.234375 L 1.203125 -7.234375 C 1.046875 -7.234375 0.921875 -7.257812 0.828125 -7.3125 C 0.742188 -7.375 0.679688 -7.476562 0.640625 -7.625 C 0.597656 -7.769531 0.578125 -7.984375 0.578125 -8.265625 C 0.578125 -8.546875 0.597656 -8.757812 0.640625 -8.90625 C 0.679688 -9.0625 0.742188 -9.164062 0.828125 -9.21875 C 0.921875 -9.28125 1.046875 -9.3125 1.203125 -9.3125 L 3.671875 -9.3125 C 3.898438 -9.3125 4.0625 -9.257812 4.15625 -9.15625 C 4.25 -9.0625 4.296875 -8.898438 4.296875 -8.671875 L 4.296875 -7.203125 C 5.179688 -8.753906 6.289062 -9.53125 7.625 -9.53125 Z M 7.625 -9.53125 "/></g></g></g><g fill="#3dcfb6" fill-opacity="1"><g transform="translate(162.753181, 286.322148)"><g><path d="M 9.84375 -13.21875 C 10.070312 -13.21875 10.234375 -13.164062 10.328125 -13.0625 C 10.429688 -12.96875 10.484375 -12.804688 10.484375 -12.578125 L 10.484375 -2.0625 L 11.359375 -2.0625 C 11.523438 -2.0625 11.648438 -2.035156 11.734375 -1.984375 C 11.816406 -1.929688 11.878906 -1.828125 11.921875 -1.671875 C 11.972656 -1.523438 12 -1.3125 12 -1.03125 C 12 -0.75 11.972656 -0.535156 11.921875 -0.390625 C 11.878906 -0.242188 11.816406 -0.140625 11.734375 -0.078125 C 11.648438 -0.0234375 11.523438 0 11.359375 0 L 9 0 C 8.769531 0 8.609375 -0.046875 8.515625 -0.140625 C 8.421875 -0.242188 8.375 -0.410156 8.375 -0.640625 L 8.375 -1.484375 C 8.019531 -0.941406 7.582031 -0.519531 7.0625 -0.21875 C 6.539062 0.0703125 5.957031 0.21875 5.3125 0.21875 C 4.4375 0.21875 3.671875 0.00390625 3.015625 -0.421875 C 2.359375 -0.847656 1.851562 -1.429688 1.5 -2.171875 C 1.15625 -2.910156 0.984375 -3.738281 0.984375 -4.65625 C 0.984375 -5.5625 1.15625 -6.382812 1.5 -7.125 C 1.851562 -7.863281 2.359375 -8.445312 3.015625 -8.875 C 3.671875 -9.3125 4.4375 -9.53125 5.3125 -9.53125 C 5.84375 -9.53125 6.332031 -9.425781 6.78125 -9.21875 C 7.226562 -9.007812 7.625 -8.71875 7.96875 -8.34375 L 7.96875 -11.140625 L 6.484375 -11.140625 C 6.328125 -11.140625 6.203125 -11.164062 6.109375 -11.21875 C 6.023438 -11.28125 5.957031 -11.382812 5.90625 -11.53125 C 5.863281 -11.675781 5.84375 -11.890625 5.84375 -12.171875 C 5.84375 -12.453125 5.863281 -12.664062 5.90625 -12.8125 C 5.957031 -12.96875 6.023438 -13.070312 6.109375 -13.125 C 6.203125 -13.1875 6.328125 -13.21875 6.484375 -13.21875 Z M 5.71875 -7.234375 C 5.300781 -7.234375 4.9375 -7.128906 4.625 -6.921875 C 4.320312 -6.710938 4.085938 -6.410156 3.921875 -6.015625 C 3.753906 -5.628906 3.671875 -5.175781 3.671875 -4.65625 C 3.671875 -4.132812 3.753906 -3.675781 3.921875 -3.28125 C 4.085938 -2.894531 4.320312 -2.59375 4.625 -2.375 C 4.9375 -2.164062 5.300781 -2.0625 5.71875 -2.0625 C 6.144531 -2.0625 6.53125 -2.160156 6.875 -2.359375 C 7.226562 -2.566406 7.507812 -2.863281 7.71875 -3.25 C 7.925781 -3.644531 8.03125 -4.113281 8.03125 -4.65625 C 8.03125 -5.1875 7.925781 -5.648438 7.71875 -6.046875 C 7.507812 -6.441406 7.226562 -6.738281 6.875 -6.9375 C 6.53125 -7.132812 6.144531 -7.234375 5.71875 -7.234375 Z M 5.71875 -7.234375 "/></g></g></g><g fill="#3dcfb6" fill-opacity="1"><g transform="translate(175.120123, 286.322148)"><g/></g></g><g fill="#3dcfb6" fill-opacity="1"><g transform="translate(187.487066, 286.322148)"><g><path d="M 5.984375 -11.953125 C 7.160156 -11.953125 8.171875 -11.71875 9.015625 -11.25 C 9.859375 -10.789062 10.503906 -10.113281 10.953125 -9.21875 C 11.398438 -8.320312 11.625 -7.242188 11.625 -5.984375 C 11.625 -4.722656 11.398438 -3.644531 10.953125 -2.75 C 10.503906 -1.851562 9.859375 -1.171875 9.015625 -0.703125 C 8.171875 -0.234375 7.160156 0 5.984375 0 L 1.234375 0 C 1.078125 0 0.953125 -0.0234375 0.859375 -0.078125 C 0.773438 -0.128906 0.710938 -0.226562 0.671875 -0.375 C 0.628906 -0.53125 0.609375 -0.75 0.609375 -1.03125 C 0.609375 -1.3125 0.628906 -1.523438 0.671875 -1.671875 C 0.710938 -1.816406 0.773438 -1.914062 0.859375 -1.96875 C 0.953125 -2.03125 1.078125 -2.0625 1.234375 -2.0625 L 2.21875 -2.0625 L 2.21875 -9.890625 L 1.234375 -9.890625 C 1.078125 -9.890625 0.953125 -9.914062 0.859375 -9.96875 C 0.773438 -10.019531 0.710938 -10.117188 0.671875 -10.265625 C 0.628906 -10.421875 0.609375 -10.640625 0.609375 -10.921875 C 0.609375 -11.203125 0.628906 -11.414062 0.671875 -11.5625 C 0.710938 -11.707031 0.773438 -11.804688 0.859375 -11.859375 C 0.953125 -11.921875 1.078125 -11.953125 1.234375 -11.953125 Z M 4.734375 -2.171875 L 5.78125 -2.171875 C 6.820312 -2.171875 7.609375 -2.492188 8.140625 -3.140625 C 8.671875 -3.785156 8.9375 -4.734375 8.9375 -5.984375 C 8.9375 -7.234375 8.671875 -8.175781 8.140625 -8.8125 C 7.609375 -9.457031 6.820312 -9.78125 5.78125 -9.78125 L 4.734375 -9.78125 Z M 4.734375 -2.171875 "/></g></g></g><g fill="#3dcfb6" fill-opacity="1"><g transform="translate(199.854008, 286.322148)"><g><path d="M 6.328125 -9.53125 C 7.347656 -9.53125 8.21875 -9.304688 8.9375 -8.859375 C 9.65625 -8.421875 10.195312 -7.8125 10.5625 -7.03125 C 10.925781 -6.25 11.109375 -5.351562 11.109375 -4.34375 C 11.109375 -4.125 11.054688 -3.960938 10.953125 -3.859375 C 10.859375 -3.765625 10.695312 -3.71875 10.46875 -3.71875 L 4.015625 -3.71875 C 4.140625 -3.1875 4.410156 -2.773438 4.828125 -2.484375 C 5.242188 -2.203125 5.773438 -2.0625 6.421875 -2.0625 C 7.460938 -2.0625 8.59375 -2.25 9.8125 -2.625 C 9.894531 -2.644531 9.972656 -2.65625 10.046875 -2.65625 C 10.191406 -2.65625 10.316406 -2.585938 10.421875 -2.453125 C 10.535156 -2.316406 10.632812 -2.085938 10.71875 -1.765625 C 10.789062 -1.523438 10.828125 -1.316406 10.828125 -1.140625 C 10.828125 -0.960938 10.785156 -0.820312 10.703125 -0.71875 C 10.628906 -0.625 10.503906 -0.550781 10.328125 -0.5 C 9.660156 -0.269531 8.976562 -0.09375 8.28125 0.03125 C 7.582031 0.15625 6.894531 0.21875 6.21875 0.21875 C 5.195312 0.21875 4.316406 0.0078125 3.578125 -0.40625 C 2.847656 -0.820312 2.285156 -1.394531 1.890625 -2.125 C 1.503906 -2.863281 1.3125 -3.707031 1.3125 -4.65625 C 1.3125 -5.59375 1.515625 -6.429688 1.921875 -7.171875 C 2.328125 -7.910156 2.90625 -8.488281 3.65625 -8.90625 C 4.414062 -9.320312 5.304688 -9.53125 6.328125 -9.53125 Z M 6.328125 -7.234375 C 5.097656 -7.234375 4.335938 -6.71875 4.046875 -5.6875 L 8.484375 -5.6875 C 8.367188 -6.175781 8.125 -6.554688 7.75 -6.828125 C 7.375 -7.097656 6.898438 -7.234375 6.328125 -7.234375 Z M 6.328125 -7.234375 "/></g></g></g><g fill="#3dcfb6" fill-opacity="1"><g transform="translate(212.220951, 286.322148)"><g><path d="M 11.328125 -9.3125 C 11.492188 -9.3125 11.617188 -9.28125 11.703125 -9.21875 C 11.785156 -9.164062 11.847656 -9.0625 11.890625 -8.90625 C 11.941406 -8.757812 11.96875 -8.546875 11.96875 -8.265625 C 11.96875 -7.984375 11.941406 -7.769531 11.890625 -7.625 C 11.847656 -7.476562 11.785156 -7.375 11.703125 -7.3125 C 11.617188 -7.257812 11.492188 -7.234375 11.328125 -7.234375 L 10.640625 -7.234375 L 7.6875 -0.4375 C 7.59375 -0.195312 7.429688 -0.03125 7.203125 0.0625 C 6.972656 0.164062 6.625 0.21875 6.15625 0.21875 C 5.6875 0.21875 5.335938 0.164062 5.109375 0.0625 C 4.890625 -0.03125 4.726562 -0.195312 4.625 -0.4375 L 1.703125 -7.234375 L 1.03125 -7.234375 C 0.875 -7.234375 0.75 -7.257812 0.65625 -7.3125 C 0.570312 -7.375 0.507812 -7.476562 0.46875 -7.625 C 0.425781 -7.769531 0.40625 -7.984375 0.40625 -8.265625 C 0.40625 -8.546875 0.425781 -8.757812 0.46875 -8.90625 C 0.507812 -9.0625 0.570312 -9.164062 0.65625 -9.21875 C 0.75 -9.28125 0.875 -9.3125 1.03125 -9.3125 L 5.109375 -9.3125 C 5.265625 -9.3125 5.382812 -9.28125 5.46875 -9.21875 C 5.5625 -9.164062 5.628906 -9.0625 5.671875 -8.90625 C 5.710938 -8.757812 5.734375 -8.546875 5.734375 -8.265625 C 5.734375 -7.984375 5.710938 -7.769531 5.671875 -7.625 C 5.628906 -7.476562 5.5625 -7.375 5.46875 -7.3125 C 5.382812 -7.257812 5.265625 -7.234375 5.109375 -7.234375 L 4.4375 -7.234375 L 6.21875 -2.796875 L 8.015625 -7.234375 L 7.46875 -7.234375 C 7.300781 -7.234375 7.171875 -7.257812 7.078125 -7.3125 C 6.992188 -7.375 6.929688 -7.476562 6.890625 -7.625 C 6.847656 -7.769531 6.828125 -7.984375 6.828125 -8.265625 C 6.828125 -8.546875 6.847656 -8.757812 6.890625 -8.90625 C 6.929688 -9.0625 6.992188 -9.164062 7.078125 -9.21875 C 7.171875 -9.28125 7.300781 -9.3125 7.46875 -9.3125 Z M 11.328125 -9.3125 "/></g></g></g><g fill="#3dcfb6" fill-opacity="1"><g transform="translate(224.587893, 286.322148)"><g><path d="M 6.328125 -9.53125 C 7.347656 -9.53125 8.21875 -9.304688 8.9375 -8.859375 C 9.65625 -8.421875 10.195312 -7.8125 10.5625 -7.03125 C 10.925781 -6.25 11.109375 -5.351562 11.109375 -4.34375 C 11.109375 -4.125 11.054688 -3.960938 10.953125 -3.859375 C 10.859375 -3.765625 10.695312 -3.71875 10.46875 -3.71875 L 4.015625 -3.71875 C 4.140625 -3.1875 4.410156 -2.773438 4.828125 -2.484375 C 5.242188 -2.203125 5.773438 -2.0625 6.421875 -2.0625 C 7.460938 -2.0625 8.59375 -2.25 9.8125 -2.625 C 9.894531 -2.644531 9.972656 -2.65625 10.046875 -2.65625 C 10.191406 -2.65625 10.316406 -2.585938 10.421875 -2.453125 C 10.535156 -2.316406 10.632812 -2.085938 10.71875 -1.765625 C 10.789062 -1.523438 10.828125 -1.316406 10.828125 -1.140625 C 10.828125 -0.960938 10.785156 -0.820312 10.703125 -0.71875 C 10.628906 -0.625 10.503906 -0.550781 10.328125 -0.5 C 9.660156 -0.269531 8.976562 -0.09375 8.28125 0.03125 C 7.582031 0.15625 6.894531 0.21875 6.21875 0.21875 C 5.195312 0.21875 4.316406 0.0078125 3.578125 -0.40625 C 2.847656 -0.820312 2.285156 -1.394531 1.890625 -2.125 C 1.503906 -2.863281 1.3125 -3.707031 1.3125 -4.65625 C 1.3125 -5.59375 1.515625 -6.429688 1.921875 -7.171875 C 2.328125 -7.910156 2.90625 -8.488281 3.65625 -8.90625 C 4.414062 -9.320312 5.304688 -9.53125 6.328125 -9.53125 Z M 6.328125 -7.234375 C 5.097656 -7.234375 4.335938 -6.71875 4.046875 -5.6875 L 8.484375 -5.6875 C 8.367188 -6.175781 8.125 -6.554688 7.75 -6.828125 C 7.375 -7.097656 6.898438 -7.234375 6.328125 -7.234375 Z M 6.328125 -7.234375 "/></g></g></g><g fill="#3dcfb6" fill-opacity="1"><g transform="translate(236.954836, 286.322148)"><g><path d="M 6.84375 -13.21875 C 7.070312 -13.21875 7.234375 -13.164062 7.328125 -13.0625 C 7.429688 -12.96875 7.484375 -12.804688 7.484375 -12.578125 L 7.484375 -2.0625 L 10.3125 -2.0625 C 10.46875 -2.0625 10.585938 -2.03125 10.671875 -1.96875 C 10.765625 -1.914062 10.832031 -1.816406 10.875 -1.671875 C 10.925781 -1.523438 10.953125 -1.3125 10.953125 -1.03125 C 10.953125 -0.75 10.925781 -0.53125 10.875 -0.375 C 10.832031 -0.226562 10.765625 -0.128906 10.671875 -0.078125 C 10.585938 -0.0234375 10.46875 0 10.3125 0 L 2.21875 0 C 2.050781 0 1.925781 -0.0234375 1.84375 -0.078125 C 1.757812 -0.128906 1.691406 -0.226562 1.640625 -0.375 C 1.597656 -0.53125 1.578125 -0.75 1.578125 -1.03125 C 1.578125 -1.3125 1.597656 -1.523438 1.640625 -1.671875 C 1.691406 -1.816406 1.757812 -1.914062 1.84375 -1.96875 C 1.925781 -2.03125 2.050781 -2.0625 2.21875 -2.0625 L 4.96875 -2.0625 L 4.96875 -11.140625 L 2.625 -11.140625 C 2.457031 -11.140625 2.328125 -11.164062 2.234375 -11.21875 C 2.148438 -11.28125 2.085938 -11.382812 2.046875 -11.53125 C 2.003906 -11.675781 1.984375 -11.890625 1.984375 -12.171875 C 1.984375 -12.453125 2.003906 -12.664062 2.046875 -12.8125 C 2.085938 -12.96875 2.148438 -13.070312 2.234375 -13.125 C 2.328125 -13.1875 2.457031 -13.21875 2.625 -13.21875 Z M 6.84375 -13.21875 "/></g></g></g><g fill="#3dcfb6" fill-opacity="1"><g transform="translate(249.321778, 286.322148)"><g><path d="M 6.1875 -9.53125 C 7.207031 -9.53125 8.097656 -9.320312 8.859375 -8.90625 C 9.628906 -8.488281 10.21875 -7.910156 10.625 -7.171875 C 11.039062 -6.429688 11.25 -5.59375 11.25 -4.65625 C 11.25 -3.71875 11.039062 -2.878906 10.625 -2.140625 C 10.21875 -1.398438 9.628906 -0.820312 8.859375 -0.40625 C 8.097656 0.0078125 7.207031 0.21875 6.1875 0.21875 C 5.164062 0.21875 4.269531 0.0078125 3.5 -0.40625 C 2.738281 -0.820312 2.148438 -1.398438 1.734375 -2.140625 C 1.328125 -2.878906 1.125 -3.71875 1.125 -4.65625 C 1.125 -5.59375 1.328125 -6.429688 1.734375 -7.171875 C 2.148438 -7.910156 2.738281 -8.488281 3.5 -8.90625 C 4.269531 -9.320312 5.164062 -9.53125 6.1875 -9.53125 Z M 6.1875 -7.234375 C 5.695312 -7.234375 5.273438 -7.128906 4.921875 -6.921875 C 4.566406 -6.710938 4.289062 -6.410156 4.09375 -6.015625 C 3.90625 -5.628906 3.8125 -5.175781 3.8125 -4.65625 C 3.8125 -4.132812 3.90625 -3.675781 4.09375 -3.28125 C 4.289062 -2.894531 4.566406 -2.59375 4.921875 -2.375 C 5.273438 -2.164062 5.695312 -2.0625 6.1875 -2.0625 C 6.664062 -2.0625 7.082031 -2.164062 7.4375 -2.375 C 7.789062 -2.59375 8.0625 -2.894531 8.25 -3.28125 C 8.445312 -3.675781 8.546875 -4.132812 8.546875 -4.65625 C 8.546875 -5.175781 8.445312 -5.628906 8.25 -6.015625 C 8.0625 -6.410156 7.789062 -6.710938 7.4375 -6.921875 C 7.082031 -7.128906 6.664062 -7.234375 6.1875 -7.234375 Z M 6.1875 -7.234375 "/></g></g></g><g fill="#3dcfb6" fill-opacity="1"><g transform="translate(261.688721, 286.322148)"><g><path d="M 7.046875 -9.53125 C 7.929688 -9.53125 8.703125 -9.3125 9.359375 -8.875 C 10.015625 -8.445312 10.515625 -7.863281 10.859375 -7.125 C 11.210938 -6.382812 11.390625 -5.5625 11.390625 -4.65625 C 11.390625 -3.738281 11.210938 -2.910156 10.859375 -2.171875 C 10.515625 -1.429688 10.015625 -0.847656 9.359375 -0.421875 C 8.703125 0.00390625 7.929688 0.21875 7.046875 0.21875 C 6.523438 0.21875 6.039062 0.117188 5.59375 -0.078125 C 5.144531 -0.285156 4.75 -0.582031 4.40625 -0.96875 L 4.40625 1.84375 L 6.078125 1.84375 C 6.242188 1.84375 6.367188 1.867188 6.453125 1.921875 C 6.546875 1.972656 6.613281 2.070312 6.65625 2.21875 C 6.695312 2.375 6.71875 2.59375 6.71875 2.875 C 6.71875 3.15625 6.695312 3.367188 6.65625 3.515625 C 6.613281 3.660156 6.546875 3.757812 6.453125 3.8125 C 6.367188 3.875 6.242188 3.90625 6.078125 3.90625 L 1 3.90625 C 0.84375 3.90625 0.71875 3.878906 0.625 3.828125 C 0.539062 3.773438 0.476562 3.671875 0.4375 3.515625 C 0.394531 3.367188 0.375 3.15625 0.375 2.875 C 0.375 2.59375 0.394531 2.378906 0.4375 2.234375 C 0.476562 2.085938 0.539062 1.984375 0.625 1.921875 C 0.71875 1.867188 0.84375 1.84375 1 1.84375 L 1.890625 1.84375 L 1.890625 -7.234375 L 1 -7.234375 C 0.84375 -7.234375 0.71875 -7.257812 0.625 -7.3125 C 0.539062 -7.375 0.476562 -7.476562 0.4375 -7.625 C 0.394531 -7.769531 0.375 -7.984375 0.375 -8.265625 C 0.375 -8.546875 0.394531 -8.757812 0.4375 -8.90625 C 0.476562 -9.0625 0.539062 -9.164062 0.625 -9.21875 C 0.71875 -9.28125 0.84375 -9.3125 1 -9.3125 L 3.359375 -9.3125 C 3.585938 -9.3125 3.75 -9.257812 3.84375 -9.15625 C 3.945312 -9.0625 4 -8.898438 4 -8.671875 L 4 -7.828125 C 4.34375 -8.359375 4.773438 -8.773438 5.296875 -9.078125 C 5.828125 -9.378906 6.410156 -9.53125 7.046875 -9.53125 Z M 6.640625 -7.234375 C 6.210938 -7.234375 5.820312 -7.132812 5.46875 -6.9375 C 5.125 -6.738281 4.847656 -6.441406 4.640625 -6.046875 C 4.429688 -5.648438 4.328125 -5.1875 4.328125 -4.65625 C 4.328125 -4.113281 4.429688 -3.644531 4.640625 -3.25 C 4.847656 -2.863281 5.125 -2.566406 5.46875 -2.359375 C 5.820312 -2.160156 6.210938 -2.0625 6.640625 -2.0625 C 7.054688 -2.0625 7.421875 -2.164062 7.734375 -2.375 C 8.046875 -2.59375 8.28125 -2.894531 8.4375 -3.28125 C 8.601562 -3.675781 8.6875 -4.132812 8.6875 -4.65625 C 8.6875 -5.175781 8.601562 -5.628906 8.4375 -6.015625 C 8.28125 -6.410156 8.046875 -6.710938 7.734375 -6.921875 C 7.421875 -7.128906 7.054688 -7.234375 6.640625 -7.234375 Z M 6.640625 -7.234375 "/></g></g></g><g fill="#3dcfb6" fill-opacity="1"><g transform="translate(274.055663, 286.322148)"><g><path d="M 6.328125 -9.53125 C 7.347656 -9.53125 8.21875 -9.304688 8.9375 -8.859375 C 9.65625 -8.421875 10.195312 -7.8125 10.5625 -7.03125 C 10.925781 -6.25 11.109375 -5.351562 11.109375 -4.34375 C 11.109375 -4.125 11.054688 -3.960938 10.953125 -3.859375 C 10.859375 -3.765625 10.695312 -3.71875 10.46875 -3.71875 L 4.015625 -3.71875 C 4.140625 -3.1875 4.410156 -2.773438 4.828125 -2.484375 C 5.242188 -2.203125 5.773438 -2.0625 6.421875 -2.0625 C 7.460938 -2.0625 8.59375 -2.25 9.8125 -2.625 C 9.894531 -2.644531 9.972656 -2.65625 10.046875 -2.65625 C 10.191406 -2.65625 10.316406 -2.585938 10.421875 -2.453125 C 10.535156 -2.316406 10.632812 -2.085938 10.71875 -1.765625 C 10.789062 -1.523438 10.828125 -1.316406 10.828125 -1.140625 C 10.828125 -0.960938 10.785156 -0.820312 10.703125 -0.71875 C 10.628906 -0.625 10.503906 -0.550781 10.328125 -0.5 C 9.660156 -0.269531 8.976562 -0.09375 8.28125 0.03125 C 7.582031 0.15625 6.894531 0.21875 6.21875 0.21875 C 5.195312 0.21875 4.316406 0.0078125 3.578125 -0.40625 C 2.847656 -0.820312 2.285156 -1.394531 1.890625 -2.125 C 1.503906 -2.863281 1.3125 -3.707031 1.3125 -4.65625 C 1.3125 -5.59375 1.515625 -6.429688 1.921875 -7.171875 C 2.328125 -7.910156 2.90625 -8.488281 3.65625 -8.90625 C 4.414062 -9.320312 5.304688 -9.53125 6.328125 -9.53125 Z M 6.328125 -7.234375 C 5.097656 -7.234375 4.335938 -6.71875 4.046875 -5.6875 L 8.484375 -5.6875 C 8.367188 -6.175781 8.125 -6.554688 7.75 -6.828125 C 7.375 -7.097656 6.898438 -7.234375 6.328125 -7.234375 Z M 6.328125 -7.234375 "/></g></g></g><g fill="#3dcfb6" fill-opacity="1"><g transform="translate(286.422606, 286.322148)"><g><path d="M 9.328125 -9.53125 C 9.898438 -9.53125 10.441406 -9.34375 10.953125 -8.96875 C 11.242188 -8.75 11.390625 -8.460938 11.390625 -8.109375 C 11.390625 -7.890625 11.328125 -7.628906 11.203125 -7.328125 C 11.085938 -7.023438 10.953125 -6.796875 10.796875 -6.640625 C 10.648438 -6.492188 10.492188 -6.421875 10.328125 -6.421875 C 10.234375 -6.421875 10.128906 -6.445312 10.015625 -6.5 C 9.640625 -6.707031 9.253906 -6.8125 8.859375 -6.8125 C 8.335938 -6.8125 7.851562 -6.644531 7.40625 -6.3125 C 6.957031 -5.988281 6.59375 -5.535156 6.3125 -4.953125 C 6.039062 -4.378906 5.90625 -3.734375 5.90625 -3.015625 L 5.90625 -2.0625 L 8.796875 -2.0625 C 8.960938 -2.0625 9.085938 -2.03125 9.171875 -1.96875 C 9.265625 -1.914062 9.332031 -1.816406 9.375 -1.671875 C 9.414062 -1.523438 9.4375 -1.3125 9.4375 -1.03125 C 9.4375 -0.75 9.414062 -0.53125 9.375 -0.375 C 9.332031 -0.226562 9.265625 -0.128906 9.171875 -0.078125 C 9.085938 -0.0234375 8.960938 0 8.796875 0 L 1.90625 0 C 1.75 0 1.625 -0.0234375 1.53125 -0.078125 C 1.445312 -0.128906 1.382812 -0.226562 1.34375 -0.375 C 1.300781 -0.53125 1.28125 -0.75 1.28125 -1.03125 C 1.28125 -1.3125 1.300781 -1.523438 1.34375 -1.671875 C 1.382812 -1.816406 1.445312 -1.914062 1.53125 -1.96875 C 1.625 -2.03125 1.75 -2.0625 1.90625 -2.0625 L 3.390625 -2.0625 L 3.390625 -7.234375 L 2.21875 -7.234375 C 2.050781 -7.234375 1.925781 -7.257812 1.84375 -7.3125 C 1.757812 -7.375 1.691406 -7.476562 1.640625 -7.625 C 1.597656 -7.769531 1.578125 -7.984375 1.578125 -8.265625 C 1.578125 -8.546875 1.597656 -8.757812 1.640625 -8.90625 C 1.691406 -9.0625 1.757812 -9.164062 1.84375 -9.21875 C 1.925781 -9.28125 2.050781 -9.3125 2.21875 -9.3125 L 4.96875 -9.3125 C 5.195312 -9.3125 5.359375 -9.257812 5.453125 -9.15625 C 5.554688 -9.0625 5.609375 -8.898438 5.609375 -8.671875 L 5.609375 -6.484375 C 6.109375 -7.460938 6.6875 -8.210938 7.34375 -8.734375 C 8 -9.265625 8.660156 -9.53125 9.328125 -9.53125 Z M 9.328125 -9.53125 "/></g></g></g><g fill="#ff6a00" fill-opacity="0.4"><g transform="translate(41.143343, 261.977342)"><g><path d="M 0.265625 0 L 6.046875 -16.515625 L 9.859375 -16.515625 L 15.609375 0 L 11.671875 0 L 10.3125 -3.875 L 4.484375 -3.875 L 3.125 0 Z M 5.3125 -6.265625 L 9.484375 -6.265625 L 7.421875 -12.203125 L 7.375 -12.203125 Z M 5.3125 -6.265625 "/></g></g></g><g fill="#ff6a00" fill-opacity="0.4"><g transform="translate(57.030602, 261.977342)"><g><path d="M 2.78125 0 L 2.78125 -16.515625 L 6.59375 -16.515625 L 6.59375 -2.703125 L 15.421875 -2.703125 L 15.421875 0 Z M 2.78125 0 "/></g></g></g><g fill="#ff6a00" fill-opacity="0.4"><g transform="translate(72.917862, 261.977342)"><g><path d="M 2.15625 0 L 2.15625 -16.515625 L 14.078125 -16.515625 L 14.078125 -13.984375 L 5.96875 -13.984375 L 5.96875 -9.796875 L 12.8125 -9.796875 L 12.8125 -7.421875 L 5.96875 -7.421875 L 5.96875 -2.53125 L 14.765625 -2.53125 L 14.765625 0 Z M 2.15625 0 "/></g></g></g><g fill="#ff6a00" fill-opacity="0.4"><g transform="translate(88.805121, 261.977342)"><g><path d="M 0.46875 0 L 5.6875 -8.265625 L 0.46875 -16.515625 L 4.984375 -16.515625 L 8.6875 -10.640625 L 12.234375 -16.515625 L 15.421875 -16.515625 L 10.203125 -8.265625 L 15.421875 0 L 10.90625 0 L 7.1875 -5.890625 L 3.65625 0 Z M 0.46875 0 "/></g></g></g><g fill="#ff6a00" fill-opacity="0.4"><g transform="translate(104.692381, 261.977342)"><g><path d="M 0.265625 0 L 6.046875 -16.515625 L 9.859375 -16.515625 L 15.609375 0 L 11.671875 0 L 10.3125 -3.875 L 4.484375 -3.875 L 3.125 0 Z M 5.3125 -6.265625 L 9.484375 -6.265625 L 7.421875 -12.203125 L 7.375 -12.203125 Z M 5.3125 -6.265625 "/></g></g></g><g fill="#ff6a00" fill-opacity="0.4"><g transform="translate(120.57964, 261.977342)"><g><path d="M 1.421875 0 L 1.421875 -16.515625 L 4.84375 -16.515625 L 11.890625 -5.671875 L 11.90625 -5.671875 L 11.90625 -16.515625 L 14.46875 -16.515625 L 14.46875 0 L 11.046875 0 L 4 -10.84375 L 3.96875 -10.84375 L 3.96875 0 Z M 1.421875 0 "/></g></g></g><g fill="#ff6a00" fill-opacity="0.4"><g transform="translate(136.4669, 261.977342)"><g><path d="M 1.109375 0 L 1.109375 -16.515625 L 6.78125 -16.515625 C 9.414062 -16.515625 11.453125 -15.800781 12.890625 -14.375 C 14.335938 -12.945312 15.0625 -10.914062 15.0625 -8.28125 C 15.0625 -5.65625 14.335938 -3.617188 12.890625 -2.171875 C 11.441406 -0.722656 9.40625 0 6.78125 0 Z M 4.921875 -2.53125 L 6.09375 -2.53125 C 7.738281 -2.53125 8.945312 -2.972656 9.71875 -3.859375 C 10.5 -4.753906 10.890625 -6.21875 10.890625 -8.25 C 10.890625 -10.332031 10.507812 -11.804688 9.75 -12.671875 C 8.988281 -13.546875 7.769531 -13.984375 6.09375 -13.984375 L 4.921875 -13.984375 Z M 4.921875 -2.53125 "/></g></g></g><g fill="#ff6a00" fill-opacity="0.4"><g transform="translate(152.354159, 261.977342)"><g><path d="M 2.15625 0 L 2.15625 -16.515625 L 14.078125 -16.515625 L 14.078125 -13.984375 L 5.96875 -13.984375 L 5.96875 -9.796875 L 12.8125 -9.796875 L 12.8125 -7.421875 L 5.96875 -7.421875 L 5.96875 -2.53125 L 14.765625 -2.53125 L 14.765625 0 Z M 2.15625 0 "/></g></g></g><g fill="#ff6a00" fill-opacity="0.4"><g transform="translate(168.241418, 261.977342)"><g><path d="M 1.765625 0 L 1.765625 -16.515625 L 9 -16.515625 C 10.6875 -16.515625 11.992188 -16.148438 12.921875 -15.421875 C 13.859375 -14.691406 14.328125 -13.664062 14.328125 -12.34375 C 14.328125 -10.21875 13.164062 -8.625 10.84375 -7.5625 L 15.71875 0 L 11.1875 0 L 6.96875 -6.5625 L 5.578125 -6.5625 L 5.578125 0 Z M 5.578125 -8.953125 L 6.28125 -8.953125 C 7.476562 -8.953125 8.453125 -9.234375 9.203125 -9.796875 C 9.953125 -10.367188 10.328125 -11.113281 10.328125 -12.03125 C 10.328125 -12.695312 10.050781 -13.21875 9.5 -13.59375 C 9.144531 -13.851562 8.242188 -13.984375 6.796875 -13.984375 L 5.578125 -13.984375 Z M 5.578125 -8.953125 "/></g></g></g><g fill="#ff6a00" fill-opacity="0.4"><g transform="translate(184.128678, 261.977342)"><g/></g></g><g fill="#ff6a00" fill-opacity="0.4"><g transform="translate(200.015937, 261.977342)"><g><path d="M 0.265625 0 L 6.046875 -16.515625 L 9.859375 -16.515625 L 15.609375 0 L 11.671875 0 L 10.3125 -3.875 L 4.484375 -3.875 L 3.125 0 Z M 5.3125 -6.265625 L 9.484375 -6.265625 L 7.421875 -12.203125 L 7.375 -12.203125 Z M 5.3125 -6.265625 "/></g></g></g><g fill="#ff6a00" fill-opacity="0.4"><g transform="translate(215.903197, 261.977342)"><g><path d="M 2.78125 0 L 2.78125 -16.515625 L 6.59375 -16.515625 L 6.59375 -2.703125 L 15.421875 -2.703125 L 15.421875 0 Z M 2.78125 0 "/></g></g></g><g fill="#ff6a00" fill-opacity="0.4"><g transform="translate(231.790456, 261.977342)"><g><path d="M 1.765625 0 L 1.765625 -16.515625 L 8.5 -16.515625 C 12.3125 -16.515625 14.21875 -15.253906 14.21875 -12.734375 C 14.21875 -11.097656 13.09375 -9.8125 10.84375 -8.875 C 13.644531 -7.863281 15.046875 -6.304688 15.046875 -4.203125 C 15.046875 -2.890625 14.519531 -1.859375 13.46875 -1.109375 C 12.425781 -0.367188 10.988281 0 9.15625 0 Z M 5.578125 -9.828125 L 6.515625 -9.828125 C 7.679688 -9.828125 8.597656 -10.046875 9.265625 -10.484375 C 9.929688 -10.921875 10.265625 -11.515625 10.265625 -12.265625 C 10.265625 -12.910156 10.03125 -13.359375 9.5625 -13.609375 C 9.09375 -13.859375 8.253906 -13.984375 7.046875 -13.984375 L 5.578125 -13.984375 Z M 5.578125 -2.53125 L 7.640625 -2.53125 C 9.828125 -2.53125 10.921875 -3.265625 10.921875 -4.734375 C 10.921875 -5.578125 10.53125 -6.238281 9.75 -6.71875 C 8.96875 -7.195312 7.898438 -7.4375 6.546875 -7.4375 L 5.578125 -7.4375 Z M 5.578125 -2.53125 "/></g></g></g><g fill="#ff6a00" fill-opacity="0.4"><g transform="translate(247.677716, 261.977342)"><g><path d="M 1.765625 0 L 1.765625 -16.515625 L 9 -16.515625 C 10.6875 -16.515625 11.992188 -16.148438 12.921875 -15.421875 C 13.859375 -14.691406 14.328125 -13.664062 14.328125 -12.34375 C 14.328125 -10.21875 13.164062 -8.625 10.84375 -7.5625 L 15.71875 0 L 11.1875 0 L 6.96875 -6.5625 L 5.578125 -6.5625 L 5.578125 0 Z M 5.578125 -8.953125 L 6.28125 -8.953125 C 7.476562 -8.953125 8.453125 -9.234375 9.203125 -9.796875 C 9.953125 -10.367188 10.328125 -11.113281 10.328125 -12.03125 C 10.328125 -12.695312 10.050781 -13.21875 9.5 -13.59375 C 9.144531 -13.851562 8.242188 -13.984375 6.796875 -13.984375 L 5.578125 -13.984375 Z M 5.578125 -8.953125 "/></g></g></g><g fill="#ff6a00" fill-opacity="0.4"><g transform="translate(263.564975, 261.977342)"><g><path d="M 2.15625 0 L 2.15625 -16.515625 L 14.078125 -16.515625 L 14.078125 -13.984375 L 5.96875 -13.984375 L 5.96875 -9.796875 L 12.8125 -9.796875 L 12.8125 -7.421875 L 5.96875 -7.421875 L 5.96875 -2.53125 L 14.765625 -2.53125 L 14.765625 0 Z M 2.15625 0 "/></g></g></g><g fill="#ff6a00" fill-opacity="0.4"><g transform="translate(279.452235, 261.977342)"><g><path d="M 15.25 -0.46875 C 13.332031 0.113281 11.441406 0.40625 9.578125 0.40625 C 6.878906 0.40625 4.707031 -0.382812 3.0625 -1.96875 C 1.414062 -3.5625 0.59375 -5.660156 0.59375 -8.265625 C 0.59375 -10.679688 1.320312 -12.679688 2.78125 -14.265625 C 3.644531 -15.222656 4.65625 -15.90625 5.8125 -16.3125 C 6.96875 -16.71875 8.453125 -16.921875 10.265625 -16.921875 C 12.097656 -16.921875 13.757812 -16.757812 15.25 -16.4375 L 15.25 -13.484375 C 13.3125 -14.085938 11.6875 -14.390625 10.375 -14.390625 C 8.65625 -14.390625 7.28125 -13.828125 6.25 -12.703125 C 5.226562 -11.585938 4.71875 -10.085938 4.71875 -8.203125 C 4.71875 -6.472656 5.253906 -5.054688 6.328125 -3.953125 C 7.398438 -2.859375 8.773438 -2.3125 10.453125 -2.3125 C 11.890625 -2.3125 13.488281 -2.640625 15.25 -3.296875 Z M 15.25 -0.46875 "/></g></g></g><g fill="#ff6a00" fill-opacity="0.4"><g transform="translate(295.339494, 261.977342)"><g><path d="M 1.359375 0 L 1.359375 -16.515625 L 5.171875 -16.515625 L 5.171875 -9.71875 L 10.734375 -9.71875 L 10.734375 -16.515625 L 14.546875 -16.515625 L 14.546875 0 L 10.734375 0 L 10.734375 -7.34375 L 5.171875 -7.34375 L 5.171875 0 Z M 1.359375 0 "/></g></g></g><g fill="#ff6a00" fill-opacity="0.4"><g transform="translate(311.226754, 261.977342)"><g><path d="M 6.046875 0 L 6.046875 -13.984375 L 0.328125 -13.984375 L 0.328125 -16.515625 L 15.5625 -16.515625 L 15.5625 -13.984375 L 9.859375 -13.984375 L 9.859375 0 Z M 6.046875 0 "/></g></g></g><g fill="#3dcfb6" fill-opacity="1"><g transform="translate(40.910158, 261.744153)"><g><path d="M 0.265625 0 L 6.046875 -16.515625 L 9.859375 -16.515625 L 15.609375 0 L 11.671875 0 L 10.3125 -3.875 L 4.484375 -3.875 L 3.125 0 Z M 5.3125 -6.265625 L 9.484375 -6.265625 L 7.421875 -12.203125 L 7.375 -12.203125 Z M 5.3125 -6.265625 "/></g></g></g><g fill="#3dcfb6" fill-opacity="1"><g transform="translate(56.797418, 261.744153)"><g><path d="M 2.78125 0 L 2.78125 -16.515625 L 6.59375 -16.515625 L 6.59375 -2.703125 L 15.421875 -2.703125 L 15.421875 0 Z M 2.78125 0 "/></g></g></g><g fill="#3dcfb6" fill-opacity="1"><g transform="translate(72.684677, 261.744153)"><g><path d="M 2.15625 0 L 2.15625 -16.515625 L 14.078125 -16.515625 L 14.078125 -13.984375 L 5.96875 -13.984375 L 5.96875 -9.796875 L 12.8125 -9.796875 L 12.8125 -7.421875 L 5.96875 -7.421875 L 5.96875 -2.53125 L 14.765625 -2.53125 L 14.765625 0 Z M 2.15625 0 "/></g></g></g><g fill="#3dcfb6" fill-opacity="1"><g transform="translate(88.571936, 261.744153)"><g><path d="M 0.46875 0 L 5.6875 -8.265625 L 0.46875 -16.515625 L 4.984375 -16.515625 L 8.6875 -10.640625 L 12.234375 -16.515625 L 15.421875 -16.515625 L 10.203125 -8.265625 L 15.421875 0 L 10.90625 0 L 7.1875 -5.890625 L 3.65625 0 Z M 0.46875 0 "/></g></g></g><g fill="#3dcfb6" fill-opacity="1"><g transform="translate(104.459196, 261.744153)"><g><path d="M 0.265625 0 L 6.046875 -16.515625 L 9.859375 -16.515625 L 15.609375 0 L 11.671875 0 L 10.3125 -3.875 L 4.484375 -3.875 L 3.125 0 Z M 5.3125 -6.265625 L 9.484375 -6.265625 L 7.421875 -12.203125 L 7.375 -12.203125 Z M 5.3125 -6.265625 "/></g></g></g><g fill="#3dcfb6" fill-opacity="1"><g transform="translate(120.346455, 261.744153)"><g><path d="M 1.421875 0 L 1.421875 -16.515625 L 4.84375 -16.515625 L 11.890625 -5.671875 L 11.90625 -5.671875 L 11.90625 -16.515625 L 14.46875 -16.515625 L 14.46875 0 L 11.046875 0 L 4 -10.84375 L 3.96875 -10.84375 L 3.96875 0 Z M 1.421875 0 "/></g></g></g><g fill="#3dcfb6" fill-opacity="1"><g transform="translate(136.233715, 261.744153)"><g><path d="M 1.109375 0 L 1.109375 -16.515625 L 6.78125 -16.515625 C 9.414062 -16.515625 11.453125 -15.800781 12.890625 -14.375 C 14.335938 -12.945312 15.0625 -10.914062 15.0625 -8.28125 C 15.0625 -5.65625 14.335938 -3.617188 12.890625 -2.171875 C 11.441406 -0.722656 9.40625 0 6.78125 0 Z M 4.921875 -2.53125 L 6.09375 -2.53125 C 7.738281 -2.53125 8.945312 -2.972656 9.71875 -3.859375 C 10.5 -4.753906 10.890625 -6.21875 10.890625 -8.25 C 10.890625 -10.332031 10.507812 -11.804688 9.75 -12.671875 C 8.988281 -13.546875 7.769531 -13.984375 6.09375 -13.984375 L 4.921875 -13.984375 Z M 4.921875 -2.53125 "/></g></g></g><g fill="#3dcfb6" fill-opacity="1"><g transform="translate(152.120974, 261.744153)"><g><path d="M 2.15625 0 L 2.15625 -16.515625 L 14.078125 -16.515625 L 14.078125 -13.984375 L 5.96875 -13.984375 L 5.96875 -9.796875 L 12.8125 -9.796875 L 12.8125 -7.421875 L 5.96875 -7.421875 L 5.96875 -2.53125 L 14.765625 -2.53125 L 14.765625 0 Z M 2.15625 0 "/></g></g></g><g fill="#3dcfb6" fill-opacity="1"><g transform="translate(168.008234, 261.744153)"><g><path d="M 1.765625 0 L 1.765625 -16.515625 L 9 -16.515625 C 10.6875 -16.515625 11.992188 -16.148438 12.921875 -15.421875 C 13.859375 -14.691406 14.328125 -13.664062 14.328125 -12.34375 C 14.328125 -10.21875 13.164062 -8.625 10.84375 -7.5625 L 15.71875 0 L 11.1875 0 L 6.96875 -6.5625 L 5.578125 -6.5625 L 5.578125 0 Z M 5.578125 -8.953125 L 6.28125 -8.953125 C 7.476562 -8.953125 8.453125 -9.234375 9.203125 -9.796875 C 9.953125 -10.367188 10.328125 -11.113281 10.328125 -12.03125 C 10.328125 -12.695312 10.050781 -13.21875 9.5 -13.59375 C 9.144531 -13.851562 8.242188 -13.984375 6.796875 -13.984375 L 5.578125 -13.984375 Z M 5.578125 -8.953125 "/></g></g></g><g fill="#3dcfb6" fill-opacity="1"><g transform="translate(183.895493, 261.744153)"><g/></g></g><g fill="#3dcfb6" fill-opacity="1"><g transform="translate(199.782753, 261.744153)"><g><path d="M 0.265625 0 L 6.046875 -16.515625 L 9.859375 -16.515625 L 15.609375 0 L 11.671875 0 L 10.3125 -3.875 L 4.484375 -3.875 L 3.125 0 Z M 5.3125 -6.265625 L 9.484375 -6.265625 L 7.421875 -12.203125 L 7.375 -12.203125 Z M 5.3125 -6.265625 "/></g></g></g><g fill="#3dcfb6" fill-opacity="1"><g transform="translate(215.670012, 261.744153)"><g><path d="M 2.78125 0 L 2.78125 -16.515625 L 6.59375 -16.515625 L 6.59375 -2.703125 L 15.421875 -2.703125 L 15.421875 0 Z M 2.78125 0 "/></g></g></g><g fill="#3dcfb6" fill-opacity="1"><g transform="translate(231.557272, 261.744153)"><g><path d="M 1.765625 0 L 1.765625 -16.515625 L 8.5 -16.515625 C 12.3125 -16.515625 14.21875 -15.253906 14.21875 -12.734375 C 14.21875 -11.097656 13.09375 -9.8125 10.84375 -8.875 C 13.644531 -7.863281 15.046875 -6.304688 15.046875 -4.203125 C 15.046875 -2.890625 14.519531 -1.859375 13.46875 -1.109375 C 12.425781 -0.367188 10.988281 0 9.15625 0 Z M 5.578125 -9.828125 L 6.515625 -9.828125 C 7.679688 -9.828125 8.597656 -10.046875 9.265625 -10.484375 C 9.929688 -10.921875 10.265625 -11.515625 10.265625 -12.265625 C 10.265625 -12.910156 10.03125 -13.359375 9.5625 -13.609375 C 9.09375 -13.859375 8.253906 -13.984375 7.046875 -13.984375 L 5.578125 -13.984375 Z M 5.578125 -2.53125 L 7.640625 -2.53125 C 9.828125 -2.53125 10.921875 -3.265625 10.921875 -4.734375 C 10.921875 -5.578125 10.53125 -6.238281 9.75 -6.71875 C 8.96875 -7.195312 7.898438 -7.4375 6.546875 -7.4375 L 5.578125 -7.4375 Z M 5.578125 -2.53125 "/></g></g></g><g fill="#3dcfb6" fill-opacity="1"><g transform="translate(247.444531, 261.744153)"><g><path d="M 1.765625 0 L 1.765625 -16.515625 L 9 -16.515625 C 10.6875 -16.515625 11.992188 -16.148438 12.921875 -15.421875 C 13.859375 -14.691406 14.328125 -13.664062 14.328125 -12.34375 C 14.328125 -10.21875 13.164062 -8.625 10.84375 -7.5625 L 15.71875 0 L 11.1875 0 L 6.96875 -6.5625 L 5.578125 -6.5625 L 5.578125 0 Z M 5.578125 -8.953125 L 6.28125 -8.953125 C 7.476562 -8.953125 8.453125 -9.234375 9.203125 -9.796875 C 9.953125 -10.367188 10.328125 -11.113281 10.328125 -12.03125 C 10.328125 -12.695312 10.050781 -13.21875 9.5 -13.59375 C 9.144531 -13.851562 8.242188 -13.984375 6.796875 -13.984375 L 5.578125 -13.984375 Z M 5.578125 -8.953125 "/></g></g></g><g fill="#3dcfb6" fill-opacity="1"><g transform="translate(263.33179, 261.744153)"><g><path d="M 2.15625 0 L 2.15625 -16.515625 L 14.078125 -16.515625 L 14.078125 -13.984375 L 5.96875 -13.984375 L 5.96875 -9.796875 L 12.8125 -9.796875 L 12.8125 -7.421875 L 5.96875 -7.421875 L 5.96875 -2.53125 L 14.765625 -2.53125 L 14.765625 0 Z M 2.15625 0 "/></g></g></g><g fill="#3dcfb6" fill-opacity="1"><g transform="translate(279.21905, 261.744153)"><g><path d="M 15.25 -0.46875 C 13.332031 0.113281 11.441406 0.40625 9.578125 0.40625 C 6.878906 0.40625 4.707031 -0.382812 3.0625 -1.96875 C 1.414062 -3.5625 0.59375 -5.660156 0.59375 -8.265625 C 0.59375 -10.679688 1.320312 -12.679688 2.78125 -14.265625 C 3.644531 -15.222656 4.65625 -15.90625 5.8125 -16.3125 C 6.96875 -16.71875 8.453125 -16.921875 10.265625 -16.921875 C 12.097656 -16.921875 13.757812 -16.757812 15.25 -16.4375 L 15.25 -13.484375 C 13.3125 -14.085938 11.6875 -14.390625 10.375 -14.390625 C 8.65625 -14.390625 7.28125 -13.828125 6.25 -12.703125 C 5.226562 -11.585938 4.71875 -10.085938 4.71875 -8.203125 C 4.71875 -6.472656 5.253906 -5.054688 6.328125 -3.953125 C 7.398438 -2.859375 8.773438 -2.3125 10.453125 -2.3125 C 11.890625 -2.3125 13.488281 -2.640625 15.25 -3.296875 Z M 15.25 -0.46875 "/></g></g></g><g fill="#3dcfb6" fill-opacity="1"><g transform="translate(295.106309, 261.744153)"><g><path d="M 1.359375 0 L 1.359375 -16.515625 L 5.171875 -16.515625 L 5.171875 -9.71875 L 10.734375 -9.71875 L 10.734375 -16.515625 L 14.546875 -16.515625 L 14.546875 0 L 10.734375 0 L 10.734375 -7.34375 L 5.171875 -7.34375 L 5.171875 0 Z M 1.359375 0 "/></g></g></g><g fill="#3dcfb6" fill-opacity="1"><g transform="translate(310.993569, 261.744153)"><g><path d="M 6.046875 0 L 6.046875 -13.984375 L 0.328125 -13.984375 L 0.328125 -16.515625 L 15.5625 -16.515625 L 15.5625 -13.984375 L 9.859375 -13.984375 L 9.859375 0 Z M 6.046875 0 "/></g></g></g><g fill="#ff6a00" fill-opacity="0.4"><g transform="translate(61.171234, 188.22053)"><g><path d="M 8.140625 -41.96875 L 56.09375 -64.015625 L 56.09375 -51.5 L 25.046875 -37.796875 C 24.046875 -37.367188 23.082031 -37.046875 22.15625 -36.828125 C 21.226562 -36.617188 20.375 -36.441406 19.59375 -36.296875 C 18.664062 -36.148438 17.773438 -36.039062 16.921875 -35.96875 L 16.921875 -35.015625 C 17.773438 -34.941406 18.664062 -34.832031 19.59375 -34.6875 C 20.375 -34.539062 21.226562 -34.34375 22.15625 -34.09375 C 23.082031 -33.84375 24.046875 -33.503906 25.046875 -33.078125 L 56.09375 -19.171875 L 56.09375 -6.640625 L 8.140625 -28.578125 Z M 8.140625 -41.96875 "/></g></g></g><g fill="#3dcfb6" fill-opacity="1"><g transform="translate(60.224912, 187.274213)"><g><path d="M 8.140625 -41.96875 L 56.09375 -64.015625 L 56.09375 -51.5 L 25.046875 -37.796875 C 24.046875 -37.367188 23.082031 -37.046875 22.15625 -36.828125 C 21.226562 -36.617188 20.375 -36.441406 19.59375 -36.296875 C 18.664062 -36.148438 17.773438 -36.039062 16.921875 -35.96875 L 16.921875 -35.015625 C 17.773438 -34.941406 18.664062 -34.832031 19.59375 -34.6875 C 20.375 -34.539062 21.226562 -34.34375 22.15625 -34.09375 C 23.082031 -33.84375 24.046875 -33.503906 25.046875 -33.078125 L 56.09375 -19.171875 L 56.09375 -6.640625 L 8.140625 -28.578125 Z M 8.140625 -41.96875 "/></g></g></g><g fill="#ff6a00" fill-opacity="0.4"><g transform="translate(252.825837, 188.22053)"><g><path d="M 8.140625 -19.0625 L 39.1875 -32.875 C 40.1875 -33.300781 41.164062 -33.640625 42.125 -33.890625 C 43.09375 -34.140625 43.96875 -34.332031 44.75 -34.46875 C 45.601562 -34.539062 46.460938 -34.613281 47.328125 -34.6875 L 47.328125 -35.546875 C 46.460938 -35.617188 45.601562 -35.757812 44.75 -35.96875 C 43.96875 -36.113281 43.09375 -36.3125 42.125 -36.5625 C 41.164062 -36.8125 40.1875 -37.148438 39.1875 -37.578125 L 8.140625 -51.390625 L 8.140625 -63.921875 L 56.09375 -41.96875 L 56.09375 -28.578125 L 8.140625 -6.640625 Z M 8.140625 -19.0625 "/></g></g></g><g fill="#3dcfb6" fill-opacity="1"><g transform="translate(251.87952, 187.274213)"><g><path d="M 8.140625 -19.0625 L 39.1875 -32.875 C 40.1875 -33.300781 41.164062 -33.640625 42.125 -33.890625 C 43.09375 -34.140625 43.96875 -34.332031 44.75 -34.46875 C 45.601562 -34.539062 46.460938 -34.613281 47.328125 -34.6875 L 47.328125 -35.546875 C 46.460938 -35.617188 45.601562 -35.757812 44.75 -35.96875 C 43.96875 -36.113281 43.09375 -36.3125 42.125 -36.5625 C 41.164062 -36.8125 40.1875 -37.148438 39.1875 -37.578125 L 8.140625 -51.390625 L 8.140625 -63.921875 L 56.09375 -41.96875 L 56.09375 -28.578125 L 8.140625 -6.640625 Z M 8.140625 -19.0625 "/></g></g></g><g clip-path="url(#5c899a5694)"><path fill="#1b554b" d="M 242.070312 211.070312 L 232.984375 211.070312 L 232.984375 174.226562 C 232.984375 167.410156 227.453125 161.976562 220.734375 161.976562 L 197.71875 161.976562 L 197.71875 144.394531 C 194.65625 145.382812 191.300781 145.976562 187.84375 145.976562 C 184.089844 145.976562 180.53125 145.285156 177.273438 144.097656 L 177.273438 161.976562 L 154.257812 161.976562 C 147.539062 161.976562 142.007812 167.410156 142.007812 174.226562 L 142.007812 211.070312 L 132.921875 211.070312 C 131.835938 211.070312 130.945312 210.179688 130.945312 209.09375 L 130.945312 180.449219 C 130.945312 163.460938 144.675781 149.730469 161.566406 149.730469 L 173.320312 149.730469 L 173.320312 142.320312 C 163.839844 137.085938 157.515625 127.109375 157.515625 115.652344 L 157.515625 100.933594 C 157.515625 100.835938 157.515625 100.734375 157.515625 100.734375 C 158.207031 90.957031 151.789062 86.3125 151.589844 86.117188 C 151.097656 85.820312 150.703125 85.226562 150.703125 84.535156 C 150.703125 83.941406 150.996094 83.351562 151.492188 82.957031 C 167.199219 70.609375 180.433594 64.386719 190.804688 64.386719 C 198.804688 64.386719 202.855469 68.238281 204.4375 70.214844 C 204.832031 70.214844 205.226562 70.214844 205.621094 70.214844 C 219.453125 70.214844 223.796875 84.140625 224.09375 91.550781 C 224.6875 98.859375 223.304688 104.390625 220.144531 107.847656 C 219.550781 108.539062 218.859375 109.03125 218.265625 109.527344 L 218.265625 115.652344 C 218.265625 127.40625 211.550781 137.679688 201.671875 142.714844 L 201.671875 149.730469 L 213.328125 149.730469 C 230.21875 149.730469 244.046875 163.460938 244.046875 180.449219 L 244.046875 209.09375 C 244.046875 210.179688 243.15625 211.070312 242.070312 211.070312 Z M 187.84375 134.714844 C 182.902344 134.714844 178.953125 130.765625 178.953125 125.824219 C 178.953125 124.738281 179.839844 123.847656 180.929688 123.847656 C 182.015625 123.847656 182.902344 124.738281 182.902344 125.824219 C 182.902344 128.589844 185.078125 130.765625 187.84375 130.765625 C 190.609375 130.765625 192.78125 128.589844 192.78125 125.824219 C 192.78125 124.738281 193.671875 123.847656 194.757812 123.847656 C 195.84375 123.847656 196.730469 124.738281 196.730469 125.824219 C 196.730469 130.765625 192.78125 134.714844 187.84375 134.714844 Z M 161.46875 102.710938 L 161.46875 115.652344 C 161.46875 125.921875 167.296875 134.8125 175.890625 139.160156 C 176.085938 139.257812 176.1875 139.359375 176.285156 139.457031 C 179.839844 141.136719 183.695312 142.023438 187.84375 142.023438 C 191.695312 142.023438 195.347656 141.234375 198.707031 139.753906 C 198.804688 139.652344 198.90625 139.554688 199.101562 139.554688 C 208.089844 135.308594 214.316406 126.21875 214.316406 115.652344 L 214.316406 111.207031 C 213.425781 111.304688 212.636719 111.402344 212.339844 111.402344 C 212.140625 111.402344 211.945312 111.402344 211.945312 111.402344 C 211.449219 111.304688 210.957031 111.105469 210.5625 110.613281 C 210.265625 110.21875 210.066406 109.625 210.167969 109.132812 C 211.648438 97.773438 207.5 93.425781 205.128906 91.84375 C 202.066406 97.871094 196.039062 101.820312 189.519531 101.820312 C 187.84375 101.820312 186.164062 101.527344 184.484375 101.03125 C 182.3125 100.242188 179.742188 99.945312 176.976562 99.945312 C 171.542969 99.945312 166.210938 101.328125 163.050781 102.21875 C 162.359375 102.414062 161.863281 102.613281 161.46875 102.710938 Z M 161.46875 102.710938 " fill-opacity="1" fill-rule="evenodd"/></g><path fill="#3dcfb6" d="M 145.269531 215.515625 L 145.269531 174.226562 C 145.269531 169.289062 149.320312 165.238281 154.257812 165.238281 L 220.734375 165.238281 C 225.675781 165.238281 229.625 169.289062 229.625 174.226562 L 229.625 215.515625 Z M 187.445312 204.648438 C 179.542969 204.648438 173.125 198.230469 173.125 190.425781 C 173.125 182.523438 179.542969 176.101562 187.445312 176.101562 C 195.347656 176.101562 201.769531 182.523438 201.769531 190.425781 C 201.769531 198.230469 195.347656 204.648438 187.445312 204.648438 Z M 187.445312 180.054688 C 181.71875 180.054688 177.074219 184.695312 177.074219 190.425781 C 177.074219 196.054688 181.71875 200.699219 187.445312 200.699219 C 193.175781 200.699219 197.820312 196.054688 197.820312 190.425781 C 197.820312 184.695312 193.175781 180.054688 187.445312 180.054688 Z M 187.445312 180.054688 " fill-opacity="1" fill-rule="evenodd"/><path fill="#3dcfb6" d="M 234.664062 232.902344 L 140.328125 232.902344 C 139.242188 232.902344 138.355469 232.011719 138.355469 230.925781 L 138.355469 220.75 C 138.355469 219.664062 139.242188 218.773438 140.328125 218.773438 L 234.664062 218.773438 C 235.75 218.773438 236.640625 219.664062 236.640625 220.75 L 236.640625 230.925781 C 236.640625 232.011719 235.75 232.902344 234.664062 232.902344 Z M 234.664062 232.902344 " fill-opacity="1" fill-rule="evenodd"/></svg>