<svg width="196" height="135" viewBox="0 0 196 135" fill="none" xmlns="http://www.w3.org/2000/svg">
<g filter="url(#filter0_d_3296_5248)">
<rect x="4" y="0.332031" width="188" height="112" rx="16" fill="white"/>
<path d="M53.8226 125.177L44 112.332H70L60.1774 125.177C58.5764 127.271 55.4236 127.271 53.8226 125.177Z" fill="white"/>
</g>
<path d="M44.2566 23.332V13.284H45.5046V23.332H44.2566ZM57.9779 23.332V18.836C57.9779 18.1054 57.8019 17.5507 57.4499 17.172C57.1032 16.788 56.6285 16.596 56.0259 16.596C55.5672 16.596 55.1699 16.7214 54.8339 16.972C54.4979 17.2227 54.2392 17.5827 54.0579 18.052C53.8765 18.516 53.7859 19.0707 53.7859 19.716H53.3059C53.3059 18.8254 53.4232 18.0654 53.6579 17.436C53.8925 16.8067 54.2339 16.3267 54.6819 15.996C55.1352 15.66 55.6845 15.492 56.3299 15.492C56.9325 15.492 57.4472 15.628 57.8739 15.9C58.3059 16.1667 58.6365 16.5507 58.8659 17.052C59.0952 17.5534 59.2099 18.148 59.2099 18.836V23.332H57.9779ZM52.5379 23.332V12.42H53.7859V23.332H52.5379ZM66.9301 23.332L66.7701 21.652V18.372C66.7701 17.684 66.6235 17.1907 66.3301 16.892C66.0368 16.588 65.5968 16.436 65.0101 16.436C64.6795 16.436 64.3781 16.484 64.1061 16.58C63.8395 16.676 63.6261 16.8254 63.4661 17.028C63.3115 17.2254 63.2341 17.4814 63.2341 17.796H61.8421C61.8421 17.2414 61.9781 16.796 62.2501 16.46C62.5221 16.1187 62.8955 15.8734 63.3701 15.724C63.8501 15.5694 64.3968 15.492 65.0101 15.492C65.5968 15.492 66.1168 15.5907 66.5701 15.788C67.0235 15.9854 67.3781 16.3 67.6341 16.732C67.8901 17.1587 68.0181 17.716 68.0181 18.404V23.332H66.9301ZM64.3221 23.524C63.6928 23.524 63.1728 23.412 62.7621 23.188C62.3515 22.964 62.0448 22.6734 61.8421 22.316C61.6395 21.9587 61.5381 21.5827 61.5381 21.188C61.5381 20.6707 61.6661 20.2494 61.9221 19.924C62.1835 19.5987 62.5381 19.3614 62.9861 19.212C63.4341 19.0574 63.9381 18.98 64.4981 18.98C64.8981 18.98 65.2981 19.02 65.6981 19.1C66.1035 19.18 66.4981 19.2894 66.8821 19.428V20.212C66.5621 20.084 66.1995 19.9827 65.7941 19.908C65.3941 19.8334 65.0261 19.796 64.6901 19.796C64.1781 19.796 63.7461 19.9027 63.3941 20.116C63.0421 20.324 62.8661 20.6814 62.8661 21.188C62.8661 21.5614 62.9995 21.8814 63.2661 22.148C63.5381 22.4147 63.9701 22.548 64.5621 22.548C64.9781 22.548 65.3515 22.452 65.6821 22.26C66.0181 22.0627 66.2821 21.8174 66.4741 21.524C66.6715 21.2307 66.7701 20.9374 66.7701 20.644H67.0741C67.0741 21.156 66.9621 21.6307 66.7381 22.068C66.5195 22.5054 66.2048 22.8574 65.7941 23.124C65.3835 23.3907 64.8928 23.524 64.3221 23.524ZM69.6786 15.684H71.1026L73.5026 22.26H73.3266L75.7266 15.684H77.1506L74.0946 23.332H72.7346L69.6786 15.684ZM81.7095 23.524C81.0482 23.524 80.4562 23.356 79.9335 23.02C79.4162 22.6787 79.0055 22.2067 78.7015 21.604C78.4028 21.0014 78.2535 20.308 78.2535 19.524C78.2535 18.6867 78.4028 17.9667 78.7015 17.364C79.0002 16.7614 79.4082 16.3 79.9255 15.98C80.4482 15.6547 81.0428 15.492 81.7095 15.492C82.2908 15.492 82.7868 15.6094 83.1975 15.844C83.6082 16.0787 83.9388 16.396 84.1895 16.796C84.4402 17.196 84.6135 17.6494 84.7095 18.156C84.8108 18.6574 84.8402 19.1774 84.7975 19.716H79.2615V18.948H83.9735L83.6055 19.188C83.6215 18.8734 83.6028 18.5587 83.5495 18.244C83.5015 17.9294 83.4082 17.6414 83.2695 17.38C83.1308 17.1134 82.9362 16.9 82.6855 16.74C82.4348 16.58 82.1148 16.5 81.7255 16.5C81.2348 16.5 80.8242 16.6254 80.4935 16.876C80.1628 17.1267 79.9148 17.4574 79.7495 17.868C79.5842 18.2734 79.5015 18.7134 79.5015 19.188V19.7C79.5015 20.2334 79.5815 20.7107 79.7415 21.132C79.9068 21.5534 80.1522 21.8867 80.4775 22.132C80.8028 22.3774 81.2135 22.5 81.7095 22.5C82.2055 22.5 82.6135 22.38 82.9335 22.14C83.2535 21.9 83.4482 21.5454 83.5175 21.076H84.8135C84.7335 21.5827 84.5522 22.02 84.2695 22.388C83.9868 22.7507 83.6268 23.0307 83.1895 23.228C82.7522 23.4254 82.2588 23.524 81.7095 23.524ZM95.8051 23.332L95.6451 21.652V18.372C95.6451 17.684 95.4985 17.1907 95.2051 16.892C94.9118 16.588 94.4718 16.436 93.8851 16.436C93.5545 16.436 93.2531 16.484 92.9811 16.58C92.7145 16.676 92.5011 16.8254 92.3411 17.028C92.1865 17.2254 92.1091 17.4814 92.1091 17.796H90.7171C90.7171 17.2414 90.8531 16.796 91.1251 16.46C91.3971 16.1187 91.7705 15.8734 92.2451 15.724C92.7251 15.5694 93.2718 15.492 93.8851 15.492C94.4718 15.492 94.9918 15.5907 95.4451 15.788C95.8985 15.9854 96.2531 16.3 96.5091 16.732C96.7651 17.1587 96.8931 17.716 96.8931 18.404V23.332H95.8051ZM93.1971 23.524C92.5678 23.524 92.0478 23.412 91.6371 23.188C91.2265 22.964 90.9198 22.6734 90.7171 22.316C90.5145 21.9587 90.4131 21.5827 90.4131 21.188C90.4131 20.6707 90.5411 20.2494 90.7971 19.924C91.0585 19.5987 91.4131 19.3614 91.8611 19.212C92.3091 19.0574 92.8131 18.98 93.3731 18.98C93.7731 18.98 94.1731 19.02 94.5731 19.1C94.9785 19.18 95.3731 19.2894 95.7571 19.428V20.212C95.4371 20.084 95.0745 19.9827 94.6691 19.908C94.2691 19.8334 93.9011 19.796 93.5651 19.796C93.0531 19.796 92.6211 19.9027 92.2691 20.116C91.9171 20.324 91.7411 20.6814 91.7411 21.188C91.7411 21.5614 91.8745 21.8814 92.1411 22.148C92.4131 22.4147 92.8451 22.548 93.4371 22.548C93.8531 22.548 94.2265 22.452 94.5571 22.26C94.8931 22.0627 95.1571 21.8174 95.3491 21.524C95.5465 21.2307 95.6451 20.9374 95.6451 20.644H95.9491C95.9491 21.156 95.8371 21.6307 95.6131 22.068C95.3945 22.5054 95.0798 22.8574 94.6691 23.124C94.2585 23.3907 93.7678 23.524 93.1971 23.524ZM106.431 23.524C105.689 23.524 105.071 23.42 104.575 23.212C104.079 22.9987 103.703 22.708 103.447 22.34C103.191 21.9667 103.055 21.54 103.039 21.06H104.239C104.265 21.5454 104.46 21.9107 104.823 22.156C105.191 22.396 105.689 22.516 106.319 22.516C106.649 22.516 106.953 22.4627 107.231 22.356C107.508 22.2494 107.729 22.1027 107.895 21.916C108.06 21.7294 108.143 21.5187 108.143 21.284C108.143 20.9854 108.033 20.7507 107.815 20.58C107.596 20.4094 107.247 20.26 106.766 20.132L105.279 19.652C104.633 19.4494 104.137 19.172 103.791 18.82C103.449 18.4627 103.279 18.036 103.279 17.54C103.279 16.9214 103.551 16.4254 104.095 16.052C104.639 15.6787 105.353 15.492 106.239 15.492C107.177 15.492 107.905 15.684 108.423 16.068C108.94 16.452 109.209 16.932 109.231 17.508H107.999C107.951 17.172 107.78 16.9187 107.487 16.748C107.193 16.572 106.777 16.484 106.239 16.484C105.721 16.484 105.316 16.6014 105.023 16.836C104.735 17.0654 104.591 17.3214 104.591 17.604C104.591 18.132 105.044 18.5214 105.951 18.772L107.471 19.284C108.127 19.4814 108.628 19.74 108.975 20.06C109.327 20.38 109.503 20.788 109.503 21.284C109.503 21.668 109.377 22.0307 109.127 22.372C108.876 22.7134 108.521 22.9907 108.063 23.204C107.604 23.4174 107.06 23.524 106.431 23.524ZM115.557 23.524C114.997 23.524 114.509 23.396 114.093 23.14C113.682 22.884 113.365 22.5107 113.141 22.02C112.917 21.524 112.805 20.9214 112.805 20.212H113.333C113.333 20.6867 113.431 21.0867 113.629 21.412C113.826 21.7374 114.082 21.9854 114.397 22.156C114.717 22.3214 115.055 22.404 115.413 22.404C115.797 22.404 116.165 22.2947 116.517 22.076C116.869 21.852 117.157 21.524 117.381 21.092C117.605 20.66 117.717 20.1267 117.717 19.492C117.717 18.884 117.613 18.364 117.405 17.932C117.202 17.5 116.927 17.1694 116.581 16.94C116.234 16.7107 115.85 16.596 115.429 16.596C115.066 16.596 114.725 16.684 114.405 16.86C114.085 17.036 113.826 17.2947 113.629 17.636C113.431 17.972 113.333 18.388 113.333 18.884H112.805C112.805 18.1427 112.927 17.5214 113.173 17.02C113.418 16.5134 113.751 16.132 114.173 15.876C114.594 15.62 115.066 15.492 115.589 15.492C116.186 15.492 116.743 15.652 117.261 15.972C117.778 16.292 118.197 16.7507 118.517 17.348C118.837 17.9454 118.997 18.66 118.997 19.492C118.997 20.3347 118.834 21.0574 118.509 21.66C118.189 22.2627 117.767 22.724 117.245 23.044C116.722 23.364 116.159 23.524 115.557 23.524ZM112.085 27.092V15.684H113.125L113.333 17.476V27.092H112.085ZM124.1 23.524C123.439 23.524 122.847 23.356 122.324 23.02C121.807 22.6787 121.396 22.2067 121.092 21.604C120.793 21.0014 120.644 20.308 120.644 19.524C120.644 18.6867 120.793 17.9667 121.092 17.364C121.391 16.7614 121.799 16.3 122.316 15.98C122.839 15.6547 123.433 15.492 124.1 15.492C124.681 15.492 125.177 15.6094 125.588 15.844C125.999 16.0787 126.329 16.396 126.58 16.796C126.831 17.196 127.004 17.6494 127.1 18.156C127.201 18.6574 127.231 19.1774 127.188 19.716H121.652V18.948H126.364L125.996 19.188C126.012 18.8734 125.993 18.5587 125.94 18.244C125.892 17.9294 125.799 17.6414 125.66 17.38C125.521 17.1134 125.327 16.9 125.076 16.74C124.825 16.58 124.505 16.5 124.116 16.5C123.625 16.5 123.215 16.6254 122.884 16.876C122.553 17.1267 122.305 17.4574 122.14 17.868C121.975 18.2734 121.892 18.7134 121.892 19.188V19.7C121.892 20.2334 121.972 20.7107 122.132 21.132C122.297 21.5534 122.543 21.8867 122.868 22.132C123.193 22.3774 123.604 22.5 124.1 22.5C124.596 22.5 125.004 22.38 125.324 22.14C125.644 21.9 125.839 21.5454 125.908 21.076H127.204C127.124 21.5827 126.943 22.02 126.66 22.388C126.377 22.7507 126.017 23.0307 125.58 23.228C125.143 23.4254 124.649 23.524 124.1 23.524ZM132.351 23.524C131.738 23.524 131.164 23.3587 130.631 23.028C130.103 22.6974 129.676 22.2307 129.351 21.628C129.026 21.0254 128.863 20.3134 128.863 19.492C128.863 18.6494 129.026 17.9294 129.351 17.332C129.676 16.7347 130.103 16.2787 130.631 15.964C131.164 15.6494 131.738 15.492 132.351 15.492C132.783 15.492 133.17 15.5587 133.511 15.692C133.858 15.82 134.159 15.9987 134.415 16.228C134.671 16.4574 134.882 16.7187 135.047 17.012C135.218 17.3 135.343 17.604 135.423 17.924L134.143 18.036C134.01 17.5934 133.786 17.244 133.471 16.988C133.162 16.7267 132.783 16.596 132.335 16.596C131.956 16.596 131.599 16.7054 131.263 16.924C130.932 17.1374 130.663 17.46 130.455 17.892C130.247 18.3187 130.143 18.852 130.143 19.492C130.143 20.084 130.236 20.5987 130.423 21.036C130.615 21.468 130.876 21.804 131.207 22.044C131.538 22.284 131.914 22.404 132.335 22.404C132.927 22.404 133.375 22.26 133.679 21.972C133.988 21.6787 134.143 21.2734 134.143 20.756H135.423C135.423 21.2894 135.298 21.764 135.047 22.18C134.796 22.596 134.439 22.924 133.975 23.164C133.516 23.404 132.975 23.524 132.351 23.524ZM138.617 13.876C138.361 13.876 138.158 13.804 138.009 13.66C137.86 13.5107 137.785 13.316 137.785 13.076C137.785 12.8414 137.86 12.6547 138.009 12.516C138.158 12.3774 138.361 12.308 138.617 12.308C138.873 12.308 139.076 12.3774 139.225 12.516C139.374 12.6547 139.449 12.8414 139.449 13.076C139.449 13.316 139.374 13.5107 139.225 13.66C139.076 13.804 138.873 13.876 138.617 13.876ZM137.993 23.332V15.668H139.241V23.332H137.993ZM147.415 23.332L147.255 21.652V18.372C147.255 17.684 147.108 17.1907 146.815 16.892C146.521 16.588 146.081 16.436 145.495 16.436C145.164 16.436 144.863 16.484 144.591 16.58C144.324 16.676 144.111 16.8254 143.951 17.028C143.796 17.2254 143.719 17.4814 143.719 17.796H142.327C142.327 17.2414 142.463 16.796 142.735 16.46C143.007 16.1187 143.38 15.8734 143.855 15.724C144.335 15.5694 144.881 15.492 145.495 15.492C146.081 15.492 146.601 15.5907 147.055 15.788C147.508 15.9854 147.863 16.3 148.119 16.732C148.375 17.1587 148.503 17.716 148.503 18.404V23.332H147.415ZM144.807 23.524C144.177 23.524 143.657 23.412 143.247 23.188C142.836 22.964 142.529 22.6734 142.327 22.316C142.124 21.9587 142.023 21.5827 142.023 21.188C142.023 20.6707 142.151 20.2494 142.407 19.924C142.668 19.5987 143.023 19.3614 143.471 19.212C143.919 19.0574 144.423 18.98 144.983 18.98C145.383 18.98 145.783 19.02 146.183 19.1C146.588 19.18 146.983 19.2894 147.367 19.428V20.212C147.047 20.084 146.684 19.9827 146.279 19.908C145.879 19.8334 145.511 19.796 145.174 19.796C144.663 19.796 144.231 19.9027 143.879 20.116C143.527 20.324 143.351 20.6814 143.351 21.188C143.351 21.5614 143.484 21.8814 143.751 22.148C144.023 22.4147 144.455 22.548 145.047 22.548C145.463 22.548 145.836 22.452 146.167 22.26C146.503 22.0627 146.767 21.8174 146.959 21.524C147.156 21.2307 147.255 20.9374 147.255 20.644H147.559C147.559 21.156 147.447 21.6307 147.223 22.068C147.004 22.5054 146.689 22.8574 146.279 23.124C145.868 23.3907 145.377 23.524 144.807 23.524ZM151.491 23.332V12.42H152.739V23.332H151.491ZM31.07 32.876C30.814 32.876 30.6113 32.804 30.462 32.66C30.3127 32.5107 30.238 32.316 30.238 32.076C30.238 31.8414 30.3127 31.6547 30.462 31.516C30.6113 31.3774 30.814 31.308 31.07 31.308C31.326 31.308 31.5287 31.3774 31.678 31.516C31.8273 31.6547 31.902 31.8414 31.902 32.076C31.902 32.316 31.8273 32.5107 31.678 32.66C31.5287 32.804 31.326 32.876 31.07 32.876ZM30.446 42.332V34.668H31.694V42.332H30.446ZM40.5716 42.332V37.836C40.5716 37.1054 40.3956 36.5507 40.0436 36.172C39.697 35.788 39.2223 35.596 38.6196 35.596C38.161 35.596 37.7636 35.7214 37.4276 35.972C37.0916 36.2227 36.833 36.5827 36.6516 37.052C36.4703 37.516 36.3796 38.0707 36.3796 38.716H35.8996C35.8996 37.8254 36.017 37.0654 36.2516 36.436C36.4863 35.8067 36.8276 35.3267 37.2756 34.996C37.729 34.66 38.2783 34.492 38.9236 34.492C39.5263 34.492 40.041 34.628 40.4676 34.9C40.8996 35.1667 41.2303 35.5507 41.4596 36.052C41.689 36.5534 41.8036 37.148 41.8036 37.836V42.332H40.5716ZM35.1316 42.332V34.684H36.2036L36.3796 36.444V42.332H35.1316ZM47.1399 42.524C46.7239 42.524 46.3505 42.444 46.0199 42.284C45.6892 42.124 45.4279 41.884 45.2359 41.564C45.0439 41.244 44.9479 40.844 44.9479 40.364V32.556H46.1799V40.332C46.1799 41.1214 46.5479 41.516 47.2839 41.516C47.5025 41.516 47.7132 41.492 47.9159 41.444C48.1239 41.396 48.3559 41.324 48.6119 41.228L48.7879 42.124C48.5159 42.2414 48.2439 42.3374 47.9719 42.412C47.7052 42.4867 47.4279 42.524 47.1399 42.524ZM43.7159 35.548V34.684H48.5959V35.548H43.7159ZM53.4595 42.524C52.7982 42.524 52.2062 42.356 51.6835 42.02C51.1662 41.6787 50.7555 41.2067 50.4515 40.604C50.1528 40.0014 50.0035 39.308 50.0035 38.524C50.0035 37.6867 50.1528 36.9667 50.4515 36.364C50.7502 35.7614 51.1582 35.3 51.6755 34.98C52.1982 34.6547 52.7928 34.492 53.4595 34.492C54.0408 34.492 54.5368 34.6094 54.9475 34.844C55.3582 35.0787 55.6888 35.396 55.9395 35.796C56.1902 36.196 56.3635 36.6494 56.4595 37.156C56.5608 37.6574 56.5902 38.1774 56.5475 38.716H51.0115V37.948H55.7235L55.3555 38.188C55.3715 37.8734 55.3528 37.5587 55.2995 37.244C55.2515 36.9294 55.1582 36.6414 55.0195 36.38C54.8808 36.1134 54.6862 35.9 54.4355 35.74C54.1848 35.58 53.8648 35.5 53.4755 35.5C52.9848 35.5 52.5742 35.6254 52.2435 35.876C51.9128 36.1267 51.6648 36.4574 51.4995 36.868C51.3342 37.2734 51.2515 37.7134 51.2515 38.188V38.7C51.2515 39.2334 51.3315 39.7107 51.4915 40.132C51.6568 40.5534 51.9022 40.8867 52.2275 41.132C52.5528 41.3774 52.9635 41.5 53.4595 41.5C53.9555 41.5 54.3635 41.38 54.6835 41.14C55.0035 40.9 55.1982 40.5454 55.2675 40.076H56.5635C56.4835 40.5827 56.3022 41.02 56.0195 41.388C55.7368 41.7507 55.3768 42.0307 54.9395 42.228C54.5022 42.4254 54.0088 42.524 53.4595 42.524ZM59.0223 42.332V34.668H60.2703V42.332H59.0223ZM59.8863 38.876C59.8863 37.9054 59.9796 37.1 60.1663 36.46C60.3529 35.8147 60.6249 35.3347 60.9823 35.02C61.3449 34.7 61.7849 34.54 62.3023 34.54C62.4729 34.54 62.6276 34.5534 62.7663 34.58C62.9103 34.6014 63.0543 34.636 63.1983 34.684L63.1183 35.916C62.9689 35.868 62.8063 35.828 62.6303 35.796C62.4543 35.7587 62.2969 35.74 62.1583 35.74C61.7049 35.74 61.3396 35.8707 61.0623 36.132C60.7849 36.388 60.5823 36.7507 60.4543 37.22C60.3316 37.6894 60.2703 38.2414 60.2703 38.876H59.8863ZM67.4595 42.524C66.7982 42.524 66.2062 42.356 65.6835 42.02C65.1662 41.6787 64.7555 41.2067 64.4515 40.604C64.1528 40.0014 64.0035 39.308 64.0035 38.524C64.0035 37.6867 64.1528 36.9667 64.4515 36.364C64.7502 35.7614 65.1582 35.3 65.6755 34.98C66.1982 34.6547 66.7928 34.492 67.4595 34.492C68.0408 34.492 68.5368 34.6094 68.9475 34.844C69.3582 35.0787 69.6888 35.396 69.9395 35.796C70.1902 36.196 70.3635 36.6494 70.4595 37.156C70.5608 37.6574 70.5902 38.1774 70.5475 38.716H65.0115V37.948H69.7235L69.3555 38.188C69.3715 37.8734 69.3528 37.5587 69.2995 37.244C69.2515 36.9294 69.1582 36.6414 69.0195 36.38C68.8808 36.1134 68.6862 35.9 68.4355 35.74C68.1848 35.58 67.8648 35.5 67.4755 35.5C66.9848 35.5 66.5742 35.6254 66.2435 35.876C65.9128 36.1267 65.6648 36.4574 65.4995 36.868C65.3342 37.2734 65.2515 37.7134 65.2515 38.188V38.7C65.2515 39.2334 65.3315 39.7107 65.4915 40.132C65.6568 40.5534 65.9022 40.8867 66.2275 41.132C66.5528 41.3774 66.9635 41.5 67.4595 41.5C67.9555 41.5 68.3635 41.38 68.6835 41.14C69.0035 40.9 69.1982 40.5454 69.2675 40.076H70.5635C70.4835 40.5827 70.3022 41.02 70.0195 41.388C69.7368 41.7507 69.3768 42.0307 68.9395 42.228C68.5022 42.4254 68.0088 42.524 67.4595 42.524ZM75.7743 42.524C75.0329 42.524 74.4143 42.42 73.9183 42.212C73.4223 41.9987 73.0463 41.708 72.7903 41.34C72.5343 40.9667 72.3983 40.54 72.3823 40.06H73.5823C73.6089 40.5454 73.8036 40.9107 74.1663 41.156C74.5343 41.396 75.0329 41.516 75.6623 41.516C75.9929 41.516 76.2969 41.4627 76.5743 41.356C76.8516 41.2494 77.0729 41.1027 77.2383 40.916C77.4036 40.7294 77.4863 40.5187 77.4863 40.284C77.4863 39.9854 77.3769 39.7507 77.1583 39.58C76.9396 39.4094 76.5903 39.26 76.1102 39.132L74.6223 38.652C73.9769 38.4494 73.4809 38.172 73.1343 37.82C72.7929 37.4627 72.6223 37.036 72.6223 36.54C72.6223 35.9214 72.8943 35.4254 73.4383 35.052C73.9823 34.6787 74.6969 34.492 75.5823 34.492C76.5209 34.492 77.2489 34.684 77.7663 35.068C78.2836 35.452 78.5529 35.932 78.5743 36.508H77.3423C77.2943 36.172 77.1236 35.9187 76.8303 35.748C76.5369 35.572 76.1209 35.484 75.5823 35.484C75.0649 35.484 74.6596 35.6014 74.3663 35.836C74.0783 36.0654 73.9343 36.3214 73.9343 36.604C73.9343 37.132 74.3876 37.5214 75.2943 37.772L76.8143 38.284C77.4703 38.4814 77.9716 38.74 78.3183 39.06C78.6703 39.38 78.8463 39.788 78.8463 40.284C78.8463 40.668 78.7209 41.0307 78.4703 41.372C78.2196 41.7134 77.8649 41.9907 77.4063 42.204C76.9476 42.4174 76.4036 42.524 75.7743 42.524ZM83.7805 42.524C83.3645 42.524 82.9912 42.444 82.6605 42.284C82.3298 42.124 82.0685 41.884 81.8765 41.564C81.6845 41.244 81.5885 40.844 81.5885 40.364V32.556H82.8205V40.332C82.8205 41.1214 83.1885 41.516 83.9245 41.516C84.1432 41.516 84.3538 41.492 84.5565 41.444C84.7645 41.396 84.9965 41.324 85.2525 41.228L85.4285 42.124C85.1565 42.2414 84.8845 42.3374 84.6125 42.412C84.3458 42.4867 84.0685 42.524 83.7805 42.524ZM80.3565 35.548V34.684H85.2365V35.548H80.3565ZM91.945 32.876C91.689 32.876 91.4863 32.804 91.337 32.66C91.1877 32.5107 91.113 32.316 91.113 32.076C91.113 31.8414 91.1877 31.6547 91.337 31.516C91.4863 31.3774 91.689 31.308 91.945 31.308C92.201 31.308 92.4037 31.3774 92.553 31.516C92.7023 31.6547 92.777 31.8414 92.777 32.076C92.777 32.316 92.7023 32.5107 92.553 32.66C92.4037 32.804 92.201 32.876 91.945 32.876ZM91.321 42.332V34.668H92.569V42.332H91.321ZM101.447 42.332V37.836C101.447 37.1054 101.271 36.5507 100.919 36.172C100.572 35.788 100.097 35.596 99.4946 35.596C99.036 35.596 98.6386 35.7214 98.3026 35.972C97.9666 36.2227 97.708 36.5827 97.5266 37.052C97.3453 37.516 97.2546 38.0707 97.2546 38.716H96.7746C96.7746 37.8254 96.892 37.0654 97.1266 36.436C97.3613 35.8067 97.7026 35.3267 98.1506 34.996C98.604 34.66 99.1533 34.492 99.7986 34.492C100.401 34.492 100.916 34.628 101.343 34.9C101.775 35.1667 102.105 35.5507 102.335 36.052C102.564 36.5534 102.679 37.148 102.679 37.836V42.332H101.447ZM96.0066 42.332V34.684H97.0786L97.2546 36.444V42.332H96.0066ZM109.46 42.332V31.42H110.708V42.332H109.46ZM116.6 42.524C115.939 42.524 115.347 42.356 114.824 42.02C114.307 41.6787 113.896 41.2067 113.592 40.604C113.293 40.0014 113.144 39.308 113.144 38.524C113.144 37.6867 113.293 36.9667 113.592 36.364C113.891 35.7614 114.299 35.3 114.816 34.98C115.339 34.6547 115.933 34.492 116.6 34.492C117.181 34.492 117.677 34.6094 118.088 34.844C118.499 35.0787 118.829 35.396 119.08 35.796C119.331 36.196 119.504 36.6494 119.6 37.156C119.701 37.6574 119.731 38.1774 119.688 38.716H114.152V37.948H118.864L118.496 38.188C118.512 37.8734 118.493 37.5587 118.44 37.244C118.392 36.9294 118.299 36.6414 118.16 36.38C118.021 36.1134 117.827 35.9 117.576 35.74C117.325 35.58 117.005 35.5 116.616 35.5C116.125 35.5 115.715 35.6254 115.384 35.876C115.053 36.1267 114.805 36.4574 114.64 36.868C114.475 37.2734 114.392 37.7134 114.392 38.188V38.7C114.392 39.2334 114.472 39.7107 114.632 40.132C114.797 40.5534 115.043 40.8867 115.368 41.132C115.693 41.3774 116.104 41.5 116.6 41.5C117.096 41.5 117.504 41.38 117.824 41.14C118.144 40.9 118.339 40.5454 118.408 40.076H119.704C119.624 40.5827 119.443 41.02 119.16 41.388C118.877 41.7507 118.517 42.0307 118.08 42.228C117.643 42.4254 117.149 42.524 116.6 42.524ZM126.899 42.332L126.739 40.652V37.372C126.739 36.684 126.592 36.1907 126.299 35.892C126.006 35.588 125.566 35.436 124.979 35.436C124.648 35.436 124.347 35.484 124.075 35.58C123.808 35.676 123.595 35.8254 123.435 36.028C123.28 36.2254 123.203 36.4814 123.203 36.796H121.811C121.811 36.2414 121.947 35.796 122.219 35.46C122.491 35.1187 122.864 34.8734 123.339 34.724C123.819 34.5694 124.366 34.492 124.979 34.492C125.566 34.492 126.086 34.5907 126.539 34.788C126.992 34.9854 127.347 35.3 127.603 35.732C127.859 36.1587 127.987 36.716 127.987 37.404V42.332H126.899ZM124.291 42.524C123.662 42.524 123.142 42.412 122.731 42.188C122.32 41.964 122.014 41.6734 121.811 41.316C121.608 40.9587 121.507 40.5827 121.507 40.188C121.507 39.6707 121.635 39.2494 121.891 38.924C122.152 38.5987 122.507 38.3614 122.955 38.212C123.403 38.0574 123.907 37.98 124.467 37.98C124.867 37.98 125.267 38.02 125.667 38.1C126.072 38.18 126.467 38.2894 126.851 38.428V39.212C126.531 39.084 126.168 38.9827 125.763 38.908C125.363 38.8334 124.995 38.796 124.659 38.796C124.147 38.796 123.715 38.9027 123.363 39.116C123.011 39.324 122.835 39.6814 122.835 40.188C122.835 40.5614 122.968 40.8814 123.235 41.148C123.507 41.4147 123.939 41.548 124.531 41.548C124.947 41.548 125.32 41.452 125.651 41.26C125.987 41.0627 126.251 40.8174 126.443 40.524C126.64 40.2307 126.739 39.9374 126.739 39.644H127.043C127.043 40.156 126.931 40.6307 126.707 41.068C126.488 41.5054 126.174 41.8574 125.763 42.124C125.352 42.3907 124.862 42.524 124.291 42.524ZM130.975 42.332V34.668H132.223V42.332H130.975ZM131.839 38.876C131.839 37.9054 131.933 37.1 132.119 36.46C132.306 35.8147 132.578 35.3347 132.935 35.02C133.298 34.7 133.738 34.54 134.255 34.54C134.426 34.54 134.581 34.5534 134.719 34.58C134.863 34.6014 135.007 34.636 135.151 34.684L135.071 35.916C134.922 35.868 134.759 35.828 134.583 35.796C134.407 35.7587 134.25 35.74 134.111 35.74C133.658 35.74 133.293 35.8707 133.015 36.132C132.738 36.388 132.535 36.7507 132.407 37.22C132.285 37.6894 132.223 38.2414 132.223 38.876H131.839ZM142.197 42.332V37.836C142.197 37.1054 142.021 36.5507 141.669 36.172C141.322 35.788 140.847 35.596 140.245 35.596C139.786 35.596 139.389 35.7214 139.053 35.972C138.717 36.2227 138.458 36.5827 138.277 37.052C138.095 37.516 138.005 38.0707 138.005 38.716H137.525C137.525 37.8254 137.642 37.0654 137.877 36.436C138.111 35.8067 138.453 35.3267 138.901 34.996C139.354 34.66 139.903 34.492 140.549 34.492C141.151 34.492 141.666 34.628 142.093 34.9C142.525 35.1667 142.855 35.5507 143.085 36.052C143.314 36.5534 143.429 37.148 143.429 37.836V42.332H142.197ZM136.757 42.332V34.684H137.829L138.005 36.444V42.332H136.757ZM147.117 32.876C146.861 32.876 146.658 32.804 146.509 32.66C146.36 32.5107 146.285 32.316 146.285 32.076C146.285 31.8414 146.36 31.6547 146.509 31.516C146.658 31.3774 146.861 31.308 147.117 31.308C147.373 31.308 147.576 31.3774 147.725 31.516C147.874 31.6547 147.949 31.8414 147.949 32.076C147.949 32.316 147.874 32.5107 147.725 32.66C147.576 32.804 147.373 32.876 147.117 32.876ZM146.493 42.332V34.668H147.741V42.332H146.493ZM156.619 42.332V37.836C156.619 37.1054 156.443 36.5507 156.091 36.172C155.744 35.788 155.269 35.596 154.667 35.596C154.208 35.596 153.811 35.7214 153.475 35.972C153.139 36.2227 152.88 36.5827 152.699 37.052C152.517 37.516 152.427 38.0707 152.427 38.716H151.947C151.947 37.8254 152.064 37.0654 152.299 36.436C152.533 35.8067 152.875 35.3267 153.323 34.996C153.776 34.66 154.325 34.492 154.971 34.492C155.573 34.492 156.088 34.628 156.515 34.9C156.947 35.1667 157.277 35.5507 157.507 36.052C157.736 36.5534 157.851 37.148 157.851 37.836V42.332H156.619ZM151.179 42.332V34.684H152.251L152.427 36.444V42.332H151.179ZM163.539 46.268C162.755 46.268 162.075 46.156 161.499 45.932C160.923 45.7134 160.475 45.4174 160.155 45.044C159.84 44.676 159.683 44.268 159.683 43.82C159.683 43.228 159.899 42.7747 160.331 42.46C160.768 42.1507 161.331 41.996 162.019 41.996L162.707 42.428C162.131 42.428 161.685 42.548 161.371 42.788C161.056 43.028 160.899 43.356 160.899 43.772C160.899 44.188 161.123 44.54 161.571 44.828C162.019 45.116 162.675 45.26 163.539 45.26C164.179 45.26 164.739 45.1667 165.219 44.98C165.704 44.7987 166.08 44.5587 166.347 44.26C166.619 43.9667 166.755 43.6494 166.755 43.308C166.755 43.068 166.667 42.86 166.491 42.684C166.315 42.5134 166.045 42.428 165.683 42.428H162.707C162.189 42.428 161.741 42.3507 161.363 42.196C160.989 42.036 160.701 41.828 160.499 41.572C160.296 41.316 160.195 41.036 160.195 40.732C160.195 40.412 160.285 40.14 160.467 39.916C160.648 39.692 160.883 39.5214 161.171 39.404C161.464 39.2867 161.779 39.228 162.115 39.228L162.355 39.692C162.195 39.692 162.032 39.7294 161.867 39.804C161.707 39.8734 161.571 39.98 161.459 40.124C161.352 40.2627 161.299 40.4387 161.299 40.652C161.299 40.8974 161.4 41.1027 161.603 41.268C161.805 41.4334 162.173 41.516 162.707 41.516H165.683C166.403 41.516 166.968 41.668 167.379 41.972C167.795 42.276 168.003 42.7 168.003 43.244C168.003 43.7454 167.824 44.2254 167.467 44.684C167.109 45.148 166.597 45.5267 165.931 45.82C165.264 46.1187 164.467 46.268 163.539 46.268ZM163.763 40.092C163.176 40.092 162.645 39.9747 162.171 39.74C161.701 39.5054 161.328 39.1774 161.051 38.756C160.779 38.3347 160.643 37.8467 160.643 37.292C160.643 36.732 160.779 36.2414 161.051 35.82C161.328 35.3987 161.701 35.0734 162.171 34.844C162.645 34.6094 163.176 34.492 163.763 34.492C164.333 34.492 164.851 34.6094 165.315 34.844C165.784 35.0734 166.157 35.3987 166.435 35.82C166.712 36.2414 166.851 36.732 166.851 37.292C166.851 37.8467 166.712 38.3347 166.435 38.756C166.157 39.1774 165.784 39.5054 165.315 39.74C164.851 39.9747 164.333 40.092 163.763 40.092ZM163.763 39.196C164.349 39.196 164.805 39.0147 165.131 38.652C165.456 38.2894 165.619 37.836 165.619 37.292C165.619 36.732 165.456 36.2787 165.131 35.932C164.805 35.58 164.349 35.404 163.763 35.404C163.181 35.404 162.723 35.58 162.387 35.932C162.056 36.2787 161.891 36.732 161.891 37.292C161.891 37.836 162.056 38.2894 162.387 38.652C162.723 39.0147 163.181 39.196 163.763 39.196ZM166.275 35.708L165.683 35.468C165.683 35.02 165.771 34.628 165.947 34.292C166.123 33.9507 166.373 33.6867 166.699 33.5C167.024 33.308 167.411 33.212 167.859 33.212L167.763 34.444C167.283 34.444 166.915 34.548 166.659 34.756C166.403 34.9587 166.275 35.276 166.275 35.708Z" fill="#3DCFB6"/>
<g clip-path="url(#clip0_3296_5248)">
<path d="M72.493 72.7764C74.0676 72.7764 75.344 71.4994 75.344 69.9242C75.344 68.349 74.0676 67.072 72.493 67.072C70.9185 67.072 69.6421 68.349 69.6421 69.9242C69.6421 71.4994 70.9185 72.7764 72.493 72.7764Z" fill="#61DAFB"/>
<path d="M88.4861 69.9241C88.4861 67.6841 85.8577 65.7363 81.769 64.5676C82.7981 60.4354 82.4365 57.1798 80.4896 56.0667C78.5426 54.9398 75.5526 56.2615 72.493 59.2111C69.4335 56.2476 66.4435 54.9398 64.4965 56.0667C62.8833 56.9989 62.2853 59.3641 62.8277 62.7311C62.925 63.3293 63.0641 63.9415 63.2171 64.5815C59.1284 65.7502 56.5 67.698 56.5 69.938C56.5 72.178 59.1284 74.112 63.2171 75.2946C63.0641 75.9206 62.925 76.5467 62.8277 77.145C62.2853 80.512 62.8833 82.8772 64.4965 83.8093C64.9694 84.0876 65.5117 84.2267 66.1097 84.2267C67.5282 84.2267 69.2388 83.4476 71.1023 81.9311C71.5613 81.5554 72.0341 81.1241 72.493 80.6789C72.952 81.1241 73.4248 81.5554 73.8837 81.9311C75.7473 83.4476 77.4578 84.2267 78.8764 84.2267C79.4744 84.2267 80.0167 84.0876 80.4896 83.8093C82.1028 82.8772 82.7008 80.512 82.1723 77.145C82.075 76.5467 81.9359 75.9346 81.7829 75.2946C85.8716 74.1259 88.5 72.178 88.5 69.938L88.4861 69.9241ZM79.7942 57.2633C81.0458 57.9867 81.324 60.6302 80.42 64.2198C79.1128 63.9137 77.6804 63.6911 76.1645 63.552C75.2884 62.3137 74.3705 61.1867 73.4665 60.1989C75.5804 58.1537 77.5413 57.0406 78.8903 57.0406C79.2379 57.0406 79.5439 57.1102 79.8081 57.2633H79.7942ZM76.9572 72.498C76.4565 73.3467 75.942 74.1815 75.4135 74.9606C74.4817 75.0302 73.5083 75.072 72.507 75.072C71.5056 75.072 70.5322 75.0302 69.6004 74.9606C69.0719 74.1815 68.5435 73.3467 68.0567 72.498C67.5561 71.6354 67.111 70.7867 66.6938 69.9241C67.111 69.0615 67.5561 68.2128 68.0567 67.3502C68.5574 66.4737 69.0858 65.6528 69.6004 64.8876C70.5322 64.818 71.5056 64.7763 72.507 64.7763C73.5083 64.7763 74.4817 64.818 75.4135 64.8876C75.942 65.6528 76.4565 66.4737 76.9572 67.3502C77.4439 68.1989 77.9029 69.0615 78.3201 69.9241C77.9168 70.7728 77.4718 71.6215 76.9572 72.498ZM79.0432 71.552C79.4326 72.4841 79.7664 73.3885 80.0445 74.2789C79.1545 74.4737 78.1949 74.6546 77.1797 74.7798C77.5135 74.265 77.8333 73.7363 78.1532 73.1937C78.4731 72.6511 78.7651 72.0946 79.0432 71.552ZM72.493 78.6476C71.8672 77.9659 71.2414 77.2146 70.6295 76.4076C71.2414 76.4354 71.8533 76.4493 72.493 76.4493C73.1328 76.4493 73.7447 76.4354 74.3566 76.4076C73.7447 77.2146 73.1189 77.952 72.493 78.6476ZM67.8064 74.7798C66.7912 74.6546 65.8316 74.4876 64.9415 74.2789C65.2197 73.3885 65.5535 72.4841 65.9429 71.552C66.221 72.0946 66.513 72.6511 66.8329 73.1937C67.1528 73.7363 67.4726 74.265 67.8064 74.7798ZM65.9429 68.2824C65.5535 67.3502 65.2197 66.4459 64.9415 65.5554C65.8316 65.3606 66.7912 65.1798 67.8064 65.0546C67.4726 65.5693 67.1528 66.098 66.8329 66.6406C66.513 67.1833 66.221 67.7259 65.9429 68.2824ZM72.493 61.1867C73.105 61.8546 73.7308 62.6059 74.3566 63.4267C73.7447 63.3989 73.1328 63.385 72.493 63.385C71.8533 63.385 71.2414 63.3989 70.6295 63.4267C71.2553 62.6059 71.8672 61.8546 72.493 61.1867ZM78.1532 66.6546C77.8333 66.112 77.5135 65.5833 77.1797 65.0685C78.1949 65.1937 79.1545 65.3606 80.0445 65.5693C79.7803 66.4459 79.4465 67.3502 79.0432 68.2963C78.7651 67.7537 78.4591 67.1972 78.1532 66.6546ZM64.1906 62.5085C63.7595 59.7954 64.121 57.8893 65.1919 57.2772C65.4561 57.1241 65.7621 57.0546 66.1097 57.0546C67.4587 57.0546 69.4196 58.1676 71.5335 60.2128C70.6156 61.2006 69.7116 62.3276 68.8355 63.5659C67.3196 63.705 65.8872 63.9276 64.58 64.2337C64.427 63.6493 64.3018 63.065 64.2184 62.5224L64.1906 62.5085ZM57.8907 69.9241C57.8907 68.4772 60.0324 66.9189 63.5926 65.9033C63.9959 67.1972 64.5243 68.5467 65.1502 69.9241C64.5243 71.2876 63.9959 72.6372 63.5926 73.945C60.0463 72.9293 57.8907 71.385 57.8907 69.9241ZM70.2262 80.818C68.0984 82.5433 66.2627 83.1833 65.1919 82.5711C64.121 81.9589 63.7595 80.0389 64.1906 77.3398C64.274 76.7833 64.4131 76.2128 64.5522 75.6285C65.8594 75.9346 67.2918 76.1572 68.8077 76.2963C69.6838 77.5206 70.5878 78.6615 71.5056 79.6633C71.0745 80.0807 70.6434 80.4841 70.2123 80.832L70.2262 80.818ZM80.7955 77.3398C81.2266 80.0528 80.8651 81.9589 79.7942 82.5711C78.7234 83.1833 76.8877 82.5433 74.7599 80.818C74.3288 80.4702 73.8977 80.0667 73.4665 79.6493C74.3983 78.6476 75.3023 77.5206 76.1645 76.2963C77.6804 76.1572 79.1128 75.9346 80.42 75.6285C80.573 76.2128 80.6982 76.7972 80.7816 77.3398H80.7955ZM81.3935 73.9311C80.9902 72.6372 80.4618 71.2876 79.8359 69.9102C80.4757 68.5189 80.9902 67.1693 81.3935 65.8893C84.9537 66.905 87.0954 68.4493 87.0954 69.9102C87.0954 71.3711 84.9537 72.9154 81.3935 73.9311Z" fill="#61DAFB"/>
</g>
<path d="M57.5203 101.332V93.544H60.4003C61.3323 93.544 62.0463 93.762 62.5423 94.198C63.0423 94.634 63.2923 95.212 63.2923 95.932C63.2923 96.64 63.0423 97.212 62.5423 97.648C62.0463 98.08 61.3323 98.296 60.4003 98.296H58.9363V101.332H57.5203ZM61.7323 101.332L59.6683 97.684H61.1803L63.5803 101.332H61.7323ZM58.9363 97.348H60.2563C60.7763 97.348 61.1703 97.23 61.4383 96.994C61.7063 96.754 61.8403 96.444 61.8403 96.064C61.8403 95.676 61.7183 95.364 61.4743 95.128C61.2303 94.888 60.8723 94.768 60.4003 94.768H58.9363V97.348ZM67.415 101.5C66.919 101.5 66.465 101.372 66.053 101.116C65.641 100.86 65.311 100.502 65.063 100.042C64.815 99.578 64.691 99.036 64.691 98.416C64.691 97.776 64.813 97.226 65.057 96.766C65.305 96.306 65.635 95.954 66.047 95.71C66.459 95.466 66.915 95.344 67.415 95.344C67.879 95.344 68.279 95.438 68.615 95.626C68.955 95.81 69.227 96.062 69.431 96.382C69.639 96.698 69.779 97.056 69.851 97.456C69.923 97.856 69.927 98.268 69.863 98.692H65.819V97.924H68.861L68.585 98.104C68.597 97.916 68.587 97.726 68.555 97.534C68.527 97.342 68.471 97.166 68.387 97.006C68.303 96.846 68.183 96.718 68.027 96.622C67.875 96.522 67.679 96.472 67.439 96.472C67.151 96.472 66.907 96.544 66.707 96.688C66.507 96.832 66.355 97.028 66.251 97.276C66.147 97.524 66.095 97.804 66.095 98.116V98.68C66.095 99.008 66.143 99.298 66.239 99.55C66.339 99.802 66.485 100 66.677 100.144C66.873 100.288 67.119 100.36 67.415 100.36C67.691 100.36 67.923 100.296 68.111 100.168C68.299 100.04 68.419 99.848 68.471 99.592H69.899C69.839 99.968 69.697 100.3 69.473 100.588C69.253 100.872 68.967 101.096 68.615 101.26C68.263 101.42 67.863 101.5 67.415 101.5ZM75.3142 101.332L75.1342 99.916V97.576C75.1342 97.168 75.0502 96.866 74.8822 96.67C74.7182 96.474 74.4382 96.376 74.0422 96.376C73.8142 96.376 73.6162 96.41 73.4482 96.478C73.2802 96.546 73.1502 96.644 73.0582 96.772C72.9702 96.896 72.9262 97.048 72.9262 97.228H71.3782C71.3782 96.788 71.4842 96.43 71.6962 96.154C71.9082 95.874 72.2122 95.67 72.6082 95.542C73.0082 95.41 73.4862 95.344 74.0422 95.344C74.5462 95.344 74.9862 95.426 75.3622 95.59C75.7382 95.75 76.0302 95.998 76.2382 96.334C76.4462 96.67 76.5502 97.1 76.5502 97.624V101.332H75.3142ZM73.4062 101.5C72.9062 101.5 72.4882 101.414 72.1522 101.242C71.8202 101.066 71.5702 100.836 71.4022 100.552C71.2342 100.268 71.1502 99.96 71.1502 99.628C71.1502 99.26 71.2462 98.952 71.4382 98.704C71.6342 98.452 71.9102 98.264 72.2662 98.14C72.6222 98.012 73.0422 97.948 73.5262 97.948C73.8422 97.948 74.1402 97.972 74.4202 98.02C74.7042 98.068 74.9862 98.132 75.2662 98.212V99.04C75.0462 98.968 74.8062 98.912 74.5462 98.872C74.2862 98.832 74.0422 98.812 73.8142 98.812C73.4782 98.812 73.2022 98.874 72.9862 98.998C72.7702 99.122 72.6622 99.332 72.6622 99.628C72.6622 99.844 72.7502 100.03 72.9262 100.186C73.1022 100.342 73.3822 100.42 73.7662 100.42C74.0582 100.42 74.3062 100.356 74.5102 100.228C74.7142 100.1 74.8682 99.94 74.9722 99.748C75.0802 99.556 75.1342 99.364 75.1342 99.172H75.4702C75.4702 99.592 75.3922 99.98 75.2362 100.336C75.0802 100.688 74.8482 100.97 74.5402 101.182C74.2362 101.394 73.8582 101.5 73.4062 101.5ZM80.8338 101.5C80.3458 101.5 79.8918 101.374 79.4718 101.122C79.0558 100.866 78.7178 100.508 78.4578 100.048C78.2018 99.584 78.0738 99.04 78.0738 98.416C78.0738 97.756 78.2018 97.198 78.4578 96.742C78.7178 96.282 79.0558 95.934 79.4718 95.698C79.8918 95.462 80.3458 95.344 80.8338 95.344C81.2138 95.344 81.5478 95.406 81.8358 95.53C82.1278 95.65 82.3758 95.814 82.5798 96.022C82.7838 96.226 82.9438 96.454 83.0598 96.706C83.1758 96.958 83.2498 97.212 83.2818 97.468L81.8538 97.504C81.7898 97.248 81.6698 97.036 81.4938 96.868C81.3218 96.7 81.0978 96.616 80.8218 96.616C80.5938 96.616 80.3798 96.68 80.1798 96.808C79.9798 96.932 79.8158 97.126 79.6878 97.39C79.5638 97.654 79.5018 97.996 79.5018 98.416C79.5018 98.816 79.5598 99.15 79.6758 99.418C79.7958 99.682 79.9558 99.882 80.1558 100.018C80.3558 100.15 80.5778 100.216 80.8218 100.216C81.1818 100.216 81.4438 100.13 81.6078 99.958C81.7718 99.782 81.8538 99.548 81.8538 99.256H83.2818C83.2818 99.668 83.1878 100.044 82.9998 100.384C82.8118 100.724 82.5358 100.996 82.1718 101.2C81.8078 101.4 81.3618 101.5 80.8338 101.5ZM86.9453 101.5C86.6013 101.5 86.2853 101.436 85.9973 101.308C85.7133 101.18 85.4853 100.984 85.3133 100.72C85.1453 100.456 85.0613 100.12 85.0613 99.712V93.964H86.4773V99.664C86.4773 100.144 86.7053 100.384 87.1613 100.384C87.3013 100.384 87.4413 100.368 87.5813 100.336C87.7213 100.304 87.8813 100.256 88.0613 100.192L88.2653 101.188C88.0413 101.276 87.8233 101.35 87.6113 101.41C87.3993 101.47 87.1773 101.5 86.9453 101.5ZM84.2453 96.448V95.512H88.0613V96.448H84.2453Z" fill="#3DCFB6"/>
<path d="M126.695 56.9988L123.001 63.3988L119.305 56.9988H107L123.001 84.7126L139 56.9988H126.695Z" fill="#41B883"/>
<path d="M126.695 56.9988L123.001 63.3988L119.305 56.9988H113.4L123.001 73.6266L132.6 56.9988H126.695Z" fill="#34495E"/>
<path d="M108.64 99.784L110.632 93.544H112.12L109.444 101.332H107.956L105.316 93.544H106.816L108.784 99.784H108.64ZM117.322 95.488H118.738V101.332H117.322V95.488ZM113.326 95.488H114.742V99.064C114.742 99.444 114.836 99.73 115.024 99.922C115.212 100.11 115.47 100.204 115.798 100.204C116.078 100.204 116.332 100.132 116.56 99.988C116.792 99.84 116.976 99.624 117.112 99.34C117.252 99.052 117.322 98.696 117.322 98.272H117.706C117.706 98.984 117.614 99.574 117.43 100.042C117.246 100.51 116.992 100.86 116.668 101.092C116.344 101.324 115.97 101.44 115.546 101.44C115.13 101.44 114.754 101.366 114.418 101.218C114.082 101.07 113.816 100.832 113.62 100.504C113.424 100.176 113.326 99.744 113.326 99.208V95.488ZM123.142 101.5C122.646 101.5 122.192 101.372 121.78 101.116C121.368 100.86 121.038 100.502 120.79 100.042C120.542 99.578 120.418 99.036 120.418 98.416C120.418 97.776 120.54 97.226 120.784 96.766C121.032 96.306 121.362 95.954 121.774 95.71C122.186 95.466 122.642 95.344 123.142 95.344C123.606 95.344 124.006 95.438 124.342 95.626C124.682 95.81 124.954 96.062 125.158 96.382C125.366 96.698 125.506 97.056 125.578 97.456C125.65 97.856 125.654 98.268 125.59 98.692H121.546V97.924H124.588L124.312 98.104C124.324 97.916 124.314 97.726 124.282 97.534C124.254 97.342 124.198 97.166 124.114 97.006C124.03 96.846 123.91 96.718 123.754 96.622C123.602 96.522 123.406 96.472 123.166 96.472C122.878 96.472 122.634 96.544 122.434 96.688C122.234 96.832 122.082 97.028 121.978 97.276C121.874 97.524 121.822 97.804 121.822 98.116V98.68C121.822 99.008 121.87 99.298 121.966 99.55C122.066 99.802 122.212 100 122.404 100.144C122.6 100.288 122.846 100.36 123.142 100.36C123.418 100.36 123.65 100.296 123.838 100.168C124.026 100.04 124.146 99.848 124.198 99.592H125.626C125.566 99.968 125.424 100.3 125.2 100.588C124.98 100.872 124.694 101.096 124.342 101.26C123.99 101.42 123.59 101.5 123.142 101.5ZM129.444 101.008V99.592C129.764 99.776 130.076 99.91 130.38 99.994C130.688 100.078 130.972 100.12 131.232 100.12C131.576 100.12 131.826 100.02 131.982 99.82C132.138 99.62 132.216 99.316 132.216 98.908V93.544H133.644V98.908C133.644 99.536 133.546 100.04 133.35 100.42C133.154 100.8 132.884 101.076 132.54 101.248C132.196 101.416 131.8 101.5 131.352 101.5C131 101.5 130.664 101.452 130.344 101.356C130.024 101.264 129.724 101.148 129.444 101.008ZM137.86 101.5C137.3 101.5 136.818 101.424 136.414 101.272C136.014 101.116 135.706 100.894 135.49 100.606C135.274 100.314 135.164 99.964 135.16 99.556H136.468C136.48 99.844 136.594 100.054 136.81 100.186C137.026 100.318 137.32 100.384 137.692 100.384C137.896 100.384 138.076 100.354 138.232 100.294C138.392 100.234 138.516 100.152 138.604 100.048C138.692 99.944 138.736 99.828 138.736 99.7C138.736 99.536 138.676 99.408 138.556 99.316C138.44 99.22 138.252 99.132 137.992 99.052L136.72 98.596C136.264 98.432 135.914 98.216 135.67 97.948C135.426 97.68 135.304 97.36 135.304 96.988C135.304 96.496 135.526 96.1 135.97 95.8C136.418 95.496 137.016 95.344 137.764 95.344C138.508 95.344 139.082 95.508 139.486 95.836C139.894 96.16 140.104 96.572 140.116 97.072H138.784C138.764 96.88 138.672 96.728 138.508 96.616C138.344 96.504 138.096 96.448 137.764 96.448C137.464 96.448 137.228 96.51 137.056 96.634C136.888 96.754 136.804 96.896 136.804 97.06C136.804 97.336 137.04 97.544 137.512 97.684L138.892 98.2C139.34 98.352 139.688 98.548 139.936 98.788C140.184 99.028 140.308 99.332 140.308 99.7C140.308 100.008 140.204 100.3 139.996 100.576C139.792 100.848 139.506 101.07 139.138 101.242C138.77 101.414 138.344 101.5 137.86 101.5Z" fill="#3DCFB6"/>
<defs>
<filter id="filter0_d_3296_5248" x="0" y="0.332031" width="196" height="134.415" filterUnits="userSpaceOnUse" color-interpolation-filters="sRGB">
<feFlood flood-opacity="0" result="BackgroundImageFix"/>
<feColorMatrix in="SourceAlpha" type="matrix" values="0 0 0 0 0 0 0 0 0 0 0 0 0 0 0 0 0 0 127 0" result="hardAlpha"/>
<feOffset dy="4"/>
<feGaussianBlur stdDeviation="2"/>
<feComposite in2="hardAlpha" operator="out"/>
<feColorMatrix type="matrix" values="0 0 0 0 0 0 0 0 0 0 0 0 0 0 0 0 0 0 0.25 0"/>
<feBlend mode="normal" in2="BackgroundImageFix" result="effect1_dropShadow_3296_5248"/>
<feBlend mode="normal" in="SourceGraphic" in2="effect1_dropShadow_3296_5248" result="shape"/>
</filter>
<clipPath id="clip0_3296_5248">
<rect width="32" height="32" fill="white" transform="translate(56.5 54.332)"/>
</clipPath>
</defs>
</svg>
